<?xml version="1.0" encoding="utf-8" standalone="no"?>
<!DOCTYPE svg PUBLIC "-//W3C//DTD SVG 1.1//EN"
  "http://www.w3.org/Graphics/SVG/1.1/DTD/svg11.dtd">
<svg xmlns:xlink="http://www.w3.org/1999/xlink" width="720pt" height="432pt" viewBox="0 0 720 432" xmlns="http://www.w3.org/2000/svg" version="1.1">
 <metadata>
  <rdf:RDF xmlns:dc="http://purl.org/dc/elements/1.1/" xmlns:cc="http://creativecommons.org/ns#" xmlns:rdf="http://www.w3.org/1999/02/22-rdf-syntax-ns#">
   <cc:Work>
    <dc:type rdf:resource="http://purl.org/dc/dcmitype/StillImage"/>
    <dc:date>2024-12-31T17:27:43.469914</dc:date>
    <dc:format>image/svg+xml</dc:format>
    <dc:creator>
     <cc:Agent>
      <dc:title>Matplotlib v3.8.0, https://matplotlib.org/</dc:title>
     </cc:Agent>
    </dc:creator>
   </cc:Work>
  </rdf:RDF>
 </metadata>
 <defs>
  <style type="text/css">*{stroke-linejoin: round; stroke-linecap: butt}</style>
 </defs>
 <g id="figure_1">
  <g id="patch_1">
   <path d="M 0 432 
L 720 432 
L 720 0 
L 0 0 
z
" style="fill: #ffffff"/>
  </g>
  <g id="axes_1">
   <g id="patch_2">
    <path d="M 90 384.48 
L 648 384.48 
L 648 51.84 
L 90 51.84 
z
" style="fill: #ffffff"/>
   </g>
   <g id="matplotlib.axis_1">
    <g id="xtick_1">
     <g id="line2d_1">
      <path d="M 115.940738 384.48 
L 115.940738 51.84 
" clip-path="url(#p2b25bb2069)" style="fill: none; stroke: #b0b0b0; stroke-width: 0.8; stroke-linecap: square"/>
     </g>
     <g id="line2d_2">
      <defs>
       <path id="m3f9dd3b4e2" d="M 0 0 
L 0 3.5 
" style="stroke: #000000; stroke-width: 0.8"/>
      </defs>
      <g>
       <use xlink:href="#m3f9dd3b4e2" x="115.940738" y="384.48" style="stroke: #000000; stroke-width: 0.8"/>
      </g>
     </g>
     <g id="text_1">
      <!-- 08-06 -->
      <g transform="translate(95.481988 402.9325) scale(0.16 -0.16)">
       <defs>
        <path id="ArialMT-30" d="M 266 2259 
Q 266 3072 433 3567 
Q 600 4063 929 4331 
Q 1259 4600 1759 4600 
Q 2128 4600 2406 4451 
Q 2684 4303 2865 4023 
Q 3047 3744 3150 3342 
Q 3253 2941 3253 2259 
Q 3253 1453 3087 958 
Q 2922 463 2592 192 
Q 2263 -78 1759 -78 
Q 1097 -78 719 397 
Q 266 969 266 2259 
z
M 844 2259 
Q 844 1131 1108 757 
Q 1372 384 1759 384 
Q 2147 384 2411 759 
Q 2675 1134 2675 2259 
Q 2675 3391 2411 3762 
Q 2147 4134 1753 4134 
Q 1366 4134 1134 3806 
Q 844 3388 844 2259 
z
" transform="scale(0.015625)"/>
        <path id="ArialMT-38" d="M 1131 2484 
Q 781 2613 612 2850 
Q 444 3088 444 3419 
Q 444 3919 803 4259 
Q 1163 4600 1759 4600 
Q 2359 4600 2725 4251 
Q 3091 3903 3091 3403 
Q 3091 3084 2923 2848 
Q 2756 2613 2416 2484 
Q 2838 2347 3058 2040 
Q 3278 1734 3278 1309 
Q 3278 722 2862 322 
Q 2447 -78 1769 -78 
Q 1091 -78 675 323 
Q 259 725 259 1325 
Q 259 1772 486 2073 
Q 713 2375 1131 2484 
z
M 1019 3438 
Q 1019 3113 1228 2906 
Q 1438 2700 1772 2700 
Q 2097 2700 2305 2904 
Q 2513 3109 2513 3406 
Q 2513 3716 2298 3927 
Q 2084 4138 1766 4138 
Q 1444 4138 1231 3931 
Q 1019 3725 1019 3438 
z
M 838 1322 
Q 838 1081 952 856 
Q 1066 631 1291 507 
Q 1516 384 1775 384 
Q 2178 384 2440 643 
Q 2703 903 2703 1303 
Q 2703 1709 2433 1975 
Q 2163 2241 1756 2241 
Q 1359 2241 1098 1978 
Q 838 1716 838 1322 
z
" transform="scale(0.015625)"/>
        <path id="ArialMT-2d" d="M 203 1375 
L 203 1941 
L 1931 1941 
L 1931 1375 
L 203 1375 
z
" transform="scale(0.015625)"/>
        <path id="ArialMT-36" d="M 3184 3459 
L 2625 3416 
Q 2550 3747 2413 3897 
Q 2184 4138 1850 4138 
Q 1581 4138 1378 3988 
Q 1113 3794 959 3422 
Q 806 3050 800 2363 
Q 1003 2672 1297 2822 
Q 1591 2972 1913 2972 
Q 2475 2972 2870 2558 
Q 3266 2144 3266 1488 
Q 3266 1056 3080 686 
Q 2894 316 2569 119 
Q 2244 -78 1831 -78 
Q 1128 -78 684 439 
Q 241 956 241 2144 
Q 241 3472 731 4075 
Q 1159 4600 1884 4600 
Q 2425 4600 2770 4297 
Q 3116 3994 3184 3459 
z
M 888 1484 
Q 888 1194 1011 928 
Q 1134 663 1356 523 
Q 1578 384 1822 384 
Q 2178 384 2434 671 
Q 2691 959 2691 1453 
Q 2691 1928 2437 2201 
Q 2184 2475 1800 2475 
Q 1419 2475 1153 2201 
Q 888 1928 888 1484 
z
" transform="scale(0.015625)"/>
       </defs>
       <use xlink:href="#ArialMT-30"/>
       <use xlink:href="#ArialMT-38" x="55.615234"/>
       <use xlink:href="#ArialMT-2d" x="111.230469"/>
       <use xlink:href="#ArialMT-30" x="144.53125"/>
       <use xlink:href="#ArialMT-36" x="200.146484"/>
      </g>
     </g>
    </g>
    <g id="xtick_2">
     <g id="line2d_3">
      <path d="M 185.192988 384.48 
L 185.192988 51.84 
" clip-path="url(#p2b25bb2069)" style="fill: none; stroke: #b0b0b0; stroke-width: 0.8; stroke-linecap: square"/>
     </g>
     <g id="line2d_4">
      <g>
       <use xlink:href="#m3f9dd3b4e2" x="185.192988" y="384.48" style="stroke: #000000; stroke-width: 0.8"/>
      </g>
     </g>
     <g id="text_2">
      <!-- 08-11 -->
      <g transform="translate(165.324238 402.9325) scale(0.16 -0.16)">
       <defs>
        <path id="ArialMT-31" d="M 2384 0 
L 1822 0 
L 1822 3584 
Q 1619 3391 1289 3197 
Q 959 3003 697 2906 
L 697 3450 
Q 1169 3672 1522 3987 
Q 1875 4303 2022 4600 
L 2384 4600 
L 2384 0 
z
" transform="scale(0.015625)"/>
       </defs>
       <use xlink:href="#ArialMT-30"/>
       <use xlink:href="#ArialMT-38" x="55.615234"/>
       <use xlink:href="#ArialMT-2d" x="111.230469"/>
       <use xlink:href="#ArialMT-31" x="144.53125"/>
       <use xlink:href="#ArialMT-31" x="192.771484"/>
      </g>
     </g>
    </g>
    <g id="xtick_3">
     <g id="line2d_5">
      <path d="M 254.445237 384.48 
L 254.445237 51.84 
" clip-path="url(#p2b25bb2069)" style="fill: none; stroke: #b0b0b0; stroke-width: 0.8; stroke-linecap: square"/>
     </g>
     <g id="line2d_6">
      <g>
       <use xlink:href="#m3f9dd3b4e2" x="254.445237" y="384.48" style="stroke: #000000; stroke-width: 0.8"/>
      </g>
     </g>
     <g id="text_3">
      <!-- 08-16 -->
      <g transform="translate(233.986487 402.9325) scale(0.16 -0.16)">
       <use xlink:href="#ArialMT-30"/>
       <use xlink:href="#ArialMT-38" x="55.615234"/>
       <use xlink:href="#ArialMT-2d" x="111.230469"/>
       <use xlink:href="#ArialMT-31" x="144.53125"/>
       <use xlink:href="#ArialMT-36" x="200.146484"/>
      </g>
     </g>
    </g>
    <g id="xtick_4">
     <g id="line2d_7">
      <path d="M 323.697487 384.48 
L 323.697487 51.84 
" clip-path="url(#p2b25bb2069)" style="fill: none; stroke: #b0b0b0; stroke-width: 0.8; stroke-linecap: square"/>
     </g>
     <g id="line2d_8">
      <g>
       <use xlink:href="#m3f9dd3b4e2" x="323.697487" y="384.48" style="stroke: #000000; stroke-width: 0.8"/>
      </g>
     </g>
     <g id="text_4">
      <!-- 08-21 -->
      <g transform="translate(303.238737 402.9325) scale(0.16 -0.16)">
       <defs>
        <path id="ArialMT-32" d="M 3222 541 
L 3222 0 
L 194 0 
Q 188 203 259 391 
Q 375 700 629 1000 
Q 884 1300 1366 1694 
Q 2113 2306 2375 2664 
Q 2638 3022 2638 3341 
Q 2638 3675 2398 3904 
Q 2159 4134 1775 4134 
Q 1369 4134 1125 3890 
Q 881 3647 878 3216 
L 300 3275 
Q 359 3922 746 4261 
Q 1134 4600 1788 4600 
Q 2447 4600 2831 4234 
Q 3216 3869 3216 3328 
Q 3216 3053 3103 2787 
Q 2991 2522 2730 2228 
Q 2469 1934 1863 1422 
Q 1356 997 1212 845 
Q 1069 694 975 541 
L 3222 541 
z
" transform="scale(0.015625)"/>
       </defs>
       <use xlink:href="#ArialMT-30"/>
       <use xlink:href="#ArialMT-38" x="55.615234"/>
       <use xlink:href="#ArialMT-2d" x="111.230469"/>
       <use xlink:href="#ArialMT-32" x="144.53125"/>
       <use xlink:href="#ArialMT-31" x="200.146484"/>
      </g>
     </g>
    </g>
    <g id="xtick_5">
     <g id="line2d_9">
      <path d="M 392.949736 384.48 
L 392.949736 51.84 
" clip-path="url(#p2b25bb2069)" style="fill: none; stroke: #b0b0b0; stroke-width: 0.8; stroke-linecap: square"/>
     </g>
     <g id="line2d_10">
      <g>
       <use xlink:href="#m3f9dd3b4e2" x="392.949736" y="384.48" style="stroke: #000000; stroke-width: 0.8"/>
      </g>
     </g>
     <g id="text_5">
      <!-- 08-26 -->
      <g transform="translate(372.490986 402.9325) scale(0.16 -0.16)">
       <use xlink:href="#ArialMT-30"/>
       <use xlink:href="#ArialMT-38" x="55.615234"/>
       <use xlink:href="#ArialMT-2d" x="111.230469"/>
       <use xlink:href="#ArialMT-32" x="144.53125"/>
       <use xlink:href="#ArialMT-36" x="200.146484"/>
      </g>
     </g>
    </g>
    <g id="xtick_6">
     <g id="line2d_11">
      <path d="M 462.201986 384.48 
L 462.201986 51.84 
" clip-path="url(#p2b25bb2069)" style="fill: none; stroke: #b0b0b0; stroke-width: 0.8; stroke-linecap: square"/>
     </g>
     <g id="line2d_12">
      <g>
       <use xlink:href="#m3f9dd3b4e2" x="462.201986" y="384.48" style="stroke: #000000; stroke-width: 0.8"/>
      </g>
     </g>
     <g id="text_6">
      <!-- 08-31 -->
      <g transform="translate(441.743236 402.9325) scale(0.16 -0.16)">
       <defs>
        <path id="ArialMT-33" d="M 269 1209 
L 831 1284 
Q 928 806 1161 595 
Q 1394 384 1728 384 
Q 2125 384 2398 659 
Q 2672 934 2672 1341 
Q 2672 1728 2419 1979 
Q 2166 2231 1775 2231 
Q 1616 2231 1378 2169 
L 1441 2663 
Q 1497 2656 1531 2656 
Q 1891 2656 2178 2843 
Q 2466 3031 2466 3422 
Q 2466 3731 2256 3934 
Q 2047 4138 1716 4138 
Q 1388 4138 1169 3931 
Q 950 3725 888 3313 
L 325 3413 
Q 428 3978 793 4289 
Q 1159 4600 1703 4600 
Q 2078 4600 2393 4439 
Q 2709 4278 2876 4000 
Q 3044 3722 3044 3409 
Q 3044 3113 2884 2869 
Q 2725 2625 2413 2481 
Q 2819 2388 3044 2092 
Q 3269 1797 3269 1353 
Q 3269 753 2831 336 
Q 2394 -81 1725 -81 
Q 1122 -81 723 278 
Q 325 638 269 1209 
z
" transform="scale(0.015625)"/>
       </defs>
       <use xlink:href="#ArialMT-30"/>
       <use xlink:href="#ArialMT-38" x="55.615234"/>
       <use xlink:href="#ArialMT-2d" x="111.230469"/>
       <use xlink:href="#ArialMT-33" x="144.53125"/>
       <use xlink:href="#ArialMT-31" x="200.146484"/>
      </g>
     </g>
    </g>
    <g id="xtick_7">
     <g id="line2d_13">
      <path d="M 531.454235 384.48 
L 531.454235 51.84 
" clip-path="url(#p2b25bb2069)" style="fill: none; stroke: #b0b0b0; stroke-width: 0.8; stroke-linecap: square"/>
     </g>
     <g id="line2d_14">
      <g>
       <use xlink:href="#m3f9dd3b4e2" x="531.454235" y="384.48" style="stroke: #000000; stroke-width: 0.8"/>
      </g>
     </g>
     <g id="text_7">
      <!-- 09-05 -->
      <g transform="translate(510.995485 402.9325) scale(0.16 -0.16)">
       <defs>
        <path id="ArialMT-39" d="M 350 1059 
L 891 1109 
Q 959 728 1153 556 
Q 1347 384 1650 384 
Q 1909 384 2104 503 
Q 2300 622 2425 820 
Q 2550 1019 2634 1356 
Q 2719 1694 2719 2044 
Q 2719 2081 2716 2156 
Q 2547 1888 2255 1720 
Q 1963 1553 1622 1553 
Q 1053 1553 659 1965 
Q 266 2378 266 3053 
Q 266 3750 677 4175 
Q 1088 4600 1706 4600 
Q 2153 4600 2523 4359 
Q 2894 4119 3086 3673 
Q 3278 3228 3278 2384 
Q 3278 1506 3087 986 
Q 2897 466 2520 194 
Q 2144 -78 1638 -78 
Q 1100 -78 759 220 
Q 419 519 350 1059 
z
M 2653 3081 
Q 2653 3566 2395 3850 
Q 2138 4134 1775 4134 
Q 1400 4134 1122 3828 
Q 844 3522 844 3034 
Q 844 2597 1108 2323 
Q 1372 2050 1759 2050 
Q 2150 2050 2401 2323 
Q 2653 2597 2653 3081 
z
" transform="scale(0.015625)"/>
        <path id="ArialMT-35" d="M 266 1200 
L 856 1250 
Q 922 819 1161 601 
Q 1400 384 1738 384 
Q 2144 384 2425 690 
Q 2706 997 2706 1503 
Q 2706 1984 2436 2262 
Q 2166 2541 1728 2541 
Q 1456 2541 1237 2417 
Q 1019 2294 894 2097 
L 366 2166 
L 809 4519 
L 3088 4519 
L 3088 3981 
L 1259 3981 
L 1013 2750 
Q 1425 3038 1878 3038 
Q 2478 3038 2890 2622 
Q 3303 2206 3303 1553 
Q 3303 931 2941 478 
Q 2500 -78 1738 -78 
Q 1113 -78 717 272 
Q 322 622 266 1200 
z
" transform="scale(0.015625)"/>
       </defs>
       <use xlink:href="#ArialMT-30"/>
       <use xlink:href="#ArialMT-39" x="55.615234"/>
       <use xlink:href="#ArialMT-2d" x="111.230469"/>
       <use xlink:href="#ArialMT-30" x="144.53125"/>
       <use xlink:href="#ArialMT-35" x="200.146484"/>
      </g>
     </g>
    </g>
    <g id="xtick_8">
     <g id="line2d_15">
      <path d="M 600.706485 384.48 
L 600.706485 51.84 
" clip-path="url(#p2b25bb2069)" style="fill: none; stroke: #b0b0b0; stroke-width: 0.8; stroke-linecap: square"/>
     </g>
     <g id="line2d_16">
      <g>
       <use xlink:href="#m3f9dd3b4e2" x="600.706485" y="384.48" style="stroke: #000000; stroke-width: 0.8"/>
      </g>
     </g>
     <g id="text_8">
      <!-- 09-10 -->
      <g transform="translate(580.247735 402.9325) scale(0.16 -0.16)">
       <use xlink:href="#ArialMT-30"/>
       <use xlink:href="#ArialMT-39" x="55.615234"/>
       <use xlink:href="#ArialMT-2d" x="111.230469"/>
       <use xlink:href="#ArialMT-31" x="144.53125"/>
       <use xlink:href="#ArialMT-30" x="200.146484"/>
      </g>
     </g>
    </g>
    <g id="text_9">
     <!-- Date -->
     <g transform="translate(349.990313 422.996562) scale(0.18 -0.18)">
      <defs>
       <path id="ArialMT-44" d="M 494 0 
L 494 4581 
L 2072 4581 
Q 2606 4581 2888 4516 
Q 3281 4425 3559 4188 
Q 3922 3881 4101 3404 
Q 4281 2928 4281 2316 
Q 4281 1794 4159 1391 
Q 4038 988 3847 723 
Q 3656 459 3429 307 
Q 3203 156 2883 78 
Q 2563 0 2147 0 
L 494 0 
z
M 1100 541 
L 2078 541 
Q 2531 541 2789 625 
Q 3047 709 3200 863 
Q 3416 1078 3536 1442 
Q 3656 1806 3656 2325 
Q 3656 3044 3420 3430 
Q 3184 3816 2847 3947 
Q 2603 4041 2063 4041 
L 1100 4041 
L 1100 541 
z
" transform="scale(0.015625)"/>
       <path id="ArialMT-61" d="M 2588 409 
Q 2275 144 1986 34 
Q 1697 -75 1366 -75 
Q 819 -75 525 192 
Q 231 459 231 875 
Q 231 1119 342 1320 
Q 453 1522 633 1644 
Q 813 1766 1038 1828 
Q 1203 1872 1538 1913 
Q 2219 1994 2541 2106 
Q 2544 2222 2544 2253 
Q 2544 2597 2384 2738 
Q 2169 2928 1744 2928 
Q 1347 2928 1158 2789 
Q 969 2650 878 2297 
L 328 2372 
Q 403 2725 575 2942 
Q 747 3159 1072 3276 
Q 1397 3394 1825 3394 
Q 2250 3394 2515 3294 
Q 2781 3194 2906 3042 
Q 3031 2891 3081 2659 
Q 3109 2516 3109 2141 
L 3109 1391 
Q 3109 606 3145 398 
Q 3181 191 3288 0 
L 2700 0 
Q 2613 175 2588 409 
z
M 2541 1666 
Q 2234 1541 1622 1453 
Q 1275 1403 1131 1340 
Q 988 1278 909 1158 
Q 831 1038 831 891 
Q 831 666 1001 516 
Q 1172 366 1500 366 
Q 1825 366 2078 508 
Q 2331 650 2450 897 
Q 2541 1088 2541 1459 
L 2541 1666 
z
" transform="scale(0.015625)"/>
       <path id="ArialMT-74" d="M 1650 503 
L 1731 6 
Q 1494 -44 1306 -44 
Q 1000 -44 831 53 
Q 663 150 594 308 
Q 525 466 525 972 
L 525 2881 
L 113 2881 
L 113 3319 
L 525 3319 
L 525 4141 
L 1084 4478 
L 1084 3319 
L 1650 3319 
L 1650 2881 
L 1084 2881 
L 1084 941 
Q 1084 700 1114 631 
Q 1144 563 1211 522 
Q 1278 481 1403 481 
Q 1497 481 1650 503 
z
" transform="scale(0.015625)"/>
       <path id="ArialMT-65" d="M 2694 1069 
L 3275 997 
Q 3138 488 2766 206 
Q 2394 -75 1816 -75 
Q 1088 -75 661 373 
Q 234 822 234 1631 
Q 234 2469 665 2931 
Q 1097 3394 1784 3394 
Q 2450 3394 2872 2941 
Q 3294 2488 3294 1666 
Q 3294 1616 3291 1516 
L 816 1516 
Q 847 969 1125 678 
Q 1403 388 1819 388 
Q 2128 388 2347 550 
Q 2566 713 2694 1069 
z
M 847 1978 
L 2700 1978 
Q 2663 2397 2488 2606 
Q 2219 2931 1791 2931 
Q 1403 2931 1139 2672 
Q 875 2413 847 1978 
z
" transform="scale(0.015625)"/>
      </defs>
      <use xlink:href="#ArialMT-44"/>
      <use xlink:href="#ArialMT-61" x="72.216797"/>
      <use xlink:href="#ArialMT-74" x="127.832031"/>
      <use xlink:href="#ArialMT-65" x="155.615234"/>
     </g>
    </g>
   </g>
   <g id="matplotlib.axis_2">
    <g id="ytick_1">
     <g id="line2d_17">
      <path d="M 90 381.021243 
L 648 381.021243 
" clip-path="url(#p2b25bb2069)" style="fill: none; stroke: #b0b0b0; stroke-width: 0.8; stroke-linecap: square"/>
     </g>
     <g id="line2d_18">
      <defs>
       <path id="m4bffc32a24" d="M 0 0 
L -3.5 0 
" style="stroke: #000000; stroke-width: 0.8"/>
      </defs>
      <g>
       <use xlink:href="#m4bffc32a24" x="90" y="381.021243" style="stroke: #000000; stroke-width: 0.8"/>
      </g>
     </g>
     <g id="text_10">
      <!-- 0 -->
      <g transform="translate(72.990313 387.463274) scale(0.18 -0.18)">
       <use xlink:href="#ArialMT-30"/>
      </g>
     </g>
    </g>
    <g id="ytick_2">
     <g id="line2d_19">
      <path d="M 90 330.556158 
L 648 330.556158 
" clip-path="url(#p2b25bb2069)" style="fill: none; stroke: #b0b0b0; stroke-width: 0.8; stroke-linecap: square"/>
     </g>
     <g id="line2d_20">
      <g>
       <use xlink:href="#m4bffc32a24" x="90" y="330.556158" style="stroke: #000000; stroke-width: 0.8"/>
      </g>
     </g>
     <g id="text_11">
      <!-- 1 -->
      <g transform="translate(72.990313 336.998189) scale(0.18 -0.18)">
       <use xlink:href="#ArialMT-31"/>
      </g>
     </g>
    </g>
    <g id="ytick_3">
     <g id="line2d_21">
      <path d="M 90 280.091073 
L 648 280.091073 
" clip-path="url(#p2b25bb2069)" style="fill: none; stroke: #b0b0b0; stroke-width: 0.8; stroke-linecap: square"/>
     </g>
     <g id="line2d_22">
      <g>
       <use xlink:href="#m4bffc32a24" x="90" y="280.091073" style="stroke: #000000; stroke-width: 0.8"/>
      </g>
     </g>
     <g id="text_12">
      <!-- 2 -->
      <g transform="translate(72.990313 286.533104) scale(0.18 -0.18)">
       <use xlink:href="#ArialMT-32"/>
      </g>
     </g>
    </g>
    <g id="ytick_4">
     <g id="line2d_23">
      <path d="M 90 229.625988 
L 648 229.625988 
" clip-path="url(#p2b25bb2069)" style="fill: none; stroke: #b0b0b0; stroke-width: 0.8; stroke-linecap: square"/>
     </g>
     <g id="line2d_24">
      <g>
       <use xlink:href="#m4bffc32a24" x="90" y="229.625988" style="stroke: #000000; stroke-width: 0.8"/>
      </g>
     </g>
     <g id="text_13">
      <!-- 3 -->
      <g transform="translate(72.990313 236.068019) scale(0.18 -0.18)">
       <use xlink:href="#ArialMT-33"/>
      </g>
     </g>
    </g>
    <g id="ytick_5">
     <g id="line2d_25">
      <path d="M 90 179.160902 
L 648 179.160902 
" clip-path="url(#p2b25bb2069)" style="fill: none; stroke: #b0b0b0; stroke-width: 0.8; stroke-linecap: square"/>
     </g>
     <g id="line2d_26">
      <g>
       <use xlink:href="#m4bffc32a24" x="90" y="179.160902" style="stroke: #000000; stroke-width: 0.8"/>
      </g>
     </g>
     <g id="text_14">
      <!-- 4 -->
      <g transform="translate(72.990313 185.602934) scale(0.18 -0.18)">
       <defs>
        <path id="ArialMT-34" d="M 2069 0 
L 2069 1097 
L 81 1097 
L 81 1613 
L 2172 4581 
L 2631 4581 
L 2631 1613 
L 3250 1613 
L 3250 1097 
L 2631 1097 
L 2631 0 
L 2069 0 
z
M 2069 1613 
L 2069 3678 
L 634 1613 
L 2069 1613 
z
" transform="scale(0.015625)"/>
       </defs>
       <use xlink:href="#ArialMT-34"/>
      </g>
     </g>
    </g>
    <g id="ytick_6">
     <g id="line2d_27">
      <path d="M 90 128.695817 
L 648 128.695817 
" clip-path="url(#p2b25bb2069)" style="fill: none; stroke: #b0b0b0; stroke-width: 0.8; stroke-linecap: square"/>
     </g>
     <g id="line2d_28">
      <g>
       <use xlink:href="#m4bffc32a24" x="90" y="128.695817" style="stroke: #000000; stroke-width: 0.8"/>
      </g>
     </g>
     <g id="text_15">
      <!-- 5 -->
      <g transform="translate(72.990313 135.137848) scale(0.18 -0.18)">
       <use xlink:href="#ArialMT-35"/>
      </g>
     </g>
    </g>
    <g id="ytick_7">
     <g id="line2d_29">
      <path d="M 90 78.230732 
L 648 78.230732 
" clip-path="url(#p2b25bb2069)" style="fill: none; stroke: #b0b0b0; stroke-width: 0.8; stroke-linecap: square"/>
     </g>
     <g id="line2d_30">
      <g>
       <use xlink:href="#m4bffc32a24" x="90" y="78.230732" style="stroke: #000000; stroke-width: 0.8"/>
      </g>
     </g>
     <g id="text_16">
      <!-- 6 -->
      <g transform="translate(72.990313 84.672763) scale(0.18 -0.18)">
       <use xlink:href="#ArialMT-36"/>
      </g>
     </g>
    </g>
    <g id="text_17">
     <!-- Ratio -->
     <g transform="translate(65.412813 239.169375) rotate(-90) scale(0.18 -0.18)">
      <defs>
       <path id="ArialMT-52" d="M 503 0 
L 503 4581 
L 2534 4581 
Q 3147 4581 3465 4457 
Q 3784 4334 3975 4021 
Q 4166 3709 4166 3331 
Q 4166 2844 3850 2509 
Q 3534 2175 2875 2084 
Q 3116 1969 3241 1856 
Q 3506 1613 3744 1247 
L 4541 0 
L 3778 0 
L 3172 953 
Q 2906 1366 2734 1584 
Q 2563 1803 2427 1890 
Q 2291 1978 2150 2013 
Q 2047 2034 1813 2034 
L 1109 2034 
L 1109 0 
L 503 0 
z
M 1109 2559 
L 2413 2559 
Q 2828 2559 3062 2645 
Q 3297 2731 3419 2920 
Q 3541 3109 3541 3331 
Q 3541 3656 3305 3865 
Q 3069 4075 2559 4075 
L 1109 4075 
L 1109 2559 
z
" transform="scale(0.015625)"/>
       <path id="ArialMT-69" d="M 425 3934 
L 425 4581 
L 988 4581 
L 988 3934 
L 425 3934 
z
M 425 0 
L 425 3319 
L 988 3319 
L 988 0 
L 425 0 
z
" transform="scale(0.015625)"/>
       <path id="ArialMT-6f" d="M 213 1659 
Q 213 2581 725 3025 
Q 1153 3394 1769 3394 
Q 2453 3394 2887 2945 
Q 3322 2497 3322 1706 
Q 3322 1066 3130 698 
Q 2938 331 2570 128 
Q 2203 -75 1769 -75 
Q 1072 -75 642 372 
Q 213 819 213 1659 
z
M 791 1659 
Q 791 1022 1069 705 
Q 1347 388 1769 388 
Q 2188 388 2466 706 
Q 2744 1025 2744 1678 
Q 2744 2294 2464 2611 
Q 2184 2928 1769 2928 
Q 1347 2928 1069 2612 
Q 791 2297 791 1659 
z
" transform="scale(0.015625)"/>
      </defs>
      <use xlink:href="#ArialMT-52"/>
      <use xlink:href="#ArialMT-61" x="72.216797"/>
      <use xlink:href="#ArialMT-74" x="127.832031"/>
      <use xlink:href="#ArialMT-69" x="155.615234"/>
      <use xlink:href="#ArialMT-6f" x="177.832031"/>
     </g>
    </g>
   </g>
   <g id="line2d_31">
    <path d="M 115.363636 322.435504 
L 119.403351 322.562978 
L 123.443065 322.909014 
L 128.059882 323.553944 
L 132.676699 324.430597 
L 138.44772 325.767597 
L 148.258455 328.329176 
L 158.06919 330.817948 
L 164.994415 332.3399 
L 171.91964 333.606407 
L 179.999069 335.063058 
L 183.461682 335.929137 
L 186.347192 336.893843 
L 189.232702 338.12847 
L 192.118213 339.636493 
L 196.157927 342.067263 
L 201.351846 345.216868 
L 204.237357 346.701878 
L 206.545765 347.651959 
L 208.854173 348.344301 
L 211.162581 348.748043 
L 212.893888 348.846995 
L 214.625194 348.764862 
L 216.3565 348.495203 
L 218.087806 348.034474 
L 219.819113 347.379436 
L 221.550419 346.531511 
L 223.858827 345.101933 
L 226.167235 343.344334 
L 228.475644 341.278874 
L 230.784052 338.939774 
L 233.669563 335.703318 
L 237.709277 330.79875 
L 245.211604 321.598844 
L 248.674217 317.743634 
L 251.559727 314.860128 
L 253.868135 312.817134 
L 256.176544 311.040353 
L 258.484952 309.561389 
L 260.216258 308.669409 
L 261.947564 307.977133 
L 263.678871 307.499884 
L 265.410177 307.247848 
L 267.141483 307.232217 
L 268.872789 307.45962 
L 270.604096 307.932705 
L 272.335402 308.647884 
L 274.066708 309.596134 
L 275.798014 310.760251 
L 278.106423 312.60915 
L 280.991933 315.296011 
L 285.031648 319.458364 
L 290.225566 324.815361 
L 293.111077 327.515556 
L 295.996587 329.895842 
L 298.304995 331.532684 
L 300.613404 332.91566 
L 302.921812 334.038852 
L 305.23022 334.903015 
L 307.538629 335.512201 
L 309.847037 335.871327 
L 312.155445 335.984769 
L 314.463854 335.855382 
L 316.772262 335.483378 
L 319.08067 334.865662 
L 321.389078 333.996673 
L 323.697487 332.868302 
L 326.005895 331.469236 
L 328.314303 329.787942 
L 330.622712 327.81559 
L 332.93112 325.547863 
L 335.239528 322.991048 
L 338.125039 319.424878 
L 341.587651 314.73776 
L 347.358672 306.831137 
L 349.66708 304.066196 
L 351.398387 302.297003 
L 353.129693 300.851597 
L 354.860999 299.775012 
L 356.015203 299.275445 
L 357.169407 298.952646 
L 358.323612 298.804491 
L 359.477816 298.824885 
L 360.63202 299.0045 
L 362.363326 299.545214 
L 364.094632 300.366718 
L 365.825939 301.41764 
L 368.134347 303.092577 
L 371.019857 305.478585 
L 375.636674 309.647526 
L 384.870307 318.391174 
L 392.949736 325.941393 
L 396.989451 329.420337 
L 400.452063 332.090339 
L 403.337574 334.016117 
L 405.645982 335.316912 
L 407.95439 336.370329 
L 410.262799 337.144022 
L 411.994105 337.521067 
L 413.725411 337.707265 
L 415.456717 337.687876 
L 417.188024 337.446023 
L 418.91933 336.964969 
L 420.650636 336.227551 
L 422.381942 335.216777 
L 424.113249 333.917273 
L 425.844555 332.316634 
L 427.575861 330.407237 
L 429.307167 328.188482 
L 431.615576 324.769663 
L 433.923984 320.89236 
L 437.386596 314.518322 
L 440.849209 308.161467 
L 443.157617 304.416111 
L 444.888923 302.071007 
L 446.043128 300.786524 
L 447.197332 299.750285 
L 448.351536 298.973747 
L 449.50574 298.460274 
L 450.659944 298.205534 
L 451.814148 298.19731 
L 452.968352 298.416854 
L 454.122557 298.84202 
L 455.853863 299.806509 
L 457.585169 301.077389 
L 459.893577 303.089114 
L 470.281415 312.651547 
L 473.166925 314.813031 
L 476.052436 316.680923 
L 478.937946 318.274275 
L 481.823456 319.621485 
L 485.286069 320.956817 
L 488.748681 322.022021 
L 492.211294 322.840455 
L 495.673906 323.413675 
L 498.559417 323.69071 
L 501.444927 323.767212 
L 504.330437 323.622083 
L 507.215948 323.233037 
L 510.101458 322.581711 
L 512.986969 321.657046 
L 515.872479 320.462623 
L 518.757989 319.025374 
L 522.797704 316.729726 
L 527.414521 314.098476 
L 529.722929 313.011001 
L 531.454235 312.396564 
L 533.185541 312.012811 
L 534.916848 311.904591 
L 536.648154 312.100039 
L 538.37946 312.608577 
L 540.110766 313.414527 
L 541.842073 314.474662 
L 544.150481 316.17227 
L 551.652808 321.981581 
L 553.961216 323.371358 
L 556.269625 324.469695 
L 558.578033 325.276809 
L 560.886441 325.812436 
L 563.19485 326.108812 
L 565.503258 326.201317 
L 568.388768 326.086225 
L 571.851381 325.68599 
L 575.891095 324.969907 
L 581.662116 323.673705 
L 598.398076 319.750243 
L 605.323301 318.422867 
L 611.094322 317.535269 
L 615.711139 317.022811 
L 620.327955 316.740575 
L 622.636364 316.697757 
L 622.636364 316.697757 
" clip-path="url(#p2b25bb2069)" style="fill: none; stroke: #1f77b4; stroke-width: 3; stroke-linecap: square"/>
   </g>
   <g id="line2d_32">
    <path d="M 115.363636 323.97892 
L 118.826249 324.116275 
L 122.288861 324.484305 
L 125.751474 325.069805 
L 129.791188 325.998118 
L 134.408005 327.324848 
L 140.179026 329.259043 
L 151.721067 333.462357 
L 160.377599 336.49782 
L 167.879926 338.888311 
L 181.730375 343.182591 
L 185.192988 344.579564 
L 188.6556 346.255466 
L 192.118213 348.206667 
L 202.50605 354.325915 
L 205.391561 355.6298 
L 207.699969 356.445907 
L 210.008377 357.038032 
L 212.316786 357.394636 
L 214.625194 357.510638 
L 216.933602 357.383953 
L 219.242011 357.016308 
L 221.550419 356.414041 
L 223.858827 355.586276 
L 226.167235 354.550266 
L 229.052746 352.994684 
L 232.515358 350.826882 
L 237.709277 347.245195 
L 243.480298 343.335114 
L 246.94291 341.25384 
L 249.828421 339.749244 
L 252.713931 338.488717 
L 255.599442 337.499607 
L 257.90785 336.919404 
L 260.216258 336.542005 
L 262.524666 336.37846 
L 264.833075 336.439275 
L 267.141483 336.731344 
L 269.449891 337.256334 
L 271.7583 338.007843 
L 274.066708 338.970138 
L 276.952218 340.426965 
L 280.414831 342.449187 
L 290.802668 348.773995 
L 294.265281 350.509635 
L 297.150791 351.710537 
L 300.036302 352.670685 
L 302.921812 353.386014 
L 305.807322 353.86068 
L 308.692833 354.102048 
L 311.578343 354.116901 
L 314.463854 353.909813 
L 317.349364 353.481617 
L 320.234874 352.828537 
L 323.120385 351.943617 
L 326.005895 350.81636 
L 328.891406 349.435936 
L 331.776916 347.79684 
L 334.662426 345.90485 
L 338.125039 343.342662 
L 348.512876 335.352165 
L 350.821285 334.05796 
L 352.552591 333.332366 
L 354.283897 332.847513 
L 356.015203 332.61843 
L 357.746509 332.645453 
L 359.477816 332.916249 
L 361.209122 333.407506 
L 363.51753 334.350131 
L 365.825939 335.543876 
L 369.288551 337.632902 
L 377.945082 343.298719 
L 384.870307 347.650459 
L 390.641328 351.011485 
L 395.258145 353.451549 
L 399.297859 355.332018 
L 402.760472 356.700881 
L 405.645982 357.637528 
L 408.531492 358.3606 
L 411.417003 358.843559 
L 413.725411 359.037759 
L 416.033819 359.044686 
L 418.342228 358.847296 
L 420.650636 358.428274 
L 422.959044 357.770999 
L 425.267453 356.86182 
L 427.575861 355.693142 
L 429.884269 354.268325 
L 432.76978 352.16276 
L 436.232392 349.299832 
L 440.849209 345.474735 
L 443.157617 343.868367 
L 444.888923 342.910574 
L 446.62023 342.21554 
L 448.351536 341.808384 
L 450.082842 341.692896 
L 451.814148 341.853623 
L 453.545455 342.25834 
L 455.276761 342.864812 
L 457.585169 343.903594 
L 461.047782 345.734526 
L 467.395904 349.127574 
L 470.858517 350.731428 
L 474.321129 352.099952 
L 477.783742 353.24081 
L 481.823456 354.318828 
L 485.863171 355.169045 
L 490.479988 355.90754 
L 495.096804 356.425457 
L 499.713621 356.721803 
L 504.330437 356.777075 
L 508.370152 356.606579 
L 512.409867 356.218897 
L 516.449581 355.619993 
L 521.6435 354.615155 
L 527.991623 353.389083 
L 530.877133 353.044561 
L 533.185541 352.961313 
L 535.49395 353.095599 
L 537.802358 353.467345 
L 540.110766 354.06655 
L 542.996277 355.063358 
L 552.22991 358.527985 
L 555.11542 359.303405 
L 558.000931 359.869921 
L 561.463543 360.298362 
L 564.926156 360.501449 
L 568.96587 360.527557 
L 574.159789 360.337787 
L 581.662116 359.82537 
L 605.323301 358.081285 
L 615.134037 357.63355 
L 622.636364 357.508342 
L 622.636364 357.508342 
" clip-path="url(#p2b25bb2069)" style="fill: none; stroke-dasharray: 7.4,3.2; stroke-dashoffset: 0; stroke: #ff7f0e; stroke-width: 2"/>
   </g>
   <g id="line2d_33">
    <path d="M 115.363636 316.384906 
L 120.557555 316.267591 
L 124.59727 315.984717 
L 128.059882 315.532726 
L 130.945392 314.946183 
L 133.830903 314.105094 
L 136.139311 313.204507 
L 138.44772 312.061539 
L 140.756128 310.636949 
L 143.064536 308.887565 
L 145.372944 306.76825 
L 147.104251 304.905599 
L 148.835557 302.784085 
L 150.566863 300.37863 
L 152.298169 297.664092 
L 154.029476 294.611531 
L 155.760782 291.189377 
L 157.492088 287.363673 
L 159.223394 283.0985 
L 160.954701 278.354893 
L 162.686007 273.091957 
L 164.417313 267.26815 
L 166.725721 258.561431 
L 169.03413 248.700566 
L 171.342538 237.621081 
L 173.650946 225.310614 
L 175.959355 211.822412 
L 178.844865 193.562968 
L 187.501396 137.324606 
L 189.232702 127.860948 
L 190.964009 119.666229 
L 192.118213 115.001155 
L 193.272417 111.021262 
L 194.426621 107.743227 
L 195.580825 105.16848 
L 196.735029 103.272683 
L 197.889234 102.014891 
L 198.466336 101.607638 
L 199.043438 101.339896 
L 199.62054 101.203359 
L 200.197642 101.189007 
L 201.351846 101.492531 
L 202.50605 102.173279 
L 203.660254 103.154146 
L 205.391561 105.02644 
L 208.277071 108.665864 
L 211.162581 112.230025 
L 212.893888 114.081846 
L 214.625194 115.639509 
L 216.3565 116.862676 
L 218.087806 117.747097 
L 219.819113 118.318227 
L 221.550419 118.63529 
L 223.858827 118.769519 
L 229.629848 118.928353 
L 231.361154 119.275303 
L 233.09246 119.893311 
L 234.823767 120.843506 
L 236.555073 122.153129 
L 238.286379 123.826751 
L 240.017685 125.854889 
L 241.748992 128.199098 
L 244.0574 131.726879 
L 246.94291 136.648892 
L 251.559727 145.114436 
L 260.216258 161.518055 
L 263.678871 168.564894 
L 266.564381 175.001464 
L 268.872789 180.677083 
L 271.181198 186.916218 
L 273.489606 193.766882 
L 276.375116 203.177503 
L 279.260627 213.404184 
L 283.877443 230.793658 
L 289.071362 250.281178 
L 291.956872 260.3726 
L 294.842383 269.612679 
L 297.150791 276.284565 
L 299.4592 282.268049 
L 301.767608 287.543745 
L 303.498914 291.036678 
L 305.23022 294.137904 
L 306.961527 296.855536 
L 308.692833 299.198863 
L 310.424139 301.176638 
L 312.155445 302.797244 
L 313.886751 304.067388 
L 315.618058 304.991638 
L 317.349364 305.571171 
L 318.503568 305.765175 
L 319.657772 305.804243 
L 320.811976 305.685974 
L 321.966181 305.408066 
L 323.120385 304.966774 
L 324.274589 304.357527 
L 325.428793 303.574988 
L 327.160099 302.063535 
L 328.891406 300.127023 
L 330.622712 297.74112 
L 332.354018 294.879943 
L 334.085324 291.519222 
L 335.81663 287.638001 
L 337.547937 283.22292 
L 339.279243 278.271991 
L 341.587651 270.867459 
L 343.89606 262.644118 
L 346.78157 251.512169 
L 352.552591 228.90425 
L 354.860999 220.879273 
L 356.592305 215.61438 
L 358.323612 211.132991 
L 359.477816 208.622167 
L 360.63202 206.509391 
L 361.786224 204.798992 
L 362.940428 203.487317 
L 364.094632 202.563718 
L 365.248836 202.014154 
L 366.403041 201.822154 
L 367.557245 201.969844 
L 368.711449 202.428428 
L 369.865653 203.178508 
L 371.019857 204.19714 
L 372.174061 205.463099 
L 373.905368 207.781533 
L 375.636674 210.54632 
L 377.36798 213.700261 
L 379.676388 218.415216 
L 382.561899 224.963481 
L 386.024511 233.464414 
L 395.835247 257.984774 
L 398.720757 264.389566 
L 401.029165 268.997743 
L 403.337574 273.057735 
L 405.06888 275.695925 
L 406.800186 277.951972 
L 408.531492 279.79619 
L 409.685697 280.782929 
L 410.839901 281.5665 
L 411.994105 282.136529 
L 413.148309 282.484812 
L 414.302513 282.60321 
L 415.456717 282.481333 
L 416.610922 282.109229 
L 417.765126 281.476956 
L 418.91933 280.574096 
L 420.073534 279.390513 
L 421.227738 277.916193 
L 422.381942 276.141287 
L 423.536146 274.057516 
L 425.267453 270.33895 
L 426.998759 265.897334 
L 428.730065 260.736668 
L 430.461371 254.885262 
L 432.76978 246.132547 
L 435.65529 234.07758 
L 440.272107 214.593951 
L 442.003413 208.186937 
L 443.734719 202.761997 
L 444.888923 199.830498 
L 446.043128 197.526565 
L 447.197332 195.896407 
L 447.774434 195.341906 
L 448.351536 194.96238 
L 448.928638 194.757565 
L 449.50574 194.725724 
L 450.082842 194.863805 
L 450.659944 195.16783 
L 451.237046 195.632159 
L 452.39125 197.015212 
L 453.545455 198.953357 
L 454.699659 201.378463 
L 456.430965 205.761211 
L 458.162271 210.80854 
L 461.047782 220.047823 
L 466.2417 236.851564 
L 469.127211 245.304623 
L 471.435619 251.362266 
L 473.744027 256.728588 
L 475.475334 260.287537 
L 477.20664 263.447848 
L 478.937946 266.215152 
L 480.669252 268.596712 
L 482.400558 270.600614 
L 484.131865 272.237181 
L 485.863171 273.512045 
L 487.594477 274.429683 
L 489.325783 274.991657 
L 490.479988 275.169715 
L 491.634192 275.190198 
L 492.788396 275.050133 
L 493.9426 274.747135 
L 495.096804 274.277761 
L 496.251008 273.638167 
L 497.405213 272.822845 
L 499.136519 271.257399 
L 500.867825 269.259831 
L 502.599131 266.799579 
L 504.330437 263.843941 
L 506.061744 260.350146 
L 507.79305 256.273076 
L 509.524356 251.560573 
L 511.255662 246.155891 
L 512.986969 239.997849 
L 514.718275 233.024075 
L 516.449581 225.174 
L 518.180887 216.392535 
L 519.912194 206.642628 
L 522.220602 192.105138 
L 524.52901 175.876965 
L 527.414521 153.610377 
L 533.762643 103.036444 
L 535.49395 91.1551 
L 536.648154 84.248289 
L 537.802358 78.343159 
L 538.956562 73.57757 
L 540.110766 70.058778 
L 540.687868 68.787947 
L 541.264971 67.848778 
L 541.842073 67.23971 
L 542.419175 66.96 
L 542.996277 67.011318 
L 543.573379 67.38347 
L 544.150481 68.068377 
L 544.727583 69.052937 
L 545.304685 70.325505 
L 546.458889 73.671554 
L 547.613093 77.971188 
L 548.767298 83.073336 
L 550.498604 91.885792 
L 552.807012 105.018466 
L 559.155135 142.024795 
L 561.463543 154.036715 
L 563.771952 164.813178 
L 565.503258 172.032056 
L 567.234564 178.51424 
L 568.96587 184.27091 
L 570.697177 189.330803 
L 572.428483 193.730034 
L 574.159789 197.51202 
L 575.891095 200.714242 
L 577.622401 203.377385 
L 579.353708 205.54305 
L 581.085014 207.254192 
L 582.81632 208.551011 
L 584.547626 209.466175 
L 586.278933 210.031913 
L 588.010239 210.286669 
L 589.741545 210.258203 
L 591.472851 209.974267 
L 593.204158 209.46317 
L 594.935464 208.755091 
L 597.243872 207.548292 
L 599.55228 206.099536 
L 603.014893 203.615846 
L 611.671424 197.167461 
L 613.979832 195.737593 
L 616.288241 194.560443 
L 618.019547 193.875805 
L 619.750853 193.383478 
L 621.482159 193.097248 
L 622.636364 193.024542 
L 622.636364 193.024542 
" clip-path="url(#p2b25bb2069)" style="fill: none; stroke-dasharray: 7.4,3.2; stroke-dashoffset: 0; stroke: #2ca02c; stroke-width: 2"/>
   </g>
   <g id="line2d_34">
    <path d="M 115.363636 349.058484 
L 119.980453 349.184007 
L 124.59727 349.527503 
L 129.791188 350.15353 
L 135.562209 351.095715 
L 143.064536 352.573518 
L 163.263109 356.688411 
L 172.496742 358.261778 
L 181.730375 359.858503 
L 186.347192 360.909093 
L 190.386907 362.061487 
L 196.157927 363.990721 
L 201.928948 365.857282 
L 205.391561 366.750525 
L 208.854173 367.389401 
L 211.739684 367.702044 
L 214.625194 367.805064 
L 217.510704 367.696509 
L 220.396215 367.378605 
L 223.281725 366.859916 
L 226.744338 365.995346 
L 230.784052 364.708335 
L 235.977971 362.777383 
L 244.0574 359.762413 
L 248.097114 358.48886 
L 252.136829 357.466075 
L 255.599442 356.82154 
L 259.062054 356.413373 
L 262.524666 356.263454 
L 265.410177 356.347921 
L 268.295687 356.628705 
L 271.181198 357.103505 
L 274.64381 357.908409 
L 278.683525 359.105013 
L 293.688179 363.886806 
L 297.727893 364.766725 
L 301.190506 365.303862 
L 304.653118 365.636664 
L 308.115731 365.768386 
L 311.578343 365.703064 
L 315.040956 365.442295 
L 318.503568 364.983352 
L 321.966181 364.319311 
L 325.428793 363.440245 
L 328.891406 362.336069 
L 332.354018 361.00493 
L 336.393733 359.190143 
L 347.935774 353.696583 
L 350.244182 352.94284 
L 352.552591 352.445881 
L 354.283897 352.264142 
L 356.015203 352.253557 
L 358.323612 352.497509 
L 360.63202 353.005686 
L 363.51753 353.932879 
L 366.980143 355.318338 
L 379.676388 360.669469 
L 384.870307 362.525875 
L 390.064226 364.155798 
L 395.258145 365.555469 
L 399.874961 366.579016 
L 403.914676 367.272847 
L 407.95439 367.745738 
L 411.417003 367.948318 
L 414.879615 367.937267 
L 418.342228 367.68478 
L 421.227738 367.268721 
L 424.113249 366.649459 
L 426.998759 365.81837 
L 429.884269 364.779667 
L 433.346882 363.301188 
L 441.426311 359.669585 
L 443.734719 358.900981 
L 446.043128 358.383004 
L 448.351536 358.154851 
L 450.659944 358.217914 
L 452.968352 358.540131 
L 455.853863 359.222034 
L 459.893577 360.469997 
L 467.973007 363.014963 
L 472.589823 364.187657 
L 477.20664 365.117323 
L 482.400558 365.918934 
L 488.171579 366.577089 
L 494.519702 367.076364 
L 500.867825 367.348167 
L 506.638846 367.368737 
L 511.832765 367.175579 
L 517.603785 366.722245 
L 532.031337 365.360446 
L 534.916848 365.375178 
L 537.802358 365.588278 
L 541.264971 366.095906 
L 546.458889 367.160446 
L 552.22991 368.285987 
L 556.269625 368.839205 
L 560.309339 369.17647 
L 564.926156 369.343055 
L 570.697177 369.324882 
L 579.353708 369.041957 
L 611.671424 367.762984 
L 622.059262 367.619581 
L 622.636364 367.618735 
L 622.636364 367.618735 
" clip-path="url(#p2b25bb2069)" style="fill: none; stroke-dasharray: 7.4,3.2; stroke-dashoffset: 0; stroke: #d62728; stroke-width: 2"/>
   </g>
   <g id="line2d_35">
    <path d="M 115.363636 344.822008 
L 122.288861 344.693033 
L 127.48278 344.374931 
L 131.522495 343.909104 
L 134.985107 343.28666 
L 137.870617 342.561359 
L 140.756128 341.603281 
L 143.064536 340.637298 
L 145.372944 339.465739 
L 147.681353 338.059188 
L 149.989761 336.386118 
L 152.298169 334.411797 
L 154.606578 332.097887 
L 156.914986 329.400865 
L 159.223394 326.273004 
L 161.531803 322.662829 
L 163.840211 318.515151 
L 166.148619 313.774982 
L 168.457028 308.392178 
L 170.765436 302.326065 
L 173.073844 295.561405 
L 175.382253 288.118148 
L 178.267763 277.977485 
L 182.88458 260.644911 
L 186.347192 248.012171 
L 188.6556 240.494508 
L 190.386907 235.613633 
L 192.118213 231.521561 
L 193.272417 229.27182 
L 194.426621 227.417634 
L 195.580825 225.959856 
L 196.735029 224.884825 
L 197.889234 224.16952 
L 199.043438 223.782883 
L 200.197642 223.691879 
L 201.351846 223.857274 
L 202.50605 224.235615 
L 204.237357 225.107812 
L 206.545765 226.626176 
L 211.739684 230.243331 
L 214.048092 231.527511 
L 215.779398 232.28356 
L 217.510704 232.848693 
L 219.819113 233.325322 
L 222.127521 233.551106 
L 226.167235 233.628617 
L 229.629848 233.772864 
L 231.938256 234.110328 
L 233.669563 234.557863 
L 235.400869 235.205055 
L 237.132175 236.062513 
L 238.863481 237.131414 
L 241.17189 238.862912 
L 243.480298 240.883437 
L 246.365808 243.733214 
L 250.982625 248.700126 
L 260.79336 259.663807 
L 264.255973 263.8136 
L 267.141483 267.583482 
L 270.026993 271.756102 
L 272.912504 276.406821 
L 275.798014 281.553118 
L 279.260627 288.300511 
L 284.454545 299.085865 
L 289.071362 308.551816 
L 291.956872 314.059619 
L 294.842383 319.087216 
L 297.150791 322.704317 
L 299.4592 325.934035 
L 301.767608 328.764397 
L 304.076016 331.19481 
L 306.384424 333.231042 
L 308.115731 334.505136 
L 309.847037 335.566628 
L 311.578343 336.419277 
L 313.309649 337.065938 
L 315.040956 337.508835 
L 316.772262 337.747748 
L 318.503568 337.781471 
L 320.234874 337.607049 
L 321.966181 337.219564 
L 323.697487 336.612228 
L 325.428793 335.775833 
L 327.160099 334.699837 
L 328.891406 333.372649 
L 330.622712 331.782117 
L 332.354018 329.916103 
L 334.085324 327.764495 
L 335.81663 325.320331 
L 338.125039 321.605341 
L 340.433447 317.38985 
L 342.741855 312.734075 
L 346.204468 305.176772 
L 350.821285 295.024183 
L 353.129693 290.450526 
L 354.860999 287.433985 
L 356.592305 284.862111 
L 358.323612 282.789255 
L 359.477816 281.699915 
L 360.63202 280.847813 
L 361.786224 280.229927 
L 362.940428 279.83881 
L 364.094632 279.663315 
L 365.248836 279.690769 
L 366.403041 279.907589 
L 367.557245 280.29991 
L 369.288551 281.176865 
L 371.019857 282.357199 
L 372.751164 283.793595 
L 375.059572 286.035535 
L 377.945082 289.246661 
L 381.407695 293.520634 
L 386.601613 300.369839 
L 392.372634 307.905714 
L 395.835247 312.046454 
L 398.720757 315.125755 
L 401.029165 317.281236 
L 403.337574 319.120141 
L 405.06888 320.268492 
L 406.800186 321.202299 
L 408.531492 321.906416 
L 410.262799 322.366456 
L 411.994105 322.567438 
L 413.725411 322.493286 
L 415.456717 322.128611 
L 417.188024 321.455445 
L 418.91933 320.45646 
L 420.650636 319.114392 
L 422.381942 317.413023 
L 424.113249 315.339399 
L 425.844555 312.886212 
L 427.575861 310.054042 
L 429.307167 306.854775 
L 431.615576 302.072018 
L 434.501086 295.466251 
L 439.695005 283.355677 
L 441.426311 279.848296 
L 443.157617 276.897441 
L 444.311821 275.315056 
L 445.466025 274.086846 
L 446.62023 273.23952 
L 447.774434 272.787465 
L 448.928638 272.73195 
L 450.082842 273.063218 
L 451.237046 273.760738 
L 452.39125 274.793869 
L 453.545455 276.125843 
L 455.276761 278.59374 
L 457.008067 281.491144 
L 459.893577 286.886875 
L 465.664598 297.933841 
L 468.550109 302.91943 
L 470.858517 306.494711 
L 473.166925 309.66958 
L 475.475334 312.436767 
L 477.783742 314.80226 
L 480.09215 316.778141 
L 482.400558 318.377938 
L 484.131865 319.339906 
L 485.863171 320.102391 
L 487.594477 320.668134 
L 489.325783 321.038017 
L 491.05709 321.212969 
L 492.788396 321.190256 
L 494.519702 320.964472 
L 496.251008 320.528425 
L 497.982315 319.872159 
L 499.713621 318.9835 
L 501.444927 317.847315 
L 503.176233 316.445113 
L 504.90754 314.756105 
L 506.638846 312.754601 
L 508.370152 310.413786 
L 510.101458 307.702162 
L 511.832765 304.585955 
L 513.564071 301.029718 
L 515.295377 296.996886 
L 517.026683 292.453273 
L 518.757989 287.369479 
L 520.489296 281.725253 
L 522.797704 273.318206 
L 525.106112 263.958104 
L 527.991623 251.183107 
L 533.762643 225.066796 
L 535.49395 218.255533 
L 537.225256 212.489553 
L 538.37946 209.376652 
L 539.533664 206.933611 
L 540.687868 205.210841 
L 541.264971 204.628018 
L 541.842073 204.231078 
L 542.419175 204.019824 
L 542.996277 203.995414 
L 543.573379 204.152316 
L 544.150481 204.486176 
L 544.727583 204.989796 
L 545.881787 206.478252 
L 547.035991 208.549554 
L 548.190195 211.121946 
L 549.921502 215.730685 
L 552.22991 222.82557 
L 560.309339 248.79386 
L 562.617747 255.193771 
L 564.926156 260.877725 
L 567.234564 265.828751 
L 568.96587 269.068024 
L 570.697177 271.916886 
L 572.428483 274.394965 
L 574.159789 276.526156 
L 575.891095 278.331086 
L 577.622401 279.832296 
L 579.353708 281.052941 
L 581.085014 282.017021 
L 582.81632 282.747037 
L 584.547626 283.261259 
L 586.278933 283.577755 
L 588.587341 283.728828 
L 590.895749 283.603159 
L 593.204158 283.239607 
L 595.512566 282.67652 
L 598.398076 281.745734 
L 601.860689 280.38989 
L 613.40273 275.600064 
L 616.288241 274.737421 
L 618.596649 274.240867 
L 620.905057 273.944412 
L 622.636364 273.861894 
L 622.636364 273.861894 
" clip-path="url(#p2b25bb2069)" style="fill: none; stroke-dasharray: 7.4,3.2; stroke-dashoffset: 0; stroke: #9467bd; stroke-width: 2"/>
   </g>
   <g id="line2d_36">
    <path d="M 115.363636 348.188505 
L 121.134657 348.319725 
L 126.905678 348.685969 
L 132.676699 349.269106 
L 139.601924 350.190536 
L 166.148619 353.972192 
L 175.382253 354.859236 
L 181.730375 355.533295 
L 185.77009 356.187024 
L 189.232702 356.975658 
L 192.695315 357.986324 
L 199.043438 360.147269 
L 203.083152 361.420425 
L 206.545765 362.264392 
L 209.431275 362.724441 
L 212.316786 362.927084 
L 214.625194 362.889407 
L 216.933602 362.665622 
L 219.242011 362.250925 
L 221.550419 361.644389 
L 223.858827 360.847613 
L 226.744338 359.596636 
L 229.629848 358.087206 
L 233.09246 355.996853 
L 237.709277 352.913981 
L 245.788706 347.497042 
L 249.251319 345.434844 
L 252.713931 343.633205 
L 255.599442 342.372742 
L 258.484952 341.364005 
L 260.79336 340.761899 
L 263.101769 340.359708 
L 265.410177 340.17235 
L 267.718585 340.212835 
L 270.026993 340.488246 
L 272.335402 340.996911 
L 274.64381 341.727653 
L 277.529321 342.916694 
L 280.414831 344.348273 
L 285.031648 346.921116 
L 290.802668 350.116581 
L 294.265281 351.789361 
L 297.150791 352.968012 
L 300.036302 353.924283 
L 302.921812 354.646567 
L 305.807322 355.132529 
L 308.692833 355.384122 
L 311.578343 355.403677 
L 314.463854 355.192094 
L 317.349364 354.747174 
L 320.234874 354.062668 
L 323.120385 353.129646 
L 326.005895 351.936267 
L 328.891406 350.471109 
L 331.776916 348.729065 
L 334.662426 346.717699 
L 338.125039 343.995708 
L 347.935774 335.928825 
L 350.244182 334.472354 
L 351.975489 333.623004 
L 353.706795 333.015146 
L 355.438101 332.667356 
L 357.169407 332.583085 
L 358.900714 332.751397 
L 360.63202 333.149429 
L 362.363326 333.745047 
L 364.671734 334.780395 
L 367.557245 336.339631 
L 373.328266 339.801814 
L 379.676388 343.524243 
L 385.447409 346.636296 
L 390.641328 349.197984 
L 395.258145 351.242792 
L 399.297859 352.788821 
L 402.760472 353.877566 
L 405.645982 354.58145 
L 408.531492 355.067463 
L 411.417003 355.303517 
L 413.725411 355.288868 
L 416.033819 355.073249 
L 418.342228 354.636021 
L 420.650636 353.956377 
L 422.959044 353.014505 
L 425.267453 351.794262 
L 427.575861 350.286711 
L 429.884269 348.495685 
L 432.192678 346.446268 
L 435.65529 343.014709 
L 440.849209 337.803277 
L 443.157617 335.856325 
L 444.888923 334.681326 
L 446.62023 333.807931 
L 448.351536 333.263638 
L 450.082842 333.05168 
L 451.814148 333.153643 
L 453.545455 333.53227 
L 455.276761 334.139306 
L 457.585169 335.208819 
L 461.047782 337.121658 
L 467.395904 340.681292 
L 470.858517 342.359174 
L 474.321129 343.788173 
L 477.783742 344.980649 
L 481.823456 346.114774 
L 485.863171 347.02204 
L 490.479988 347.826442 
L 495.096804 348.401347 
L 499.136519 348.69976 
L 503.176233 348.775568 
L 506.638846 348.634845 
L 510.101458 348.280791 
L 513.564071 347.699303 
L 517.026683 346.893109 
L 521.066398 345.714653 
L 529.722929 343.058093 
L 532.031337 342.598372 
L 534.339746 342.371922 
L 536.071052 342.386559 
L 537.802358 342.571165 
L 540.110766 343.075422 
L 542.419175 343.828498 
L 545.881787 345.242731 
L 551.075706 347.38504 
L 553.961216 348.335204 
L 556.846727 349.041757 
L 559.732237 349.50549 
L 562.617747 349.751622 
L 566.08036 349.81047 
L 570.120074 349.634453 
L 575.313993 349.148458 
L 582.81632 348.178172 
L 599.55228 345.961012 
L 608.208812 345.070349 
L 615.134037 344.571587 
L 620.905057 344.371118 
L 622.636364 344.356433 
L 622.636364 344.356433 
" clip-path="url(#p2b25bb2069)" style="fill: none; stroke-dasharray: 7.4,3.2; stroke-dashoffset: 0; stroke: #8c564b; stroke-width: 2"/>
   </g>
   <g id="patch_3">
    <path d="M 90 384.48 
L 90 51.84 
" style="fill: none; stroke: #000000; stroke-width: 0.8; stroke-linejoin: miter; stroke-linecap: square"/>
   </g>
   <g id="patch_4">
    <path d="M 648 384.48 
L 648 51.84 
" style="fill: none; stroke: #000000; stroke-width: 0.8; stroke-linejoin: miter; stroke-linecap: square"/>
   </g>
   <g id="patch_5">
    <path d="M 90 384.48 
L 648 384.48 
" style="fill: none; stroke: #000000; stroke-width: 0.8; stroke-linejoin: miter; stroke-linecap: square"/>
   </g>
   <g id="patch_6">
    <path d="M 90 51.84 
L 648 51.84 
" style="fill: none; stroke: #000000; stroke-width: 0.8; stroke-linejoin: miter; stroke-linecap: square"/>
   </g>
   <g id="legend_1">
    <g id="patch_7">
     <path d="M 127.055781 47.566 
L 610.944219 47.566 
Q 613.544219 47.566 613.544219 44.966 
L 613.544219 27.676 
Q 613.544219 25.076 610.944219 25.076 
L 127.055781 25.076 
Q 124.455781 25.076 124.455781 27.676 
L 124.455781 44.966 
Q 124.455781 47.566 127.055781 47.566 
z
" style="fill: #ffffff; opacity: 0.8; stroke: #cccccc; stroke-linejoin: miter"/>
    </g>
    <g id="line2d_37">
     <path d="M 129.655781 35.23225 
L 142.655781 35.23225 
L 155.655781 35.23225 
" style="fill: none; stroke: #1f77b4; stroke-width: 3; stroke-linecap: square"/>
    </g>
    <g id="text_18">
     <!-- CON -->
     <g transform="translate(166.055781 39.78225) scale(0.13 -0.13)">
      <defs>
       <path id="ArialMT-43" d="M 3763 1606 
L 4369 1453 
Q 4178 706 3683 314 
Q 3188 -78 2472 -78 
Q 1731 -78 1267 223 
Q 803 525 561 1097 
Q 319 1669 319 2325 
Q 319 3041 592 3573 
Q 866 4106 1370 4382 
Q 1875 4659 2481 4659 
Q 3169 4659 3637 4309 
Q 4106 3959 4291 3325 
L 3694 3184 
Q 3534 3684 3231 3912 
Q 2928 4141 2469 4141 
Q 1941 4141 1586 3887 
Q 1231 3634 1087 3207 
Q 944 2781 944 2328 
Q 944 1744 1114 1308 
Q 1284 872 1643 656 
Q 2003 441 2422 441 
Q 2931 441 3284 734 
Q 3638 1028 3763 1606 
z
" transform="scale(0.015625)"/>
       <path id="ArialMT-4f" d="M 309 2231 
Q 309 3372 921 4017 
Q 1534 4663 2503 4663 
Q 3138 4663 3647 4359 
Q 4156 4056 4423 3514 
Q 4691 2972 4691 2284 
Q 4691 1588 4409 1038 
Q 4128 488 3612 205 
Q 3097 -78 2500 -78 
Q 1853 -78 1343 234 
Q 834 547 571 1087 
Q 309 1628 309 2231 
z
M 934 2222 
Q 934 1394 1379 917 
Q 1825 441 2497 441 
Q 3181 441 3623 922 
Q 4066 1403 4066 2288 
Q 4066 2847 3877 3264 
Q 3688 3681 3323 3911 
Q 2959 4141 2506 4141 
Q 1863 4141 1398 3698 
Q 934 3256 934 2222 
z
" transform="scale(0.015625)"/>
       <path id="ArialMT-4e" d="M 488 0 
L 488 4581 
L 1109 4581 
L 3516 984 
L 3516 4581 
L 4097 4581 
L 4097 0 
L 3475 0 
L 1069 3600 
L 1069 0 
L 488 0 
z
" transform="scale(0.015625)"/>
      </defs>
      <use xlink:href="#ArialMT-43"/>
      <use xlink:href="#ArialMT-4f" x="72.216797"/>
      <use xlink:href="#ArialMT-4e" x="150"/>
     </g>
    </g>
    <g id="line2d_38">
     <path d="M 220.944219 35.23225 
L 233.944219 35.23225 
L 246.944219 35.23225 
" style="fill: none; stroke-dasharray: 7.4,3.2; stroke-dashoffset: 0; stroke: #ff7f0e; stroke-width: 2"/>
    </g>
    <g id="text_19">
     <!-- $S_{11}$ -->
     <g transform="translate(257.344219 39.78225) scale(0.13 -0.13)">
      <defs>
       <path id="DejaVuSans-Oblique-53" d="M 3859 4513 
L 3738 3897 
Q 3422 4066 3111 4152 
Q 2800 4238 2509 4238 
Q 1944 4238 1609 3991 
Q 1275 3744 1275 3334 
Q 1275 3109 1398 2989 
Q 1522 2869 2034 2731 
L 2413 2638 
Q 3053 2472 3303 2217 
Q 3553 1963 3553 1503 
Q 3553 797 2998 353 
Q 2444 -91 1538 -91 
Q 1166 -91 791 -17 
Q 416 56 38 206 
L 166 856 
Q 513 641 861 531 
Q 1209 422 1556 422 
Q 2147 422 2503 684 
Q 2859 947 2859 1369 
Q 2859 1650 2717 1795 
Q 2575 1941 2106 2059 
L 1728 2156 
Q 1081 2325 845 2545 
Q 609 2766 609 3163 
Q 609 3859 1145 4304 
Q 1681 4750 2541 4750 
Q 2875 4750 3203 4690 
Q 3531 4631 3859 4513 
z
" transform="scale(0.015625)"/>
       <path id="DejaVuSans-31" d="M 794 531 
L 1825 531 
L 1825 4091 
L 703 3866 
L 703 4441 
L 1819 4666 
L 2450 4666 
L 2450 531 
L 3481 531 
L 3481 0 
L 794 0 
L 794 531 
z
" transform="scale(0.015625)"/>
      </defs>
      <use xlink:href="#DejaVuSans-Oblique-53" transform="translate(0 0.78125)"/>
      <use xlink:href="#DejaVuSans-31" transform="translate(63.476562 -15.625) scale(0.7)"/>
      <use xlink:href="#DejaVuSans-31" transform="translate(108.012695 -15.625) scale(0.7)"/>
     </g>
    </g>
    <g id="line2d_39">
     <path d="M 303.624219 35.23225 
L 316.624219 35.23225 
L 329.624219 35.23225 
" style="fill: none; stroke-dasharray: 7.4,3.2; stroke-dashoffset: 0; stroke: #2ca02c; stroke-width: 2"/>
    </g>
    <g id="text_20">
     <!-- $S_{12}$ -->
     <g transform="translate(340.024219 39.78225) scale(0.13 -0.13)">
      <defs>
       <path id="DejaVuSans-32" d="M 1228 531 
L 3431 531 
L 3431 0 
L 469 0 
L 469 531 
Q 828 903 1448 1529 
Q 2069 2156 2228 2338 
Q 2531 2678 2651 2914 
Q 2772 3150 2772 3378 
Q 2772 3750 2511 3984 
Q 2250 4219 1831 4219 
Q 1534 4219 1204 4116 
Q 875 4013 500 3803 
L 500 4441 
Q 881 4594 1212 4672 
Q 1544 4750 1819 4750 
Q 2544 4750 2975 4387 
Q 3406 4025 3406 3419 
Q 3406 3131 3298 2873 
Q 3191 2616 2906 2266 
Q 2828 2175 2409 1742 
Q 1991 1309 1228 531 
z
" transform="scale(0.015625)"/>
      </defs>
      <use xlink:href="#DejaVuSans-Oblique-53" transform="translate(0 0.78125)"/>
      <use xlink:href="#DejaVuSans-31" transform="translate(63.476562 -15.625) scale(0.7)"/>
      <use xlink:href="#DejaVuSans-32" transform="translate(108.012695 -15.625) scale(0.7)"/>
     </g>
    </g>
    <g id="line2d_40">
     <path d="M 386.304219 35.23225 
L 399.304219 35.23225 
L 412.304219 35.23225 
" style="fill: none; stroke-dasharray: 7.4,3.2; stroke-dashoffset: 0; stroke: #d62728; stroke-width: 2"/>
    </g>
    <g id="text_21">
     <!-- $S_{21}$ -->
     <g transform="translate(422.704219 39.78225) scale(0.13 -0.13)">
      <use xlink:href="#DejaVuSans-Oblique-53" transform="translate(0 0.78125)"/>
      <use xlink:href="#DejaVuSans-32" transform="translate(63.476562 -15.625) scale(0.7)"/>
      <use xlink:href="#DejaVuSans-31" transform="translate(108.012695 -15.625) scale(0.7)"/>
     </g>
    </g>
    <g id="line2d_41">
     <path d="M 468.984219 35.23225 
L 481.984219 35.23225 
L 494.984219 35.23225 
" style="fill: none; stroke-dasharray: 7.4,3.2; stroke-dashoffset: 0; stroke: #9467bd; stroke-width: 2"/>
    </g>
    <g id="text_22">
     <!-- $S_{22}$ -->
     <g transform="translate(505.384219 39.78225) scale(0.13 -0.13)">
      <use xlink:href="#DejaVuSans-Oblique-53" transform="translate(0 0.78125)"/>
      <use xlink:href="#DejaVuSans-32" transform="translate(63.476562 -15.625) scale(0.7)"/>
      <use xlink:href="#DejaVuSans-32" transform="translate(108.012695 -15.625) scale(0.7)"/>
     </g>
    </g>
    <g id="line2d_42">
     <path d="M 551.664219 35.23225 
L 564.664219 35.23225 
L 577.664219 35.23225 
" style="fill: none; stroke-dasharray: 7.4,3.2; stroke-dashoffset: 0; stroke: #8c564b; stroke-width: 2"/>
    </g>
    <g id="text_23">
     <!-- $S_{23}$ -->
     <g transform="translate(588.064219 39.78225) scale(0.13 -0.13)">
      <defs>
       <path id="DejaVuSans-33" d="M 2597 2516 
Q 3050 2419 3304 2112 
Q 3559 1806 3559 1356 
Q 3559 666 3084 287 
Q 2609 -91 1734 -91 
Q 1441 -91 1130 -33 
Q 819 25 488 141 
L 488 750 
Q 750 597 1062 519 
Q 1375 441 1716 441 
Q 2309 441 2620 675 
Q 2931 909 2931 1356 
Q 2931 1769 2642 2001 
Q 2353 2234 1838 2234 
L 1294 2234 
L 1294 2753 
L 1863 2753 
Q 2328 2753 2575 2939 
Q 2822 3125 2822 3475 
Q 2822 3834 2567 4026 
Q 2313 4219 1838 4219 
Q 1578 4219 1281 4162 
Q 984 4106 628 3988 
L 628 4550 
Q 988 4650 1302 4700 
Q 1616 4750 1894 4750 
Q 2613 4750 3031 4423 
Q 3450 4097 3450 3541 
Q 3450 3153 3228 2886 
Q 3006 2619 2597 2516 
z
" transform="scale(0.015625)"/>
      </defs>
      <use xlink:href="#DejaVuSans-Oblique-53" transform="translate(0 0.78125)"/>
      <use xlink:href="#DejaVuSans-32" transform="translate(63.476562 -15.625) scale(0.7)"/>
      <use xlink:href="#DejaVuSans-33" transform="translate(108.012695 -15.625) scale(0.7)"/>
     </g>
    </g>
   </g>
  </g>
 </g>
 <defs>
  <clipPath id="p2b25bb2069">
   <rect x="90" y="51.84" width="558" height="332.64"/>
  </clipPath>
 </defs>
</svg>
