<?xml version="1.0" encoding="utf-8" standalone="no"?>
<!DOCTYPE svg PUBLIC "-//W3C//DTD SVG 1.1//EN"
  "http://www.w3.org/Graphics/SVG/1.1/DTD/svg11.dtd">
<svg xmlns:xlink="http://www.w3.org/1999/xlink" width="720pt" height="432pt" viewBox="0 0 720 432" xmlns="http://www.w3.org/2000/svg" version="1.1">
 <metadata>
  <rdf:RDF xmlns:dc="http://purl.org/dc/elements/1.1/" xmlns:cc="http://creativecommons.org/ns#" xmlns:rdf="http://www.w3.org/1999/02/22-rdf-syntax-ns#">
   <cc:Work>
    <dc:type rdf:resource="http://purl.org/dc/dcmitype/StillImage"/>
    <dc:date>2024-12-31T17:27:35.011461</dc:date>
    <dc:format>image/svg+xml</dc:format>
    <dc:creator>
     <cc:Agent>
      <dc:title>Matplotlib v3.8.0, https://matplotlib.org/</dc:title>
     </cc:Agent>
    </dc:creator>
   </cc:Work>
  </rdf:RDF>
 </metadata>
 <defs>
  <style type="text/css">*{stroke-linejoin: round; stroke-linecap: butt}</style>
 </defs>
 <g id="figure_1">
  <g id="patch_1">
   <path d="M 0 432 
L 720 432 
L 720 0 
L 0 0 
z
" style="fill: #ffffff"/>
  </g>
  <g id="axes_1">
   <g id="patch_2">
    <path d="M 90 384.48 
L 648 384.48 
L 648 51.84 
L 90 51.84 
z
" style="fill: #ffffff"/>
   </g>
   <g id="matplotlib.axis_1">
    <g id="xtick_1">
     <g id="line2d_1">
      <path d="M 115.940738 384.48 
L 115.940738 51.84 
" clip-path="url(#pfda65dd753)" style="fill: none; stroke: #b0b0b0; stroke-width: 0.8; stroke-linecap: square"/>
     </g>
     <g id="line2d_2">
      <defs>
       <path id="mde09c0a82f" d="M 0 0 
L 0 3.5 
" style="stroke: #000000; stroke-width: 0.8"/>
      </defs>
      <g>
       <use xlink:href="#mde09c0a82f" x="115.940738" y="384.48" style="stroke: #000000; stroke-width: 0.8"/>
      </g>
     </g>
     <g id="text_1">
      <!-- 08-06 -->
      <g transform="translate(95.481988 402.9325) scale(0.16 -0.16)">
       <defs>
        <path id="ArialMT-30" d="M 266 2259 
Q 266 3072 433 3567 
Q 600 4063 929 4331 
Q 1259 4600 1759 4600 
Q 2128 4600 2406 4451 
Q 2684 4303 2865 4023 
Q 3047 3744 3150 3342 
Q 3253 2941 3253 2259 
Q 3253 1453 3087 958 
Q 2922 463 2592 192 
Q 2263 -78 1759 -78 
Q 1097 -78 719 397 
Q 266 969 266 2259 
z
M 844 2259 
Q 844 1131 1108 757 
Q 1372 384 1759 384 
Q 2147 384 2411 759 
Q 2675 1134 2675 2259 
Q 2675 3391 2411 3762 
Q 2147 4134 1753 4134 
Q 1366 4134 1134 3806 
Q 844 3388 844 2259 
z
" transform="scale(0.015625)"/>
        <path id="ArialMT-38" d="M 1131 2484 
Q 781 2613 612 2850 
Q 444 3088 444 3419 
Q 444 3919 803 4259 
Q 1163 4600 1759 4600 
Q 2359 4600 2725 4251 
Q 3091 3903 3091 3403 
Q 3091 3084 2923 2848 
Q 2756 2613 2416 2484 
Q 2838 2347 3058 2040 
Q 3278 1734 3278 1309 
Q 3278 722 2862 322 
Q 2447 -78 1769 -78 
Q 1091 -78 675 323 
Q 259 725 259 1325 
Q 259 1772 486 2073 
Q 713 2375 1131 2484 
z
M 1019 3438 
Q 1019 3113 1228 2906 
Q 1438 2700 1772 2700 
Q 2097 2700 2305 2904 
Q 2513 3109 2513 3406 
Q 2513 3716 2298 3927 
Q 2084 4138 1766 4138 
Q 1444 4138 1231 3931 
Q 1019 3725 1019 3438 
z
M 838 1322 
Q 838 1081 952 856 
Q 1066 631 1291 507 
Q 1516 384 1775 384 
Q 2178 384 2440 643 
Q 2703 903 2703 1303 
Q 2703 1709 2433 1975 
Q 2163 2241 1756 2241 
Q 1359 2241 1098 1978 
Q 838 1716 838 1322 
z
" transform="scale(0.015625)"/>
        <path id="ArialMT-2d" d="M 203 1375 
L 203 1941 
L 1931 1941 
L 1931 1375 
L 203 1375 
z
" transform="scale(0.015625)"/>
        <path id="ArialMT-36" d="M 3184 3459 
L 2625 3416 
Q 2550 3747 2413 3897 
Q 2184 4138 1850 4138 
Q 1581 4138 1378 3988 
Q 1113 3794 959 3422 
Q 806 3050 800 2363 
Q 1003 2672 1297 2822 
Q 1591 2972 1913 2972 
Q 2475 2972 2870 2558 
Q 3266 2144 3266 1488 
Q 3266 1056 3080 686 
Q 2894 316 2569 119 
Q 2244 -78 1831 -78 
Q 1128 -78 684 439 
Q 241 956 241 2144 
Q 241 3472 731 4075 
Q 1159 4600 1884 4600 
Q 2425 4600 2770 4297 
Q 3116 3994 3184 3459 
z
M 888 1484 
Q 888 1194 1011 928 
Q 1134 663 1356 523 
Q 1578 384 1822 384 
Q 2178 384 2434 671 
Q 2691 959 2691 1453 
Q 2691 1928 2437 2201 
Q 2184 2475 1800 2475 
Q 1419 2475 1153 2201 
Q 888 1928 888 1484 
z
" transform="scale(0.015625)"/>
       </defs>
       <use xlink:href="#ArialMT-30"/>
       <use xlink:href="#ArialMT-38" x="55.615234"/>
       <use xlink:href="#ArialMT-2d" x="111.230469"/>
       <use xlink:href="#ArialMT-30" x="144.53125"/>
       <use xlink:href="#ArialMT-36" x="200.146484"/>
      </g>
     </g>
    </g>
    <g id="xtick_2">
     <g id="line2d_3">
      <path d="M 185.192988 384.48 
L 185.192988 51.84 
" clip-path="url(#pfda65dd753)" style="fill: none; stroke: #b0b0b0; stroke-width: 0.8; stroke-linecap: square"/>
     </g>
     <g id="line2d_4">
      <g>
       <use xlink:href="#mde09c0a82f" x="185.192988" y="384.48" style="stroke: #000000; stroke-width: 0.8"/>
      </g>
     </g>
     <g id="text_2">
      <!-- 08-11 -->
      <g transform="translate(165.324238 402.9325) scale(0.16 -0.16)">
       <defs>
        <path id="ArialMT-31" d="M 2384 0 
L 1822 0 
L 1822 3584 
Q 1619 3391 1289 3197 
Q 959 3003 697 2906 
L 697 3450 
Q 1169 3672 1522 3987 
Q 1875 4303 2022 4600 
L 2384 4600 
L 2384 0 
z
" transform="scale(0.015625)"/>
       </defs>
       <use xlink:href="#ArialMT-30"/>
       <use xlink:href="#ArialMT-38" x="55.615234"/>
       <use xlink:href="#ArialMT-2d" x="111.230469"/>
       <use xlink:href="#ArialMT-31" x="144.53125"/>
       <use xlink:href="#ArialMT-31" x="192.771484"/>
      </g>
     </g>
    </g>
    <g id="xtick_3">
     <g id="line2d_5">
      <path d="M 254.445237 384.48 
L 254.445237 51.84 
" clip-path="url(#pfda65dd753)" style="fill: none; stroke: #b0b0b0; stroke-width: 0.8; stroke-linecap: square"/>
     </g>
     <g id="line2d_6">
      <g>
       <use xlink:href="#mde09c0a82f" x="254.445237" y="384.48" style="stroke: #000000; stroke-width: 0.8"/>
      </g>
     </g>
     <g id="text_3">
      <!-- 08-16 -->
      <g transform="translate(233.986487 402.9325) scale(0.16 -0.16)">
       <use xlink:href="#ArialMT-30"/>
       <use xlink:href="#ArialMT-38" x="55.615234"/>
       <use xlink:href="#ArialMT-2d" x="111.230469"/>
       <use xlink:href="#ArialMT-31" x="144.53125"/>
       <use xlink:href="#ArialMT-36" x="200.146484"/>
      </g>
     </g>
    </g>
    <g id="xtick_4">
     <g id="line2d_7">
      <path d="M 323.697487 384.48 
L 323.697487 51.84 
" clip-path="url(#pfda65dd753)" style="fill: none; stroke: #b0b0b0; stroke-width: 0.8; stroke-linecap: square"/>
     </g>
     <g id="line2d_8">
      <g>
       <use xlink:href="#mde09c0a82f" x="323.697487" y="384.48" style="stroke: #000000; stroke-width: 0.8"/>
      </g>
     </g>
     <g id="text_4">
      <!-- 08-21 -->
      <g transform="translate(303.238737 402.9325) scale(0.16 -0.16)">
       <defs>
        <path id="ArialMT-32" d="M 3222 541 
L 3222 0 
L 194 0 
Q 188 203 259 391 
Q 375 700 629 1000 
Q 884 1300 1366 1694 
Q 2113 2306 2375 2664 
Q 2638 3022 2638 3341 
Q 2638 3675 2398 3904 
Q 2159 4134 1775 4134 
Q 1369 4134 1125 3890 
Q 881 3647 878 3216 
L 300 3275 
Q 359 3922 746 4261 
Q 1134 4600 1788 4600 
Q 2447 4600 2831 4234 
Q 3216 3869 3216 3328 
Q 3216 3053 3103 2787 
Q 2991 2522 2730 2228 
Q 2469 1934 1863 1422 
Q 1356 997 1212 845 
Q 1069 694 975 541 
L 3222 541 
z
" transform="scale(0.015625)"/>
       </defs>
       <use xlink:href="#ArialMT-30"/>
       <use xlink:href="#ArialMT-38" x="55.615234"/>
       <use xlink:href="#ArialMT-2d" x="111.230469"/>
       <use xlink:href="#ArialMT-32" x="144.53125"/>
       <use xlink:href="#ArialMT-31" x="200.146484"/>
      </g>
     </g>
    </g>
    <g id="xtick_5">
     <g id="line2d_9">
      <path d="M 392.949736 384.48 
L 392.949736 51.84 
" clip-path="url(#pfda65dd753)" style="fill: none; stroke: #b0b0b0; stroke-width: 0.8; stroke-linecap: square"/>
     </g>
     <g id="line2d_10">
      <g>
       <use xlink:href="#mde09c0a82f" x="392.949736" y="384.48" style="stroke: #000000; stroke-width: 0.8"/>
      </g>
     </g>
     <g id="text_5">
      <!-- 08-26 -->
      <g transform="translate(372.490986 402.9325) scale(0.16 -0.16)">
       <use xlink:href="#ArialMT-30"/>
       <use xlink:href="#ArialMT-38" x="55.615234"/>
       <use xlink:href="#ArialMT-2d" x="111.230469"/>
       <use xlink:href="#ArialMT-32" x="144.53125"/>
       <use xlink:href="#ArialMT-36" x="200.146484"/>
      </g>
     </g>
    </g>
    <g id="xtick_6">
     <g id="line2d_11">
      <path d="M 462.201986 384.48 
L 462.201986 51.84 
" clip-path="url(#pfda65dd753)" style="fill: none; stroke: #b0b0b0; stroke-width: 0.8; stroke-linecap: square"/>
     </g>
     <g id="line2d_12">
      <g>
       <use xlink:href="#mde09c0a82f" x="462.201986" y="384.48" style="stroke: #000000; stroke-width: 0.8"/>
      </g>
     </g>
     <g id="text_6">
      <!-- 08-31 -->
      <g transform="translate(441.743236 402.9325) scale(0.16 -0.16)">
       <defs>
        <path id="ArialMT-33" d="M 269 1209 
L 831 1284 
Q 928 806 1161 595 
Q 1394 384 1728 384 
Q 2125 384 2398 659 
Q 2672 934 2672 1341 
Q 2672 1728 2419 1979 
Q 2166 2231 1775 2231 
Q 1616 2231 1378 2169 
L 1441 2663 
Q 1497 2656 1531 2656 
Q 1891 2656 2178 2843 
Q 2466 3031 2466 3422 
Q 2466 3731 2256 3934 
Q 2047 4138 1716 4138 
Q 1388 4138 1169 3931 
Q 950 3725 888 3313 
L 325 3413 
Q 428 3978 793 4289 
Q 1159 4600 1703 4600 
Q 2078 4600 2393 4439 
Q 2709 4278 2876 4000 
Q 3044 3722 3044 3409 
Q 3044 3113 2884 2869 
Q 2725 2625 2413 2481 
Q 2819 2388 3044 2092 
Q 3269 1797 3269 1353 
Q 3269 753 2831 336 
Q 2394 -81 1725 -81 
Q 1122 -81 723 278 
Q 325 638 269 1209 
z
" transform="scale(0.015625)"/>
       </defs>
       <use xlink:href="#ArialMT-30"/>
       <use xlink:href="#ArialMT-38" x="55.615234"/>
       <use xlink:href="#ArialMT-2d" x="111.230469"/>
       <use xlink:href="#ArialMT-33" x="144.53125"/>
       <use xlink:href="#ArialMT-31" x="200.146484"/>
      </g>
     </g>
    </g>
    <g id="xtick_7">
     <g id="line2d_13">
      <path d="M 531.454235 384.48 
L 531.454235 51.84 
" clip-path="url(#pfda65dd753)" style="fill: none; stroke: #b0b0b0; stroke-width: 0.8; stroke-linecap: square"/>
     </g>
     <g id="line2d_14">
      <g>
       <use xlink:href="#mde09c0a82f" x="531.454235" y="384.48" style="stroke: #000000; stroke-width: 0.8"/>
      </g>
     </g>
     <g id="text_7">
      <!-- 09-05 -->
      <g transform="translate(510.995485 402.9325) scale(0.16 -0.16)">
       <defs>
        <path id="ArialMT-39" d="M 350 1059 
L 891 1109 
Q 959 728 1153 556 
Q 1347 384 1650 384 
Q 1909 384 2104 503 
Q 2300 622 2425 820 
Q 2550 1019 2634 1356 
Q 2719 1694 2719 2044 
Q 2719 2081 2716 2156 
Q 2547 1888 2255 1720 
Q 1963 1553 1622 1553 
Q 1053 1553 659 1965 
Q 266 2378 266 3053 
Q 266 3750 677 4175 
Q 1088 4600 1706 4600 
Q 2153 4600 2523 4359 
Q 2894 4119 3086 3673 
Q 3278 3228 3278 2384 
Q 3278 1506 3087 986 
Q 2897 466 2520 194 
Q 2144 -78 1638 -78 
Q 1100 -78 759 220 
Q 419 519 350 1059 
z
M 2653 3081 
Q 2653 3566 2395 3850 
Q 2138 4134 1775 4134 
Q 1400 4134 1122 3828 
Q 844 3522 844 3034 
Q 844 2597 1108 2323 
Q 1372 2050 1759 2050 
Q 2150 2050 2401 2323 
Q 2653 2597 2653 3081 
z
" transform="scale(0.015625)"/>
        <path id="ArialMT-35" d="M 266 1200 
L 856 1250 
Q 922 819 1161 601 
Q 1400 384 1738 384 
Q 2144 384 2425 690 
Q 2706 997 2706 1503 
Q 2706 1984 2436 2262 
Q 2166 2541 1728 2541 
Q 1456 2541 1237 2417 
Q 1019 2294 894 2097 
L 366 2166 
L 809 4519 
L 3088 4519 
L 3088 3981 
L 1259 3981 
L 1013 2750 
Q 1425 3038 1878 3038 
Q 2478 3038 2890 2622 
Q 3303 2206 3303 1553 
Q 3303 931 2941 478 
Q 2500 -78 1738 -78 
Q 1113 -78 717 272 
Q 322 622 266 1200 
z
" transform="scale(0.015625)"/>
       </defs>
       <use xlink:href="#ArialMT-30"/>
       <use xlink:href="#ArialMT-39" x="55.615234"/>
       <use xlink:href="#ArialMT-2d" x="111.230469"/>
       <use xlink:href="#ArialMT-30" x="144.53125"/>
       <use xlink:href="#ArialMT-35" x="200.146484"/>
      </g>
     </g>
    </g>
    <g id="xtick_8">
     <g id="line2d_15">
      <path d="M 600.706485 384.48 
L 600.706485 51.84 
" clip-path="url(#pfda65dd753)" style="fill: none; stroke: #b0b0b0; stroke-width: 0.8; stroke-linecap: square"/>
     </g>
     <g id="line2d_16">
      <g>
       <use xlink:href="#mde09c0a82f" x="600.706485" y="384.48" style="stroke: #000000; stroke-width: 0.8"/>
      </g>
     </g>
     <g id="text_8">
      <!-- 09-10 -->
      <g transform="translate(580.247735 402.9325) scale(0.16 -0.16)">
       <use xlink:href="#ArialMT-30"/>
       <use xlink:href="#ArialMT-39" x="55.615234"/>
       <use xlink:href="#ArialMT-2d" x="111.230469"/>
       <use xlink:href="#ArialMT-31" x="144.53125"/>
       <use xlink:href="#ArialMT-30" x="200.146484"/>
      </g>
     </g>
    </g>
    <g id="text_9">
     <!-- Date -->
     <g transform="translate(349.990313 422.996562) scale(0.18 -0.18)">
      <defs>
       <path id="ArialMT-44" d="M 494 0 
L 494 4581 
L 2072 4581 
Q 2606 4581 2888 4516 
Q 3281 4425 3559 4188 
Q 3922 3881 4101 3404 
Q 4281 2928 4281 2316 
Q 4281 1794 4159 1391 
Q 4038 988 3847 723 
Q 3656 459 3429 307 
Q 3203 156 2883 78 
Q 2563 0 2147 0 
L 494 0 
z
M 1100 541 
L 2078 541 
Q 2531 541 2789 625 
Q 3047 709 3200 863 
Q 3416 1078 3536 1442 
Q 3656 1806 3656 2325 
Q 3656 3044 3420 3430 
Q 3184 3816 2847 3947 
Q 2603 4041 2063 4041 
L 1100 4041 
L 1100 541 
z
" transform="scale(0.015625)"/>
       <path id="ArialMT-61" d="M 2588 409 
Q 2275 144 1986 34 
Q 1697 -75 1366 -75 
Q 819 -75 525 192 
Q 231 459 231 875 
Q 231 1119 342 1320 
Q 453 1522 633 1644 
Q 813 1766 1038 1828 
Q 1203 1872 1538 1913 
Q 2219 1994 2541 2106 
Q 2544 2222 2544 2253 
Q 2544 2597 2384 2738 
Q 2169 2928 1744 2928 
Q 1347 2928 1158 2789 
Q 969 2650 878 2297 
L 328 2372 
Q 403 2725 575 2942 
Q 747 3159 1072 3276 
Q 1397 3394 1825 3394 
Q 2250 3394 2515 3294 
Q 2781 3194 2906 3042 
Q 3031 2891 3081 2659 
Q 3109 2516 3109 2141 
L 3109 1391 
Q 3109 606 3145 398 
Q 3181 191 3288 0 
L 2700 0 
Q 2613 175 2588 409 
z
M 2541 1666 
Q 2234 1541 1622 1453 
Q 1275 1403 1131 1340 
Q 988 1278 909 1158 
Q 831 1038 831 891 
Q 831 666 1001 516 
Q 1172 366 1500 366 
Q 1825 366 2078 508 
Q 2331 650 2450 897 
Q 2541 1088 2541 1459 
L 2541 1666 
z
" transform="scale(0.015625)"/>
       <path id="ArialMT-74" d="M 1650 503 
L 1731 6 
Q 1494 -44 1306 -44 
Q 1000 -44 831 53 
Q 663 150 594 308 
Q 525 466 525 972 
L 525 2881 
L 113 2881 
L 113 3319 
L 525 3319 
L 525 4141 
L 1084 4478 
L 1084 3319 
L 1650 3319 
L 1650 2881 
L 1084 2881 
L 1084 941 
Q 1084 700 1114 631 
Q 1144 563 1211 522 
Q 1278 481 1403 481 
Q 1497 481 1650 503 
z
" transform="scale(0.015625)"/>
       <path id="ArialMT-65" d="M 2694 1069 
L 3275 997 
Q 3138 488 2766 206 
Q 2394 -75 1816 -75 
Q 1088 -75 661 373 
Q 234 822 234 1631 
Q 234 2469 665 2931 
Q 1097 3394 1784 3394 
Q 2450 3394 2872 2941 
Q 3294 2488 3294 1666 
Q 3294 1616 3291 1516 
L 816 1516 
Q 847 969 1125 678 
Q 1403 388 1819 388 
Q 2128 388 2347 550 
Q 2566 713 2694 1069 
z
M 847 1978 
L 2700 1978 
Q 2663 2397 2488 2606 
Q 2219 2931 1791 2931 
Q 1403 2931 1139 2672 
Q 875 2413 847 1978 
z
" transform="scale(0.015625)"/>
      </defs>
      <use xlink:href="#ArialMT-44"/>
      <use xlink:href="#ArialMT-61" x="72.216797"/>
      <use xlink:href="#ArialMT-74" x="127.832031"/>
      <use xlink:href="#ArialMT-65" x="155.615234"/>
     </g>
    </g>
   </g>
   <g id="matplotlib.axis_2">
    <g id="ytick_1">
     <g id="line2d_17">
      <path d="M 90 377.325003 
L 648 377.325003 
" clip-path="url(#pfda65dd753)" style="fill: none; stroke: #b0b0b0; stroke-width: 0.8; stroke-linecap: square"/>
     </g>
     <g id="line2d_18">
      <defs>
       <path id="m3d412999b6" d="M 0 0 
L -3.5 0 
" style="stroke: #000000; stroke-width: 0.8"/>
      </defs>
      <g>
       <use xlink:href="#m3d412999b6" x="90" y="377.325003" style="stroke: #000000; stroke-width: 0.8"/>
      </g>
     </g>
     <g id="text_10">
      <!-- 0 -->
      <g transform="translate(72.990313 383.767034) scale(0.18 -0.18)">
       <use xlink:href="#ArialMT-30"/>
      </g>
     </g>
    </g>
    <g id="ytick_2">
     <g id="line2d_19">
      <path d="M 90 337.152859 
L 648 337.152859 
" clip-path="url(#pfda65dd753)" style="fill: none; stroke: #b0b0b0; stroke-width: 0.8; stroke-linecap: square"/>
     </g>
     <g id="line2d_20">
      <g>
       <use xlink:href="#m3d412999b6" x="90" y="337.152859" style="stroke: #000000; stroke-width: 0.8"/>
      </g>
     </g>
     <g id="text_11">
      <!-- 20 -->
      <g transform="translate(62.980625 343.59489) scale(0.18 -0.18)">
       <use xlink:href="#ArialMT-32"/>
       <use xlink:href="#ArialMT-30" x="55.615234"/>
      </g>
     </g>
    </g>
    <g id="ytick_3">
     <g id="line2d_21">
      <path d="M 90 296.980715 
L 648 296.980715 
" clip-path="url(#pfda65dd753)" style="fill: none; stroke: #b0b0b0; stroke-width: 0.8; stroke-linecap: square"/>
     </g>
     <g id="line2d_22">
      <g>
       <use xlink:href="#m3d412999b6" x="90" y="296.980715" style="stroke: #000000; stroke-width: 0.8"/>
      </g>
     </g>
     <g id="text_12">
      <!-- 40 -->
      <g transform="translate(62.980625 303.422747) scale(0.18 -0.18)">
       <defs>
        <path id="ArialMT-34" d="M 2069 0 
L 2069 1097 
L 81 1097 
L 81 1613 
L 2172 4581 
L 2631 4581 
L 2631 1613 
L 3250 1613 
L 3250 1097 
L 2631 1097 
L 2631 0 
L 2069 0 
z
M 2069 1613 
L 2069 3678 
L 634 1613 
L 2069 1613 
z
" transform="scale(0.015625)"/>
       </defs>
       <use xlink:href="#ArialMT-34"/>
       <use xlink:href="#ArialMT-30" x="55.615234"/>
      </g>
     </g>
    </g>
    <g id="ytick_4">
     <g id="line2d_23">
      <path d="M 90 256.808572 
L 648 256.808572 
" clip-path="url(#pfda65dd753)" style="fill: none; stroke: #b0b0b0; stroke-width: 0.8; stroke-linecap: square"/>
     </g>
     <g id="line2d_24">
      <g>
       <use xlink:href="#m3d412999b6" x="90" y="256.808572" style="stroke: #000000; stroke-width: 0.8"/>
      </g>
     </g>
     <g id="text_13">
      <!-- 60 -->
      <g transform="translate(62.980625 263.250603) scale(0.18 -0.18)">
       <use xlink:href="#ArialMT-36"/>
       <use xlink:href="#ArialMT-30" x="55.615234"/>
      </g>
     </g>
    </g>
    <g id="ytick_5">
     <g id="line2d_25">
      <path d="M 90 216.636428 
L 648 216.636428 
" clip-path="url(#pfda65dd753)" style="fill: none; stroke: #b0b0b0; stroke-width: 0.8; stroke-linecap: square"/>
     </g>
     <g id="line2d_26">
      <g>
       <use xlink:href="#m3d412999b6" x="90" y="216.636428" style="stroke: #000000; stroke-width: 0.8"/>
      </g>
     </g>
     <g id="text_14">
      <!-- 80 -->
      <g transform="translate(62.980625 223.07846) scale(0.18 -0.18)">
       <use xlink:href="#ArialMT-38"/>
       <use xlink:href="#ArialMT-30" x="55.615234"/>
      </g>
     </g>
    </g>
    <g id="ytick_6">
     <g id="line2d_27">
      <path d="M 90 176.464285 
L 648 176.464285 
" clip-path="url(#pfda65dd753)" style="fill: none; stroke: #b0b0b0; stroke-width: 0.8; stroke-linecap: square"/>
     </g>
     <g id="line2d_28">
      <g>
       <use xlink:href="#m3d412999b6" x="90" y="176.464285" style="stroke: #000000; stroke-width: 0.8"/>
      </g>
     </g>
     <g id="text_15">
      <!-- 100 -->
      <g transform="translate(52.970938 182.906316) scale(0.18 -0.18)">
       <use xlink:href="#ArialMT-31"/>
       <use xlink:href="#ArialMT-30" x="55.615234"/>
       <use xlink:href="#ArialMT-30" x="111.230469"/>
      </g>
     </g>
    </g>
    <g id="ytick_7">
     <g id="line2d_29">
      <path d="M 90 136.292141 
L 648 136.292141 
" clip-path="url(#pfda65dd753)" style="fill: none; stroke: #b0b0b0; stroke-width: 0.8; stroke-linecap: square"/>
     </g>
     <g id="line2d_30">
      <g>
       <use xlink:href="#m3d412999b6" x="90" y="136.292141" style="stroke: #000000; stroke-width: 0.8"/>
      </g>
     </g>
     <g id="text_16">
      <!-- 120 -->
      <g transform="translate(52.970938 142.734172) scale(0.18 -0.18)">
       <use xlink:href="#ArialMT-31"/>
       <use xlink:href="#ArialMT-32" x="55.615234"/>
       <use xlink:href="#ArialMT-30" x="111.230469"/>
      </g>
     </g>
    </g>
    <g id="ytick_8">
     <g id="line2d_31">
      <path d="M 90 96.119998 
L 648 96.119998 
" clip-path="url(#pfda65dd753)" style="fill: none; stroke: #b0b0b0; stroke-width: 0.8; stroke-linecap: square"/>
     </g>
     <g id="line2d_32">
      <g>
       <use xlink:href="#m3d412999b6" x="90" y="96.119998" style="stroke: #000000; stroke-width: 0.8"/>
      </g>
     </g>
     <g id="text_17">
      <!-- 140 -->
      <g transform="translate(52.970938 102.562029) scale(0.18 -0.18)">
       <use xlink:href="#ArialMT-31"/>
       <use xlink:href="#ArialMT-34" x="55.615234"/>
       <use xlink:href="#ArialMT-30" x="111.230469"/>
      </g>
     </g>
    </g>
    <g id="ytick_9">
     <g id="line2d_33">
      <path d="M 90 55.947854 
L 648 55.947854 
" clip-path="url(#pfda65dd753)" style="fill: none; stroke: #b0b0b0; stroke-width: 0.8; stroke-linecap: square"/>
     </g>
     <g id="line2d_34">
      <g>
       <use xlink:href="#m3d412999b6" x="90" y="55.947854" style="stroke: #000000; stroke-width: 0.8"/>
      </g>
     </g>
     <g id="text_18">
      <!-- 160 -->
      <g transform="translate(52.970938 62.389885) scale(0.18 -0.18)">
       <use xlink:href="#ArialMT-31"/>
       <use xlink:href="#ArialMT-36" x="55.615234"/>
       <use xlink:href="#ArialMT-30" x="111.230469"/>
      </g>
     </g>
    </g>
    <g id="text_19">
     <!-- BC ($ ng/m^3$) -->
     <g transform="translate(45.010937 267.12) rotate(-90) scale(0.18 -0.18)">
      <defs>
       <path id="ArialMT-42" d="M 469 0 
L 469 4581 
L 2188 4581 
Q 2713 4581 3030 4442 
Q 3347 4303 3526 4014 
Q 3706 3725 3706 3409 
Q 3706 3116 3547 2856 
Q 3388 2597 3066 2438 
Q 3481 2316 3704 2022 
Q 3928 1728 3928 1328 
Q 3928 1006 3792 729 
Q 3656 453 3456 303 
Q 3256 153 2954 76 
Q 2653 0 2216 0 
L 469 0 
z
M 1075 2656 
L 2066 2656 
Q 2469 2656 2644 2709 
Q 2875 2778 2992 2937 
Q 3109 3097 3109 3338 
Q 3109 3566 3000 3739 
Q 2891 3913 2687 3977 
Q 2484 4041 1991 4041 
L 1075 4041 
L 1075 2656 
z
M 1075 541 
L 2216 541 
Q 2509 541 2628 563 
Q 2838 600 2978 687 
Q 3119 775 3209 942 
Q 3300 1109 3300 1328 
Q 3300 1584 3169 1773 
Q 3038 1963 2805 2039 
Q 2572 2116 2134 2116 
L 1075 2116 
L 1075 541 
z
" transform="scale(0.015625)"/>
       <path id="ArialMT-43" d="M 3763 1606 
L 4369 1453 
Q 4178 706 3683 314 
Q 3188 -78 2472 -78 
Q 1731 -78 1267 223 
Q 803 525 561 1097 
Q 319 1669 319 2325 
Q 319 3041 592 3573 
Q 866 4106 1370 4382 
Q 1875 4659 2481 4659 
Q 3169 4659 3637 4309 
Q 4106 3959 4291 3325 
L 3694 3184 
Q 3534 3684 3231 3912 
Q 2928 4141 2469 4141 
Q 1941 4141 1586 3887 
Q 1231 3634 1087 3207 
Q 944 2781 944 2328 
Q 944 1744 1114 1308 
Q 1284 872 1643 656 
Q 2003 441 2422 441 
Q 2931 441 3284 734 
Q 3638 1028 3763 1606 
z
" transform="scale(0.015625)"/>
       <path id="ArialMT-20" transform="scale(0.015625)"/>
       <path id="ArialMT-28" d="M 1497 -1347 
Q 1031 -759 709 28 
Q 388 816 388 1659 
Q 388 2403 628 3084 
Q 909 3875 1497 4659 
L 1900 4659 
Q 1522 4009 1400 3731 
Q 1209 3300 1100 2831 
Q 966 2247 966 1656 
Q 966 153 1900 -1347 
L 1497 -1347 
z
" transform="scale(0.015625)"/>
       <path id="DejaVuSans-Oblique-6e" d="M 3566 2113 
L 3156 0 
L 2578 0 
L 2988 2091 
Q 3016 2238 3031 2350 
Q 3047 2463 3047 2528 
Q 3047 2791 2881 2937 
Q 2716 3084 2419 3084 
Q 1956 3084 1622 2776 
Q 1288 2469 1184 1941 
L 800 0 
L 225 0 
L 903 3500 
L 1478 3500 
L 1363 2950 
Q 1603 3253 1940 3418 
Q 2278 3584 2650 3584 
Q 3113 3584 3367 3334 
Q 3622 3084 3622 2631 
Q 3622 2519 3608 2391 
Q 3594 2263 3566 2113 
z
" transform="scale(0.015625)"/>
       <path id="DejaVuSans-Oblique-67" d="M 3816 3500 
L 3219 434 
Q 3047 -456 2561 -893 
Q 2075 -1331 1253 -1331 
Q 950 -1331 690 -1286 
Q 431 -1241 206 -1147 
L 313 -588 
Q 525 -725 762 -790 
Q 1000 -856 1269 -856 
Q 1816 -856 2167 -557 
Q 2519 -259 2631 300 
L 2681 563 
Q 2441 288 2122 144 
Q 1803 0 1434 0 
Q 903 0 598 351 
Q 294 703 294 1319 
Q 294 1803 478 2267 
Q 663 2731 997 3091 
Q 1219 3328 1514 3456 
Q 1809 3584 2131 3584 
Q 2484 3584 2746 3420 
Q 3009 3256 3138 2956 
L 3238 3500 
L 3816 3500 
z
M 2950 2216 
Q 2950 2641 2750 2872 
Q 2550 3103 2181 3103 
Q 1953 3103 1747 3012 
Q 1541 2922 1394 2759 
Q 1156 2491 1023 2127 
Q 891 1763 891 1375 
Q 891 944 1092 712 
Q 1294 481 1672 481 
Q 2219 481 2584 976 
Q 2950 1472 2950 2216 
z
" transform="scale(0.015625)"/>
       <path id="DejaVuSans-2f" d="M 1625 4666 
L 2156 4666 
L 531 -594 
L 0 -594 
L 1625 4666 
z
" transform="scale(0.015625)"/>
       <path id="DejaVuSans-Oblique-6d" d="M 5747 2113 
L 5338 0 
L 4763 0 
L 5166 2094 
Q 5191 2228 5203 2325 
Q 5216 2422 5216 2491 
Q 5216 2772 5059 2928 
Q 4903 3084 4622 3084 
Q 4203 3084 3875 2770 
Q 3547 2456 3450 1953 
L 3066 0 
L 2491 0 
L 2900 2094 
Q 2925 2209 2937 2307 
Q 2950 2406 2950 2484 
Q 2950 2769 2794 2926 
Q 2638 3084 2363 3084 
Q 1938 3084 1609 2770 
Q 1281 2456 1184 1953 
L 800 0 
L 225 0 
L 909 3500 
L 1484 3500 
L 1375 2956 
Q 1609 3263 1923 3423 
Q 2238 3584 2597 3584 
Q 2978 3584 3223 3384 
Q 3469 3184 3519 2828 
Q 3781 3197 4126 3390 
Q 4472 3584 4856 3584 
Q 5306 3584 5551 3325 
Q 5797 3066 5797 2591 
Q 5797 2488 5784 2364 
Q 5772 2241 5747 2113 
z
" transform="scale(0.015625)"/>
       <path id="DejaVuSans-33" d="M 2597 2516 
Q 3050 2419 3304 2112 
Q 3559 1806 3559 1356 
Q 3559 666 3084 287 
Q 2609 -91 1734 -91 
Q 1441 -91 1130 -33 
Q 819 25 488 141 
L 488 750 
Q 750 597 1062 519 
Q 1375 441 1716 441 
Q 2309 441 2620 675 
Q 2931 909 2931 1356 
Q 2931 1769 2642 2001 
Q 2353 2234 1838 2234 
L 1294 2234 
L 1294 2753 
L 1863 2753 
Q 2328 2753 2575 2939 
Q 2822 3125 2822 3475 
Q 2822 3834 2567 4026 
Q 2313 4219 1838 4219 
Q 1578 4219 1281 4162 
Q 984 4106 628 3988 
L 628 4550 
Q 988 4650 1302 4700 
Q 1616 4750 1894 4750 
Q 2613 4750 3031 4423 
Q 3450 4097 3450 3541 
Q 3450 3153 3228 2886 
Q 3006 2619 2597 2516 
z
" transform="scale(0.015625)"/>
       <path id="ArialMT-29" d="M 791 -1347 
L 388 -1347 
Q 1322 153 1322 1656 
Q 1322 2244 1188 2822 
Q 1081 3291 891 3722 
Q 769 4003 388 4659 
L 791 4659 
Q 1378 3875 1659 3084 
Q 1900 2403 1900 1659 
Q 1900 816 1576 28 
Q 1253 -759 791 -1347 
z
" transform="scale(0.015625)"/>
      </defs>
      <use xlink:href="#ArialMT-42" transform="translate(0 0.765625)"/>
      <use xlink:href="#ArialMT-43" transform="translate(66.699219 0.765625)"/>
      <use xlink:href="#ArialMT-20" transform="translate(138.916016 0.765625)"/>
      <use xlink:href="#ArialMT-28" transform="translate(166.699219 0.765625)"/>
      <use xlink:href="#DejaVuSans-Oblique-6e" transform="translate(200 0.765625)"/>
      <use xlink:href="#DejaVuSans-Oblique-67" transform="translate(263.378906 0.765625)"/>
      <use xlink:href="#DejaVuSans-2f" transform="translate(326.855469 0.765625)"/>
      <use xlink:href="#DejaVuSans-Oblique-6d" transform="translate(360.546875 0.765625)"/>
      <use xlink:href="#DejaVuSans-33" transform="translate(462.60888 39.046875) scale(0.7)"/>
      <use xlink:href="#ArialMT-29" transform="translate(509.879388 0.765625)"/>
     </g>
    </g>
   </g>
   <g id="line2d_35">
    <path d="M 115.363636 281.310282 
L 125.751474 281.397505 
L 129.214086 281.630606 
L 132.099597 282.022762 
L 134.408005 282.52166 
L 136.716413 283.228681 
L 139.024822 284.183867 
L 141.33323 285.42345 
L 143.641638 286.978227 
L 145.950047 288.868477 
L 148.258455 291.106042 
L 150.566863 293.688902 
L 152.875271 296.601028 
L 155.760782 300.662536 
L 158.646292 305.11922 
L 162.686007 311.826664 
L 172.496742 328.428351 
L 175.382253 332.846871 
L 178.267763 336.847665 
L 180.576171 339.68698 
L 182.88458 342.168744 
L 185.192988 344.267604 
L 186.924294 345.584696 
L 188.6556 346.681207 
L 190.386907 347.560747 
L 192.118213 348.232961 
L 193.849519 348.710944 
L 196.157927 349.073948 
L 198.466336 349.167058 
L 200.774744 349.043161 
L 203.660254 348.666879 
L 208.854173 347.692488 
L 214.625194 346.671525 
L 218.664908 346.175225 
L 224.435929 345.72821 
L 230.784052 345.196521 
L 234.246665 344.690633 
L 237.709277 343.937652 
L 240.594787 343.097052 
L 244.0574 341.837094 
L 247.520012 340.321991 
L 251.559727 338.287902 
L 256.176544 335.676961 
L 260.216258 333.15192 
L 263.678871 330.759145 
L 266.564381 328.540828 
L 269.449891 326.043149 
L 271.7583 323.787667 
L 274.066708 321.253416 
L 276.375116 318.396941 
L 278.683525 315.178611 
L 280.991933 311.56949 
L 283.300341 307.556534 
L 285.60875 303.145721 
L 288.49426 297.117061 
L 291.956872 289.285503 
L 301.190506 267.942587 
L 303.498914 263.30256 
L 305.23022 260.210553 
L 306.961527 257.523729 
L 308.692833 255.301085 
L 309.847037 254.103266 
L 311.001241 253.147808 
L 312.155445 252.44549 
L 313.309649 252.004797 
L 314.463854 251.830886 
L 315.618058 251.927783 
L 316.772262 252.29628 
L 317.926466 252.934473 
L 319.08067 253.837513 
L 320.234874 254.998163 
L 321.389078 256.406528 
L 323.120385 258.955798 
L 324.851691 261.98515 
L 326.582997 265.434963 
L 328.891406 270.571242 
L 331.776916 277.601758 
L 340.433447 299.287261 
L 342.741855 304.41212 
L 345.050264 309.001132 
L 346.78157 312.037345 
L 348.512876 314.694427 
L 350.244182 316.955329 
L 351.975489 318.813489 
L 353.706795 320.272052 
L 355.438101 321.338977 
L 357.169407 322.029486 
L 358.323612 322.290597 
L 360.054918 322.400426 
L 361.786224 322.19465 
L 363.51753 321.700868 
L 365.248836 320.946529 
L 366.980143 319.956352 
L 369.288551 318.31343 
L 371.596959 316.348828 
L 373.905368 314.10554 
L 376.790878 310.962062 
L 379.676388 307.492646 
L 383.139001 302.966609 
L 387.755818 296.491223 
L 395.258145 285.827785 
L 398.143655 282.134359 
L 400.452063 279.541814 
L 402.18337 277.877008 
L 403.914676 276.497501 
L 405.645982 275.4469 
L 406.800186 274.946405 
L 407.95439 274.61728 
L 409.108594 274.467284 
L 410.262799 274.501918 
L 411.417003 274.725472 
L 412.571207 275.141647 
L 413.725411 275.749121 
L 414.879615 276.545837 
L 416.610922 278.087852 
L 418.342228 280.023704 
L 420.073534 282.318917 
L 422.381942 285.857952 
L 424.690351 289.820332 
L 428.730065 297.289024 
L 432.76978 304.636051 
L 435.078188 308.420123 
L 436.809494 310.937472 
L 438.5408 313.114293 
L 440.272107 314.899135 
L 441.426311 315.851169 
L 442.580515 316.601486 
L 443.734719 317.143965 
L 444.888923 317.471937 
L 446.043128 317.581411 
L 447.197332 317.470602 
L 448.351536 317.140499 
L 449.50574 316.593663 
L 450.659944 315.833996 
L 451.814148 314.867361 
L 453.545455 313.04586 
L 455.276761 310.805086 
L 457.008067 308.182941 
L 459.316475 304.166618 
L 461.624884 299.6583 
L 464.510394 293.510519 
L 469.704313 281.731902 
L 474.321129 271.420601 
L 477.20664 265.456081 
L 479.515048 261.102338 
L 481.823456 257.213186 
L 483.554763 254.646247 
L 485.286069 252.412026 
L 487.017375 250.538495 
L 488.748681 249.050821 
L 489.902886 248.284575 
L 491.05709 247.703496 
L 492.211294 247.314344 
L 493.365498 247.121939 
L 494.519702 247.130667 
L 495.673906 247.343655 
L 496.82811 247.763294 
L 497.982315 248.39147 
L 499.136519 249.228241 
L 500.290723 250.27261 
L 502.022029 252.225199 
L 503.753335 254.628254 
L 505.484642 257.463712 
L 507.215948 260.706444 
L 509.524356 265.601369 
L 511.832765 271.056649 
L 514.718275 278.475325 
L 520.489296 294.208263 
L 523.951908 303.372471 
L 526.837419 310.373068 
L 529.145827 315.360309 
L 530.877133 318.665205 
L 532.608439 321.55162 
L 534.339746 323.989674 
L 536.071052 325.958566 
L 537.225256 327.00455 
L 538.37946 327.834986 
L 539.533664 328.450311 
L 540.687868 328.852749 
L 541.842073 329.04734 
L 542.996277 329.039782 
L 544.150481 328.835714 
L 545.304685 328.44399 
L 546.458889 327.873712 
L 548.190195 326.706402 
L 549.921502 325.200343 
L 551.652808 323.397741 
L 553.961216 320.614338 
L 556.846727 316.678448 
L 561.463543 309.842864 
L 566.08036 303.079271 
L 568.96587 299.198614 
L 571.274279 296.395212 
L 573.582687 293.90905 
L 575.891095 291.772593 
L 578.199504 290.004037 
L 579.93081 288.920434 
L 581.662116 288.040063 
L 583.393422 287.355394 
L 585.124729 286.859993 
L 587.433137 286.471306 
L 589.741545 286.36163 
L 592.049953 286.498441 
L 594.358362 286.843327 
L 597.243872 287.507116 
L 600.706485 288.546964 
L 613.979832 292.852803 
L 616.865343 293.465418 
L 619.750853 293.860181 
L 622.636364 294.011858 
L 622.636364 294.011858 
" clip-path="url(#pfda65dd753)" style="fill: none; stroke: #1f77b4; stroke-width: 3.5; stroke-linecap: square"/>
   </g>
   <g id="line2d_36">
    <path d="M 115.363636 265.85995 
L 118.249147 265.987118 
L 121.134657 266.33506 
L 124.020168 266.927426 
L 126.328576 267.60117 
L 128.636984 268.477315 
L 130.945392 269.581445 
L 133.253801 270.940113 
L 135.562209 272.579269 
L 137.870617 274.521593 
L 140.179026 276.784463 
L 142.487434 279.378572 
L 144.795842 282.305698 
L 147.104251 285.558329 
L 149.989761 290.052445 
L 152.875271 294.964846 
L 156.337884 301.291995 
L 162.108905 312.401093 
L 167.879926 323.384275 
L 171.342538 329.536641 
L 174.228048 334.272259 
L 177.113559 338.583689 
L 179.999069 342.431158 
L 182.307478 345.163172 
L 184.615886 347.587584 
L 186.924294 349.711804 
L 189.232702 351.548838 
L 191.541111 353.115615 
L 193.849519 354.432045 
L 196.157927 355.518024 
L 198.466336 356.393047 
L 201.351846 357.217792 
L 204.237357 357.770506 
L 207.122867 358.072051 
L 210.008377 358.133579 
L 212.893888 357.956169 
L 215.779398 357.531238 
L 218.664908 356.842391 
L 220.973317 356.086184 
L 223.281725 355.133323 
L 225.590133 353.971449 
L 227.898542 352.588226 
L 230.20695 350.974333 
L 232.515358 349.123799 
L 234.823767 347.035179 
L 237.709277 344.098149 
L 240.594787 340.821021 
L 244.0574 336.496524 
L 248.097114 331.037505 
L 256.176544 319.570874 
L 260.79336 313.222285 
L 264.833075 308.051122 
L 268.295687 303.983 
L 271.7583 300.264596 
L 275.220912 296.861858 
L 279.260627 293.193706 
L 297.727893 276.867023 
L 302.921812 272.204497 
L 305.807322 269.847637 
L 308.692833 267.793788 
L 311.001241 266.441217 
L 313.309649 265.399975 
L 315.040956 264.847219 
L 316.772262 264.503612 
L 318.503568 264.376505 
L 320.234874 264.468392 
L 321.966181 264.776784 
L 323.697487 265.294288 
L 325.428793 266.008942 
L 327.737201 267.240054 
L 330.04561 268.744429 
L 332.93112 270.922895 
L 336.970835 274.310021 
L 343.89606 280.151216 
L 346.78157 282.309476 
L 349.66708 284.185433 
L 351.975489 285.445025 
L 354.283897 286.468935 
L 356.592305 287.245889 
L 358.900714 287.772115 
L 361.209122 288.050919 
L 363.51753 288.092296 
L 365.825939 287.912568 
L 368.134347 287.534078 
L 371.019857 286.824598 
L 374.48247 285.715518 
L 385.447409 281.928169 
L 388.33292 281.292604 
L 390.641328 281.003864 
L 392.949736 280.944594 
L 395.258145 281.136172 
L 397.566553 281.588424 
L 399.874961 282.298363 
L 402.18337 283.24947 
L 405.06888 284.729637 
L 408.531492 286.81384 
L 416.610922 291.845571 
L 418.91933 293.015381 
L 421.227738 293.94631 
L 423.536146 294.585448 
L 425.267453 294.847643 
L 426.998759 294.908936 
L 428.730065 294.760857 
L 430.461371 294.398808 
L 432.192678 293.822237 
L 433.923984 293.03398 
L 435.65529 292.040062 
L 437.963698 290.410264 
L 440.272107 288.455661 
L 442.580515 286.204896 
L 445.466025 283.020219 
L 448.351536 279.475414 
L 451.814148 274.818735 
L 455.276761 269.798046 
L 459.893577 262.671682 
L 473.744027 240.843095 
L 476.629538 236.911076 
L 478.937946 234.119904 
L 481.246354 231.71903 
L 482.977661 230.214181 
L 484.708967 228.991992 
L 486.440273 228.074833 
L 488.171579 227.481466 
L 489.325783 227.273829 
L 490.479988 227.220962 
L 491.634192 227.32517 
L 492.788396 227.588112 
L 493.9426 228.011624 
L 495.673906 228.946983 
L 497.405213 230.239657 
L 499.136519 231.882631 
L 500.867825 233.865291 
L 502.599131 236.173912 
L 504.330437 238.79107 
L 506.638846 242.725913 
L 508.947254 247.119841 
L 511.832765 253.165331 
L 515.295377 261.054808 
L 519.912194 272.225535 
L 526.260316 287.605474 
L 529.722929 295.361358 
L 532.031337 300.064264 
L 534.339746 304.280783 
L 536.071052 307.071137 
L 537.802358 309.506319 
L 539.533664 311.558649 
L 541.264971 313.206395 
L 542.419175 314.072267 
L 543.573379 314.748488 
L 544.727583 315.233647 
L 545.881787 315.527747 
L 547.035991 315.632266 
L 548.190195 315.550197 
L 549.3444 315.285904 
L 550.498604 314.845118 
L 552.22991 313.868792 
L 553.961216 312.540345 
L 555.692522 310.89395 
L 557.423829 308.968111 
L 559.732237 306.038287 
L 562.617747 301.94224 
L 567.234564 294.87603 
L 572.428483 287.032591 
L 575.313993 283.051473 
L 578.199504 279.487013 
L 580.507912 276.987283 
L 582.81632 274.825832 
L 585.124729 273.012453 
L 587.433137 271.544722 
L 589.741545 270.409723 
L 592.049953 269.585594 
L 594.358362 269.043252 
L 596.66677 268.748337 
L 598.975178 268.66248 
L 601.860689 268.787525 
L 605.323301 269.174173 
L 619.173751 271.01086 
L 622.636364 271.132932 
L 622.636364 271.132932 
" clip-path="url(#pfda65dd753)" style="fill: none; stroke: #ff7f0e; stroke-width: 3.5; stroke-linecap: square"/>
   </g>
   <g id="line2d_37">
    <path d="M 115.363636 268.796448 
L 117.672045 268.918977 
L 119.980453 269.240202 
L 122.288861 269.767272 
L 124.59727 270.511136 
L 126.905678 271.485958 
L 129.214086 272.708092 
L 131.522495 274.194801 
L 133.830903 275.963325 
L 136.139311 278.028454 
L 138.44772 280.401634 
L 140.756128 283.087936 
L 143.064536 286.086322 
L 145.950047 290.257896 
L 148.835557 294.862675 
L 152.298169 300.873596 
L 156.337884 308.368005 
L 167.879926 330.100728 
L 171.342538 335.98453 
L 174.228048 340.472501 
L 177.113559 344.53032 
L 179.421967 347.448192 
L 181.730375 350.069314 
L 184.038784 352.397162 
L 186.347192 354.440823 
L 188.6556 356.214261 
L 190.964009 357.735514 
L 193.272417 359.024981 
L 195.580825 360.102359 
L 198.466336 361.181729 
L 201.351846 361.99755 
L 204.237357 362.580452 
L 207.122867 362.954311 
L 210.008377 363.135506 
L 213.47099 363.110619 
L 216.933602 362.823018 
L 219.819113 362.376902 
L 222.704623 361.733856 
L 225.590133 360.884555 
L 228.475644 359.82131 
L 231.361154 358.540033 
L 234.246665 357.043334 
L 237.709277 354.979003 
L 241.17189 352.657585 
L 245.788706 349.262117 
L 259.639156 338.787985 
L 263.678871 336.13346 
L 267.718585 333.774816 
L 271.7583 331.693001 
L 276.952218 329.304216 
L 286.762954 324.861397 
L 291.37977 322.455582 
L 295.996587 319.773175 
L 308.115731 312.528581 
L 311.001241 311.159309 
L 313.309649 310.270359 
L 315.618058 309.598326 
L 317.926466 309.16581 
L 320.234874 308.986177 
L 322.543283 309.062843 
L 324.851691 309.389271 
L 327.160099 309.949709 
L 329.468508 310.720269 
L 332.354018 311.932546 
L 335.81663 313.661286 
L 341.010549 316.552172 
L 347.358672 320.055882 
L 351.398387 322.025932 
L 354.860999 323.465061 
L 358.323612 324.639 
L 361.786224 325.536264 
L 365.248836 326.163999 
L 368.711449 326.546252 
L 372.751164 326.735407 
L 377.945082 326.708713 
L 387.178715 326.604741 
L 391.21843 326.825427 
L 394.681043 327.245621 
L 398.143655 327.90869 
L 401.606267 328.811622 
L 405.645982 330.118335 
L 419.496432 334.884385 
L 422.381942 335.524171 
L 425.267453 335.930424 
L 428.152963 336.077821 
L 431.038473 335.957148 
L 433.923984 335.573824 
L 436.809494 334.945622 
L 439.695005 334.099134 
L 443.157617 332.838832 
L 447.197332 331.099647 
L 451.814148 328.849564 
L 457.585169 325.77022 
L 474.321129 316.631714 
L 477.783742 315.121815 
L 480.669252 314.103936 
L 482.977661 313.484354 
L 485.286069 313.064722 
L 487.594477 312.865767 
L 489.902886 312.904197 
L 492.211294 313.191628 
L 494.519702 313.734249 
L 496.82811 314.532964 
L 499.136519 315.583244 
L 501.444927 316.875816 
L 503.753335 318.397182 
L 506.638846 320.593448 
L 509.524356 323.078164 
L 512.986969 326.37239 
L 517.603785 331.136271 
L 527.991623 342.07313 
L 531.454235 345.320728 
L 534.339746 347.709391 
L 536.648154 349.361957 
L 538.956562 350.752173 
L 541.264971 351.856794 
L 543.573379 352.660633 
L 545.304685 353.061919 
L 547.035991 353.290911 
L 549.3444 353.335014 
L 551.652808 353.096201 
L 553.961216 352.599138 
L 556.269625 351.875386 
L 559.155135 350.708352 
L 562.617747 349.028157 
L 568.96587 345.598162 
L 574.159789 342.903686 
L 577.622401 341.334976 
L 581.085014 340.017234 
L 583.970524 339.132202 
L 586.856035 338.445105 
L 590.318647 337.871834 
L 593.78126 337.546176 
L 597.820974 337.426003 
L 602.437791 337.537643 
L 609.940118 337.99193 
L 618.019547 338.423223 
L 622.636364 338.507398 
L 622.636364 338.507398 
" clip-path="url(#pfda65dd753)" style="fill: none; stroke-dasharray: 7.4,3.2; stroke-dashoffset: 0; stroke: #2ca02c; stroke-width: 2"/>
   </g>
   <g id="line2d_38">
    <path d="M 115.363636 254.348101 
L 119.403351 254.208643 
L 122.865963 253.886274 
L 126.328576 253.358674 
L 129.791188 252.606388 
L 133.253801 251.616042 
L 136.716413 250.387393 
L 140.179026 248.937737 
L 144.21874 247.014705 
L 149.989761 243.987729 
L 162.686007 237.244214 
L 169.611232 233.894284 
L 178.844865 229.721896 
L 192.118213 223.970112 
L 199.043438 221.201183 
L 204.814459 219.136768 
L 210.585479 217.309171 
L 225.590133 212.720155 
L 229.052746 211.361778 
L 232.515358 209.757671 
L 235.400869 208.19217 
L 238.286379 206.390457 
L 241.17189 204.33459 
L 244.0574 202.016951 
L 246.94291 199.442269 
L 250.405523 196.040575 
L 254.445237 191.721059 
L 261.370462 183.876111 
L 265.987279 178.776144 
L 269.449891 175.267384 
L 272.335402 172.665325 
L 274.64381 170.846758 
L 276.952218 169.295698 
L 279.260627 168.036686 
L 281.569035 167.087807 
L 283.300341 166.586968 
L 285.031648 166.270091 
L 286.762954 166.138326 
L 288.49426 166.191432 
L 290.225566 166.428038 
L 291.956872 166.845894 
L 293.688179 167.442116 
L 295.996587 168.50871 
L 298.304995 169.877656 
L 300.613404 171.539267 
L 302.921812 173.482585 
L 305.23022 175.694619 
L 308.115731 178.81226 
L 311.001241 182.280965 
L 314.463854 186.821305 
L 319.657772 194.087555 
L 324.851691 201.263041 
L 327.737201 204.879902 
L 330.04561 207.434734 
L 331.776916 209.094783 
L 333.508222 210.495142 
L 335.239528 211.602168 
L 336.970835 212.38558 
L 338.125039 212.715059 
L 339.279243 212.882624 
L 340.433447 212.882933 
L 341.587651 212.711857 
L 342.741855 212.366555 
L 343.89606 211.845504 
L 345.050264 211.148583 
L 346.78157 209.776606 
L 348.512876 208.022381 
L 350.244182 205.90321 
L 351.975489 203.443137 
L 354.283897 199.685995 
L 356.592305 195.464503 
L 359.477816 189.690559 
L 364.094632 179.831993 
L 368.711449 170.053741 
L 371.596959 164.400222 
L 373.905368 160.301266 
L 376.213776 156.680066 
L 377.945082 154.326189 
L 379.676388 152.314739 
L 381.407695 150.669517 
L 383.139001 149.409342 
L 384.293205 148.790058 
L 385.447409 148.35075 
L 386.601613 148.093006 
L 387.755818 148.017287 
L 388.910022 148.122885 
L 390.064226 148.407901 
L 391.21843 148.869244 
L 392.372634 149.502573 
L 394.10394 150.762492 
L 395.835247 152.372394 
L 397.566553 154.301819 
L 399.874961 157.307219 
L 402.18337 160.711905 
L 405.645982 166.302671 
L 411.417003 175.760446 
L 413.725411 179.169467 
L 416.033819 182.154319 
L 417.765126 184.039149 
L 419.496432 185.569472 
L 421.227738 186.707002 
L 422.381942 187.231986 
L 423.536146 187.56227 
L 424.690351 187.693105 
L 425.844555 187.621686 
L 426.998759 187.347174 
L 428.152963 186.87069 
L 429.307167 186.195295 
L 430.461371 185.325922 
L 432.192678 183.673363 
L 433.923984 181.629628 
L 435.65529 179.231937 
L 437.963698 175.560226 
L 440.272107 171.452605 
L 443.734719 164.745825 
L 452.968352 146.478977 
L 455.853863 141.347954 
L 458.739373 136.681596 
L 461.624884 132.51126 
L 463.933292 129.524539 
L 466.818802 126.189581 
L 469.704313 123.231792 
L 473.166925 120.061221 
L 477.20664 116.693144 
L 493.9426 103.087005 
L 502.599131 95.878739 
L 507.215948 92.344836 
L 511.255662 89.559909 
L 514.718275 87.432054 
L 518.180887 85.542622 
L 522.220602 83.613011 
L 526.260316 81.934712 
L 530.877133 80.265573 
L 536.071052 78.649205 
L 541.264971 77.281534 
L 546.458889 76.149671 
L 552.22991 75.131471 
L 560.886441 73.879873 
L 573.582687 72.020872 
L 592.049953 69.213009 
L 600.129383 68.263932 
L 608.208812 67.541254 
L 615.134037 67.130562 
L 621.482159 66.96574 
L 622.636364 66.96 
L 622.636364 66.96 
" clip-path="url(#pfda65dd753)" style="fill: none; stroke-dasharray: 7.4,3.2; stroke-dashoffset: 0; stroke: #d62728; stroke-width: 2"/>
   </g>
   <g id="line2d_39">
    <path d="M 115.363636 316.512753 
L 118.826249 316.650395 
L 122.288861 317.033042 
L 125.174372 317.555795 
L 128.059882 318.284431 
L 130.945392 319.241074 
L 133.830903 320.447734 
L 136.716413 321.92306 
L 139.601924 323.67911 
L 142.487434 325.717983 
L 145.372944 328.030515 
L 148.835557 331.134612 
L 152.298169 334.537719 
L 157.492088 340.009552 
L 166.725721 349.810255 
L 170.765436 353.718443 
L 174.228048 356.744991 
L 177.113559 359.002455 
L 179.999069 361.004244 
L 182.88458 362.748032 
L 185.77009 364.240656 
L 188.6556 365.49574 
L 191.541111 366.532396 
L 195.003723 367.518705 
L 198.466336 368.259249 
L 201.928948 368.788756 
L 205.968663 369.177313 
L 210.008377 369.34846 
L 214.048092 369.317862 
L 218.087806 369.08683 
L 222.127521 368.646427 
L 226.167235 367.983255 
L 230.20695 367.086792 
L 234.246665 365.956208 
L 238.286379 364.607098 
L 243.480298 362.610978 
L 252.136829 358.95894 
L 259.062054 356.149642 
L 264.255973 354.297118 
L 269.449891 352.707593 
L 275.220912 351.18762 
L 287.340056 348.071239 
L 292.533975 346.445833 
L 297.727893 344.584853 
L 310.424139 339.874488 
L 313.886751 338.870581 
L 317.349364 338.114903 
L 320.234874 337.708029 
L 323.120385 337.519602 
L 326.005895 337.552433 
L 328.891406 337.798415 
L 332.354018 338.349583 
L 335.81663 339.137712 
L 339.856345 340.284611 
L 345.627366 342.172082 
L 355.438101 345.392964 
L 360.054918 346.671327 
L 364.094632 347.585011 
L 368.134347 348.282808 
L 372.174061 348.763154 
L 376.790878 349.072946 
L 382.561899 349.196859 
L 396.989451 349.351954 
L 402.18337 349.695246 
L 407.95439 350.306384 
L 422.381942 351.995295 
L 426.998759 352.237175 
L 431.038473 352.239052 
L 435.078188 352.03399 
L 439.695005 351.55651 
L 444.311821 350.845323 
L 449.50574 349.802509 
L 454.699659 348.538058 
L 461.047782 346.748823 
L 476.052436 342.343707 
L 480.09215 341.476677 
L 483.554763 340.974442 
L 486.440273 340.764385 
L 489.325783 340.767292 
L 492.211294 340.997315 
L 495.096804 341.459859 
L 497.982315 342.152161 
L 500.867825 343.063734 
L 504.330437 344.422882 
L 507.79305 346.034015 
L 511.832765 348.169083 
L 517.026683 351.186322 
L 527.991623 357.659283 
L 532.031337 359.733322 
L 535.49395 361.2395 
L 538.37946 362.255742 
L 541.264971 363.025374 
L 544.150481 363.53146 
L 547.035991 363.768791 
L 549.921502 363.744679 
L 552.807012 363.478549 
L 555.692522 363.000513 
L 559.155135 362.201673 
L 563.771952 360.880455 
L 575.891095 357.24825 
L 580.507912 356.177454 
L 584.547626 355.469643 
L 588.587341 354.982153 
L 593.204158 354.673377 
L 598.398076 354.583446 
L 604.746199 354.714395 
L 622.059262 355.19738 
L 622.636364 355.198713 
L 622.636364 355.198713 
" clip-path="url(#pfda65dd753)" style="fill: none; stroke-dasharray: 7.4,3.2; stroke-dashoffset: 0; stroke: #9467bd; stroke-width: 2"/>
   </g>
   <g id="line2d_40">
    <path d="M 115.363636 308.452446 
L 120.557555 308.314897 
L 125.174372 307.978704 
L 129.791188 307.43021 
L 134.408005 306.664172 
L 139.601924 305.555261 
L 145.372944 304.069641 
L 153.452374 301.724318 
L 169.03413 297.175643 
L 181.153273 293.916175 
L 193.272417 290.864946 
L 201.351846 289.064028 
L 208.277071 287.744439 
L 218.664908 286.034816 
L 226.167235 284.695909 
L 230.784052 283.666413 
L 234.823767 282.565428 
L 238.863481 281.237026 
L 242.903196 279.658786 
L 246.94291 277.828989 
L 251.559727 275.460372 
L 257.330748 272.201949 
L 267.141483 266.59876 
L 271.181198 264.570271 
L 274.64381 263.082113 
L 277.529321 262.060109 
L 280.414831 261.261533 
L 283.300341 260.702001 
L 286.185852 260.389632 
L 289.071362 260.325795 
L 291.956872 260.506258 
L 294.842383 260.922469 
L 297.727893 261.562721 
L 300.613404 262.412945 
L 304.076016 263.687307 
L 307.538629 265.207378 
L 311.578343 267.236069 
L 316.772262 270.113655 
L 324.851691 274.611641 
L 328.314303 276.279232 
L 331.199814 277.430137 
L 333.508222 278.148134 
L 335.81663 278.653254 
L 338.125039 278.919702 
L 340.433447 278.927265 
L 342.741855 278.662447 
L 345.050264 278.119421 
L 347.358672 277.30057 
L 349.66708 276.216674 
L 351.975489 274.886649 
L 354.860999 272.918931 
L 357.746509 270.674182 
L 361.786224 267.215987 
L 371.019857 259.125086 
L 374.48247 256.455879 
L 377.36798 254.528698 
L 379.676388 253.22283 
L 381.984797 252.152023 
L 384.293205 251.33386 
L 386.601613 250.780037 
L 388.910022 250.496019 
L 391.21843 250.480617 
L 393.526838 250.725644 
L 395.835247 251.215575 
L 398.143655 251.927352 
L 401.029165 253.08182 
L 404.491778 254.754126 
L 414.879615 260.025549 
L 417.188024 260.903532 
L 419.496432 261.566813 
L 421.80484 261.976918 
L 424.113249 262.104854 
L 425.844555 262.004278 
L 427.575861 261.731149 
L 429.884269 261.099719 
L 432.192678 260.173549 
L 434.501086 258.97431 
L 436.809494 257.532928 
L 439.695005 255.44942 
L 443.157617 252.649076 
L 450.082842 246.648502 
L 455.276761 242.311479 
L 459.316475 239.2463 
L 462.779088 236.882442 
L 466.2417 234.761713 
L 470.281415 232.561851 
L 474.898231 230.334001 
L 480.669252 227.8336 
L 489.325783 224.374641 
L 499.713621 220.463224 
L 507.215948 217.856855 
L 514.718275 215.481393 
L 523.951908 212.801003 
L 534.339746 209.999435 
L 541.842073 208.197856 
L 548.190195 206.908871 
L 554.538318 205.852094 
L 562.617747 204.759757 
L 575.891095 203.236514 
L 588.010239 202.046264 
L 597.820974 201.306119 
L 608.208812 200.747061 
L 617.442445 200.463557 
L 622.636364 200.414922 
L 622.636364 200.414922 
" clip-path="url(#pfda65dd753)" style="fill: none; stroke-dasharray: 7.4,3.2; stroke-dashoffset: 0; stroke: #8c564b; stroke-width: 2"/>
   </g>
   <g id="line2d_41">
    <path d="M 115.363636 314.857532 
L 119.403351 314.982743 
L 123.443065 315.348599 
L 126.905678 315.895723 
L 129.791188 316.553714 
L 132.676699 317.429286 
L 135.562209 318.553731 
L 138.44772 319.953262 
L 141.33323 321.64536 
L 144.21874 323.636158 
L 147.104251 325.918178 
L 149.989761 328.469081 
L 153.452374 331.831524 
L 158.06919 336.677192 
L 169.03413 348.384542 
L 172.496742 351.723512 
L 175.959355 354.746188 
L 178.844865 356.988963 
L 181.730375 358.965692 
L 184.615886 360.675041 
L 187.501396 362.124343 
L 190.386907 363.32822 
L 193.272417 364.306805 
L 196.157927 365.081217 
L 199.62054 365.770823 
L 203.083152 366.229138 
L 206.545765 366.479944 
L 210.008377 366.536505 
L 213.47099 366.400672 
L 216.933602 366.063435 
L 220.396215 365.507436 
L 223.858827 364.7095 
L 227.32144 363.646508 
L 230.20695 362.544301 
L 233.09246 361.238399 
L 236.555073 359.403624 
L 240.017685 357.293288 
L 244.0574 354.530674 
L 248.674217 351.084048 
L 262.524666 340.543956 
L 266.564381 337.828208 
L 270.604096 335.365339 
L 275.220912 332.831923 
L 281.569035 329.660525 
L 290.802668 325.043361 
L 297.150791 321.567898 
L 306.384424 316.463671 
L 309.847037 314.813092 
L 312.732547 313.662747 
L 315.618058 312.771975 
L 317.926466 312.272845 
L 320.234874 311.977699 
L 322.543283 311.892108 
L 324.851691 312.014384 
L 327.160099 312.335987 
L 330.04561 312.995245 
L 332.93112 313.902794 
L 336.393733 315.250403 
L 341.010549 317.331976 
L 351.398387 322.131052 
L 355.438101 323.681143 
L 358.900714 324.754694 
L 361.786224 325.439911 
L 364.671734 325.92136 
L 367.557245 326.196323 
L 370.442755 326.271998 
L 373.905368 326.124837 
L 377.945082 325.688044 
L 383.716103 324.777071 
L 390.064226 323.794425 
L 394.10394 323.39734 
L 397.566553 323.285336 
L 401.029165 323.414434 
L 404.491778 323.780025 
L 408.531492 324.452983 
L 422.381942 327.036418 
L 425.267453 327.247708 
L 428.152963 327.244352 
L 431.038473 327.002024 
L 433.923984 326.507814 
L 436.809494 325.758888 
L 439.695005 324.760153 
L 442.580515 323.521013 
L 445.466025 322.053261 
L 448.928638 320.007873 
L 452.39125 317.674199 
L 455.853863 315.078774 
L 459.893577 311.768656 
L 465.087496 307.206635 
L 472.589823 300.600546 
L 476.052436 297.857836 
L 478.937946 295.870207 
L 481.246354 294.536629 
L 483.554763 293.474821 
L 485.286069 292.878456 
L 487.017375 292.467315 
L 488.748681 292.251437 
L 490.479988 292.238557 
L 492.211294 292.43287 
L 493.9426 292.836447 
L 495.673906 293.448631 
L 497.405213 294.265941 
L 499.136519 295.282591 
L 501.444927 296.934332 
L 503.753335 298.90252 
L 506.061744 301.157896 
L 508.947254 304.330572 
L 511.832765 307.8291 
L 515.872479 313.125156 
L 528.568725 330.1886 
L 531.454235 333.541082 
L 533.762643 335.928133 
L 536.071052 338.000269 
L 538.37946 339.715231 
L 540.110766 340.746134 
L 541.842073 341.546153 
L 543.573379 342.108239 
L 545.304685 342.429322 
L 547.035991 342.510329 
L 548.767298 342.356361 
L 550.498604 341.976469 
L 552.22991 341.383499 
L 553.961216 340.593727 
L 556.269625 339.268234 
L 558.578033 337.679576 
L 561.463543 335.411475 
L 565.503258 331.919665 
L 572.428483 325.885248 
L 575.891095 323.179252 
L 578.776606 321.195148 
L 581.662116 319.499369 
L 584.547626 318.111382 
L 586.856035 317.224355 
L 589.164443 316.529863 
L 592.049953 315.914539 
L 594.935464 315.550346 
L 597.820974 315.398326 
L 601.283587 315.434202 
L 605.900403 315.724581 
L 619.173751 316.725246 
L 622.636364 316.794824 
L 622.636364 316.794824 
" clip-path="url(#pfda65dd753)" style="fill: none; stroke-dasharray: 7.4,3.2; stroke-dashoffset: 0; stroke: #e377c2; stroke-width: 2"/>
   </g>
   <g id="patch_3">
    <path d="M 90 384.48 
L 90 51.84 
" style="fill: none; stroke: #000000; stroke-width: 0.8; stroke-linejoin: miter; stroke-linecap: square"/>
   </g>
   <g id="patch_4">
    <path d="M 648 384.48 
L 648 51.84 
" style="fill: none; stroke: #000000; stroke-width: 0.8; stroke-linejoin: miter; stroke-linecap: square"/>
   </g>
   <g id="patch_5">
    <path d="M 90 384.48 
L 648 384.48 
" style="fill: none; stroke: #000000; stroke-width: 0.8; stroke-linejoin: miter; stroke-linecap: square"/>
   </g>
   <g id="patch_6">
    <path d="M 90 51.84 
L 648 51.84 
" style="fill: none; stroke: #000000; stroke-width: 0.8; stroke-linejoin: miter; stroke-linecap: square"/>
   </g>
   <g id="legend_1">
    <g id="patch_7">
     <path d="M 104.195625 45.336 
L 633.804375 45.336 
Q 636.204375 45.336 636.204375 42.936 
L 636.204375 26.976 
Q 636.204375 24.576 633.804375 24.576 
L 104.195625 24.576 
Q 101.795625 24.576 101.795625 26.976 
L 101.795625 42.936 
Q 101.795625 45.336 104.195625 45.336 
z
" style="fill: #ffffff; opacity: 0.8; stroke: #cccccc; stroke-linejoin: miter"/>
    </g>
    <g id="line2d_42">
     <path d="M 106.595625 33.951 
L 118.595625 33.951 
L 130.595625 33.951 
" style="fill: none; stroke: #1f77b4; stroke-width: 3.5; stroke-linecap: square"/>
    </g>
    <g id="text_20">
     <!-- OBS -->
     <g transform="translate(140.195625 38.151) scale(0.12 -0.12)">
      <defs>
       <path id="ArialMT-4f" d="M 309 2231 
Q 309 3372 921 4017 
Q 1534 4663 2503 4663 
Q 3138 4663 3647 4359 
Q 4156 4056 4423 3514 
Q 4691 2972 4691 2284 
Q 4691 1588 4409 1038 
Q 4128 488 3612 205 
Q 3097 -78 2500 -78 
Q 1853 -78 1343 234 
Q 834 547 571 1087 
Q 309 1628 309 2231 
z
M 934 2222 
Q 934 1394 1379 917 
Q 1825 441 2497 441 
Q 3181 441 3623 922 
Q 4066 1403 4066 2288 
Q 4066 2847 3877 3264 
Q 3688 3681 3323 3911 
Q 2959 4141 2506 4141 
Q 1863 4141 1398 3698 
Q 934 3256 934 2222 
z
" transform="scale(0.015625)"/>
       <path id="ArialMT-53" d="M 288 1472 
L 859 1522 
Q 900 1178 1048 958 
Q 1197 738 1509 602 
Q 1822 466 2213 466 
Q 2559 466 2825 569 
Q 3091 672 3220 851 
Q 3350 1031 3350 1244 
Q 3350 1459 3225 1620 
Q 3100 1781 2813 1891 
Q 2628 1963 1997 2114 
Q 1366 2266 1113 2400 
Q 784 2572 623 2826 
Q 463 3081 463 3397 
Q 463 3744 659 4045 
Q 856 4347 1234 4503 
Q 1613 4659 2075 4659 
Q 2584 4659 2973 4495 
Q 3363 4331 3572 4012 
Q 3781 3694 3797 3291 
L 3216 3247 
Q 3169 3681 2898 3903 
Q 2628 4125 2100 4125 
Q 1550 4125 1298 3923 
Q 1047 3722 1047 3438 
Q 1047 3191 1225 3031 
Q 1400 2872 2139 2705 
Q 2878 2538 3153 2413 
Q 3553 2228 3743 1945 
Q 3934 1663 3934 1294 
Q 3934 928 3725 604 
Q 3516 281 3123 101 
Q 2731 -78 2241 -78 
Q 1619 -78 1198 103 
Q 778 284 539 648 
Q 300 1013 288 1472 
z
" transform="scale(0.015625)"/>
      </defs>
      <use xlink:href="#ArialMT-4f"/>
      <use xlink:href="#ArialMT-42" x="77.783203"/>
      <use xlink:href="#ArialMT-53" x="144.482422"/>
     </g>
    </g>
    <g id="line2d_43">
     <path d="M 189.538125 33.951 
L 201.538125 33.951 
L 213.538125 33.951 
" style="fill: none; stroke: #ff7f0e; stroke-width: 3.5; stroke-linecap: square"/>
    </g>
    <g id="text_21">
     <!-- CON -->
     <g transform="translate(223.138125 38.151) scale(0.12 -0.12)">
      <defs>
       <path id="ArialMT-4e" d="M 488 0 
L 488 4581 
L 1109 4581 
L 3516 984 
L 3516 4581 
L 4097 4581 
L 4097 0 
L 3475 0 
L 1069 3600 
L 1069 0 
L 488 0 
z
" transform="scale(0.015625)"/>
      </defs>
      <use xlink:href="#ArialMT-43"/>
      <use xlink:href="#ArialMT-4f" x="72.216797"/>
      <use xlink:href="#ArialMT-4e" x="150"/>
     </g>
    </g>
    <g id="line2d_44">
     <path d="M 273.804375 33.951 
L 285.804375 33.951 
L 297.804375 33.951 
" style="fill: none; stroke-dasharray: 7.4,3.2; stroke-dashoffset: 0; stroke: #2ca02c; stroke-width: 2"/>
    </g>
    <g id="text_22">
     <!-- $S_{11}$ -->
     <g transform="translate(307.404375 38.151) scale(0.12 -0.12)">
      <defs>
       <path id="DejaVuSans-Oblique-53" d="M 3859 4513 
L 3738 3897 
Q 3422 4066 3111 4152 
Q 2800 4238 2509 4238 
Q 1944 4238 1609 3991 
Q 1275 3744 1275 3334 
Q 1275 3109 1398 2989 
Q 1522 2869 2034 2731 
L 2413 2638 
Q 3053 2472 3303 2217 
Q 3553 1963 3553 1503 
Q 3553 797 2998 353 
Q 2444 -91 1538 -91 
Q 1166 -91 791 -17 
Q 416 56 38 206 
L 166 856 
Q 513 641 861 531 
Q 1209 422 1556 422 
Q 2147 422 2503 684 
Q 2859 947 2859 1369 
Q 2859 1650 2717 1795 
Q 2575 1941 2106 2059 
L 1728 2156 
Q 1081 2325 845 2545 
Q 609 2766 609 3163 
Q 609 3859 1145 4304 
Q 1681 4750 2541 4750 
Q 2875 4750 3203 4690 
Q 3531 4631 3859 4513 
z
" transform="scale(0.015625)"/>
       <path id="DejaVuSans-31" d="M 794 531 
L 1825 531 
L 1825 4091 
L 703 3866 
L 703 4441 
L 1819 4666 
L 2450 4666 
L 2450 531 
L 3481 531 
L 3481 0 
L 794 0 
L 794 531 
z
" transform="scale(0.015625)"/>
      </defs>
      <use xlink:href="#DejaVuSans-Oblique-53" transform="translate(0 0.78125)"/>
      <use xlink:href="#DejaVuSans-31" transform="translate(63.476562 -15.625) scale(0.7)"/>
      <use xlink:href="#DejaVuSans-31" transform="translate(108.012695 -15.625) scale(0.7)"/>
     </g>
    </g>
    <g id="line2d_45">
     <path d="M 350.124375 33.951 
L 362.124375 33.951 
L 374.124375 33.951 
" style="fill: none; stroke-dasharray: 7.4,3.2; stroke-dashoffset: 0; stroke: #d62728; stroke-width: 2"/>
    </g>
    <g id="text_23">
     <!-- $S_{12}$ -->
     <g transform="translate(383.724375 38.151) scale(0.12 -0.12)">
      <defs>
       <path id="DejaVuSans-32" d="M 1228 531 
L 3431 531 
L 3431 0 
L 469 0 
L 469 531 
Q 828 903 1448 1529 
Q 2069 2156 2228 2338 
Q 2531 2678 2651 2914 
Q 2772 3150 2772 3378 
Q 2772 3750 2511 3984 
Q 2250 4219 1831 4219 
Q 1534 4219 1204 4116 
Q 875 4013 500 3803 
L 500 4441 
Q 881 4594 1212 4672 
Q 1544 4750 1819 4750 
Q 2544 4750 2975 4387 
Q 3406 4025 3406 3419 
Q 3406 3131 3298 2873 
Q 3191 2616 2906 2266 
Q 2828 2175 2409 1742 
Q 1991 1309 1228 531 
z
" transform="scale(0.015625)"/>
      </defs>
      <use xlink:href="#DejaVuSans-Oblique-53" transform="translate(0 0.78125)"/>
      <use xlink:href="#DejaVuSans-31" transform="translate(63.476562 -15.625) scale(0.7)"/>
      <use xlink:href="#DejaVuSans-32" transform="translate(108.012695 -15.625) scale(0.7)"/>
     </g>
    </g>
    <g id="line2d_46">
     <path d="M 426.444375 33.951 
L 438.444375 33.951 
L 450.444375 33.951 
" style="fill: none; stroke-dasharray: 7.4,3.2; stroke-dashoffset: 0; stroke: #9467bd; stroke-width: 2"/>
    </g>
    <g id="text_24">
     <!-- $S_{21}$ -->
     <g transform="translate(460.044375 38.151) scale(0.12 -0.12)">
      <use xlink:href="#DejaVuSans-Oblique-53" transform="translate(0 0.78125)"/>
      <use xlink:href="#DejaVuSans-32" transform="translate(63.476562 -15.625) scale(0.7)"/>
      <use xlink:href="#DejaVuSans-31" transform="translate(108.012695 -15.625) scale(0.7)"/>
     </g>
    </g>
    <g id="line2d_47">
     <path d="M 502.764375 33.951 
L 514.764375 33.951 
L 526.764375 33.951 
" style="fill: none; stroke-dasharray: 7.4,3.2; stroke-dashoffset: 0; stroke: #8c564b; stroke-width: 2"/>
    </g>
    <g id="text_25">
     <!-- $S_{22}$ -->
     <g transform="translate(536.364375 38.151) scale(0.12 -0.12)">
      <use xlink:href="#DejaVuSans-Oblique-53" transform="translate(0 0.78125)"/>
      <use xlink:href="#DejaVuSans-32" transform="translate(63.476562 -15.625) scale(0.7)"/>
      <use xlink:href="#DejaVuSans-32" transform="translate(108.012695 -15.625) scale(0.7)"/>
     </g>
    </g>
    <g id="line2d_48">
     <path d="M 579.084375 33.951 
L 591.084375 33.951 
L 603.084375 33.951 
" style="fill: none; stroke-dasharray: 7.4,3.2; stroke-dashoffset: 0; stroke: #e377c2; stroke-width: 2"/>
    </g>
    <g id="text_26">
     <!-- $S_{23}$ -->
     <g transform="translate(612.684375 38.151) scale(0.12 -0.12)">
      <use xlink:href="#DejaVuSans-Oblique-53" transform="translate(0 0.78125)"/>
      <use xlink:href="#DejaVuSans-32" transform="translate(63.476562 -15.625) scale(0.7)"/>
      <use xlink:href="#DejaVuSans-33" transform="translate(108.012695 -15.625) scale(0.7)"/>
     </g>
    </g>
   </g>
  </g>
 </g>
 <defs>
  <clipPath id="pfda65dd753">
   <rect x="90" y="51.84" width="558" height="332.64"/>
  </clipPath>
 </defs>
</svg>
