<?xml version="1.0" encoding="utf-8" standalone="no"?>
<!DOCTYPE svg PUBLIC "-//W3C//DTD SVG 1.1//EN"
  "http://www.w3.org/Graphics/SVG/1.1/DTD/svg11.dtd">
<svg xmlns:xlink="http://www.w3.org/1999/xlink" width="460.8pt" height="345.6pt" viewBox="0 0 460.8 345.6" xmlns="http://www.w3.org/2000/svg" version="1.1">
 <metadata>
  <rdf:RDF xmlns:dc="http://purl.org/dc/elements/1.1/" xmlns:cc="http://creativecommons.org/ns#" xmlns:rdf="http://www.w3.org/1999/02/22-rdf-syntax-ns#">
   <cc:Work>
    <dc:type rdf:resource="http://purl.org/dc/dcmitype/StillImage"/>
    <dc:date>2024-10-13T19:40:32.463384</dc:date>
    <dc:format>image/svg+xml</dc:format>
    <dc:creator>
     <cc:Agent>
      <dc:title>Matplotlib v3.8.0, https://matplotlib.org/</dc:title>
     </cc:Agent>
    </dc:creator>
   </cc:Work>
  </rdf:RDF>
 </metadata>
 <defs>
  <style type="text/css">*{stroke-linejoin: round; stroke-linecap: butt}</style>
 </defs>
 <g id="figure_1">
  <g id="patch_1">
   <path d="M 0 345.6 
L 460.8 345.6 
L 460.8 0 
L 0 0 
z
" style="fill: #ffffff"/>
  </g>
  <g id="axes_1">
   <g id="patch_2">
    <path d="M 57.6 307.584 
L 414.72 307.584 
L 414.72 41.472 
L 57.6 41.472 
z
" style="fill: #ffffff"/>
   </g>
   <g id="matplotlib.axis_1">
    <g id="xtick_1">
     <g id="line2d_1">
      <defs>
       <path id="mbacd9a03bb" d="M 0 0 
L 0 3.5 
" style="stroke: #000000; stroke-width: 0.8"/>
      </defs>
      <g>
       <use xlink:href="#mbacd9a03bb" x="59.490559" y="307.584" style="stroke: #000000; stroke-width: 0.8"/>
      </g>
     </g>
     <g id="text_1">
      <!-- 08-05 -->
      <g transform="translate(47.825715 321.52775) scale(0.1 -0.1)">
       <defs>
        <path id="TimesNewRomanPSMT-30" d="M 231 2094 
Q 231 2819 450 3342 
Q 669 3866 1031 4122 
Q 1313 4325 1613 4325 
Q 2100 4325 2488 3828 
Q 2972 3213 2972 2159 
Q 2972 1422 2759 906 
Q 2547 391 2217 158 
Q 1888 -75 1581 -75 
Q 975 -75 572 641 
Q 231 1244 231 2094 
z
M 844 2016 
Q 844 1141 1059 588 
Q 1238 122 1591 122 
Q 1759 122 1940 273 
Q 2122 425 2216 781 
Q 2359 1319 2359 2297 
Q 2359 3022 2209 3506 
Q 2097 3866 1919 4016 
Q 1791 4119 1609 4119 
Q 1397 4119 1231 3928 
Q 1006 3669 925 3112 
Q 844 2556 844 2016 
z
" transform="scale(0.015625)"/>
        <path id="TimesNewRomanPSMT-38" d="M 1228 2134 
Q 725 2547 579 2797 
Q 434 3047 434 3316 
Q 434 3728 753 4026 
Q 1072 4325 1600 4325 
Q 2113 4325 2425 4047 
Q 2738 3769 2738 3413 
Q 2738 3175 2569 2928 
Q 2400 2681 1866 2347 
Q 2416 1922 2594 1678 
Q 2831 1359 2831 1006 
Q 2831 559 2490 242 
Q 2150 -75 1597 -75 
Q 994 -75 656 303 
Q 388 606 388 966 
Q 388 1247 577 1523 
Q 766 1800 1228 2134 
z
M 1719 2469 
Q 2094 2806 2194 3001 
Q 2294 3197 2294 3444 
Q 2294 3772 2109 3958 
Q 1925 4144 1606 4144 
Q 1288 4144 1088 3959 
Q 888 3775 888 3528 
Q 888 3366 970 3203 
Q 1053 3041 1206 2894 
L 1719 2469 
z
M 1375 2016 
Q 1116 1797 991 1539 
Q 866 1281 866 981 
Q 866 578 1086 336 
Q 1306 94 1647 94 
Q 1984 94 2187 284 
Q 2391 475 2391 747 
Q 2391 972 2272 1150 
Q 2050 1481 1375 2016 
z
" transform="scale(0.015625)"/>
        <path id="TimesNewRomanPSMT-2d" d="M 259 1672 
L 1875 1672 
L 1875 1200 
L 259 1200 
L 259 1672 
z
" transform="scale(0.015625)"/>
        <path id="TimesNewRomanPSMT-35" d="M 2778 4238 
L 2534 3706 
L 1259 3706 
L 981 3138 
Q 1809 3016 2294 2522 
Q 2709 2097 2709 1522 
Q 2709 1188 2573 903 
Q 2438 619 2231 419 
Q 2025 219 1772 97 
Q 1413 -75 1034 -75 
Q 653 -75 479 54 
Q 306 184 306 341 
Q 306 428 378 495 
Q 450 563 559 563 
Q 641 563 702 538 
Q 763 513 909 409 
Q 1144 247 1384 247 
Q 1750 247 2026 523 
Q 2303 800 2303 1197 
Q 2303 1581 2056 1914 
Q 1809 2247 1375 2428 
Q 1034 2569 447 2591 
L 1259 4238 
L 2778 4238 
z
" transform="scale(0.015625)"/>
       </defs>
       <use xlink:href="#TimesNewRomanPSMT-30"/>
       <use xlink:href="#TimesNewRomanPSMT-38" x="50"/>
       <use xlink:href="#TimesNewRomanPSMT-2d" x="100"/>
       <use xlink:href="#TimesNewRomanPSMT-30" x="133.300781"/>
       <use xlink:href="#TimesNewRomanPSMT-35" x="183.300781"/>
      </g>
     </g>
    </g>
    <g id="xtick_2">
     <g id="line2d_2">
      <g>
       <use xlink:href="#mbacd9a03bb" x="106.428565" y="307.584" style="stroke: #000000; stroke-width: 0.8"/>
      </g>
     </g>
     <g id="text_2">
      <!-- 08-07 -->
      <g transform="translate(94.763721 321.52775) scale(0.1 -0.1)">
       <defs>
        <path id="TimesNewRomanPSMT-37" d="M 644 4238 
L 2916 4238 
L 2916 4119 
L 1503 -88 
L 1153 -88 
L 2419 3728 
L 1253 3728 
Q 900 3728 750 3644 
Q 488 3500 328 3200 
L 238 3234 
L 644 4238 
z
" transform="scale(0.015625)"/>
       </defs>
       <use xlink:href="#TimesNewRomanPSMT-30"/>
       <use xlink:href="#TimesNewRomanPSMT-38" x="50"/>
       <use xlink:href="#TimesNewRomanPSMT-2d" x="100"/>
       <use xlink:href="#TimesNewRomanPSMT-30" x="133.300781"/>
       <use xlink:href="#TimesNewRomanPSMT-37" x="183.300781"/>
      </g>
     </g>
    </g>
    <g id="xtick_3">
     <g id="line2d_3">
      <g>
       <use xlink:href="#mbacd9a03bb" x="153.366572" y="307.584" style="stroke: #000000; stroke-width: 0.8"/>
      </g>
     </g>
     <g id="text_3">
      <!-- 08-08 -->
      <g transform="translate(141.701728 321.52775) scale(0.1 -0.1)">
       <use xlink:href="#TimesNewRomanPSMT-30"/>
       <use xlink:href="#TimesNewRomanPSMT-38" x="50"/>
       <use xlink:href="#TimesNewRomanPSMT-2d" x="100"/>
       <use xlink:href="#TimesNewRomanPSMT-30" x="133.300781"/>
       <use xlink:href="#TimesNewRomanPSMT-38" x="183.300781"/>
      </g>
     </g>
    </g>
    <g id="xtick_4">
     <g id="line2d_4">
      <g>
       <use xlink:href="#mbacd9a03bb" x="200.304578" y="307.584" style="stroke: #000000; stroke-width: 0.8"/>
      </g>
     </g>
     <g id="text_4">
      <!-- 08-10 -->
      <g transform="translate(188.639735 321.52775) scale(0.1 -0.1)">
       <defs>
        <path id="TimesNewRomanPSMT-31" d="M 750 3822 
L 1781 4325 
L 1884 4325 
L 1884 747 
Q 1884 391 1914 303 
Q 1944 216 2037 169 
Q 2131 122 2419 116 
L 2419 0 
L 825 0 
L 825 116 
Q 1125 122 1212 167 
Q 1300 213 1334 289 
Q 1369 366 1369 747 
L 1369 3034 
Q 1369 3497 1338 3628 
Q 1316 3728 1258 3775 
Q 1200 3822 1119 3822 
Q 1003 3822 797 3725 
L 750 3822 
z
" transform="scale(0.015625)"/>
       </defs>
       <use xlink:href="#TimesNewRomanPSMT-30"/>
       <use xlink:href="#TimesNewRomanPSMT-38" x="50"/>
       <use xlink:href="#TimesNewRomanPSMT-2d" x="100"/>
       <use xlink:href="#TimesNewRomanPSMT-31" x="133.300781"/>
       <use xlink:href="#TimesNewRomanPSMT-30" x="183.300781"/>
      </g>
     </g>
    </g>
    <g id="xtick_5">
     <g id="line2d_5">
      <g>
       <use xlink:href="#mbacd9a03bb" x="247.242585" y="307.584" style="stroke: #000000; stroke-width: 0.8"/>
      </g>
     </g>
     <g id="text_5">
      <!-- 08-11 -->
      <g transform="translate(235.765241 321.52775) scale(0.1 -0.1)">
       <use xlink:href="#TimesNewRomanPSMT-30"/>
       <use xlink:href="#TimesNewRomanPSMT-38" x="50"/>
       <use xlink:href="#TimesNewRomanPSMT-2d" x="100"/>
       <use xlink:href="#TimesNewRomanPSMT-31" x="133.300781"/>
       <use xlink:href="#TimesNewRomanPSMT-31" x="179.550781"/>
      </g>
     </g>
    </g>
    <g id="xtick_6">
     <g id="line2d_6">
      <g>
       <use xlink:href="#mbacd9a03bb" x="294.180591" y="307.584" style="stroke: #000000; stroke-width: 0.8"/>
      </g>
     </g>
     <g id="text_6">
      <!-- 08-13 -->
      <g transform="translate(282.515748 321.52775) scale(0.1 -0.1)">
       <defs>
        <path id="TimesNewRomanPSMT-33" d="M 325 3431 
Q 506 3859 782 4092 
Q 1059 4325 1472 4325 
Q 1981 4325 2253 3994 
Q 2459 3747 2459 3466 
Q 2459 3003 1878 2509 
Q 2269 2356 2469 2072 
Q 2669 1788 2669 1403 
Q 2669 853 2319 450 
Q 1863 -75 997 -75 
Q 569 -75 414 31 
Q 259 138 259 259 
Q 259 350 332 419 
Q 406 488 509 488 
Q 588 488 669 463 
Q 722 447 909 348 
Q 1097 250 1169 231 
Q 1284 197 1416 197 
Q 1734 197 1970 444 
Q 2206 691 2206 1028 
Q 2206 1275 2097 1509 
Q 2016 1684 1919 1775 
Q 1784 1900 1550 2001 
Q 1316 2103 1072 2103 
L 972 2103 
L 972 2197 
Q 1219 2228 1467 2375 
Q 1716 2522 1828 2728 
Q 1941 2934 1941 3181 
Q 1941 3503 1739 3701 
Q 1538 3900 1238 3900 
Q 753 3900 428 3381 
L 325 3431 
z
" transform="scale(0.015625)"/>
       </defs>
       <use xlink:href="#TimesNewRomanPSMT-30"/>
       <use xlink:href="#TimesNewRomanPSMT-38" x="50"/>
       <use xlink:href="#TimesNewRomanPSMT-2d" x="100"/>
       <use xlink:href="#TimesNewRomanPSMT-31" x="133.300781"/>
       <use xlink:href="#TimesNewRomanPSMT-33" x="183.300781"/>
      </g>
     </g>
    </g>
    <g id="xtick_7">
     <g id="line2d_7">
      <g>
       <use xlink:href="#mbacd9a03bb" x="341.118598" y="307.584" style="stroke: #000000; stroke-width: 0.8"/>
      </g>
     </g>
     <g id="text_7">
      <!-- 08-14 -->
      <g transform="translate(329.453754 321.52775) scale(0.1 -0.1)">
       <defs>
        <path id="TimesNewRomanPSMT-34" d="M 2978 1563 
L 2978 1119 
L 2409 1119 
L 2409 0 
L 1894 0 
L 1894 1119 
L 100 1119 
L 100 1519 
L 2066 4325 
L 2409 4325 
L 2409 1563 
L 2978 1563 
z
M 1894 1563 
L 1894 3666 
L 406 1563 
L 1894 1563 
z
" transform="scale(0.015625)"/>
       </defs>
       <use xlink:href="#TimesNewRomanPSMT-30"/>
       <use xlink:href="#TimesNewRomanPSMT-38" x="50"/>
       <use xlink:href="#TimesNewRomanPSMT-2d" x="100"/>
       <use xlink:href="#TimesNewRomanPSMT-31" x="133.300781"/>
       <use xlink:href="#TimesNewRomanPSMT-34" x="183.300781"/>
      </g>
     </g>
    </g>
    <g id="xtick_8">
     <g id="line2d_8">
      <g>
       <use xlink:href="#mbacd9a03bb" x="388.056605" y="307.584" style="stroke: #000000; stroke-width: 0.8"/>
      </g>
     </g>
     <g id="text_8">
      <!-- 08-16 -->
      <g transform="translate(376.391761 321.52775) scale(0.1 -0.1)">
       <defs>
        <path id="TimesNewRomanPSMT-36" d="M 2869 4325 
L 2869 4209 
Q 2456 4169 2195 4045 
Q 1934 3922 1679 3669 
Q 1425 3416 1258 3105 
Q 1091 2794 978 2366 
Q 1428 2675 1881 2675 
Q 2316 2675 2634 2325 
Q 2953 1975 2953 1425 
Q 2953 894 2631 456 
Q 2244 -75 1606 -75 
Q 1172 -75 869 213 
Q 275 772 275 1663 
Q 275 2231 503 2743 
Q 731 3256 1154 3653 
Q 1578 4050 1965 4187 
Q 2353 4325 2688 4325 
L 2869 4325 
z
M 925 2138 
Q 869 1716 869 1456 
Q 869 1156 980 804 
Q 1091 453 1309 247 
Q 1469 100 1697 100 
Q 1969 100 2183 356 
Q 2397 613 2397 1088 
Q 2397 1622 2184 2012 
Q 1972 2403 1581 2403 
Q 1463 2403 1327 2353 
Q 1191 2303 925 2138 
z
" transform="scale(0.015625)"/>
       </defs>
       <use xlink:href="#TimesNewRomanPSMT-30"/>
       <use xlink:href="#TimesNewRomanPSMT-38" x="50"/>
       <use xlink:href="#TimesNewRomanPSMT-2d" x="100"/>
       <use xlink:href="#TimesNewRomanPSMT-31" x="133.300781"/>
       <use xlink:href="#TimesNewRomanPSMT-36" x="183.300781"/>
      </g>
     </g>
    </g>
    <g id="text_9">
     <!-- Time -->
     <g transform="translate(225.783437 334.610562) scale(0.1 -0.1)">
      <defs>
       <path id="TimesNewRomanPSMT-54" d="M 3703 4238 
L 3750 3244 
L 3631 3244 
Q 3597 3506 3538 3619 
Q 3441 3800 3280 3886 
Q 3119 3972 2856 3972 
L 2259 3972 
L 2259 734 
Q 2259 344 2344 247 
Q 2463 116 2709 116 
L 2856 116 
L 2856 0 
L 1059 0 
L 1059 116 
L 1209 116 
Q 1478 116 1591 278 
Q 1659 378 1659 734 
L 1659 3972 
L 1150 3972 
Q 853 3972 728 3928 
Q 566 3869 450 3700 
Q 334 3531 313 3244 
L 194 3244 
L 244 4238 
L 3703 4238 
z
" transform="scale(0.015625)"/>
       <path id="TimesNewRomanPSMT-69" d="M 928 4444 
Q 1059 4444 1151 4351 
Q 1244 4259 1244 4128 
Q 1244 3997 1151 3903 
Q 1059 3809 928 3809 
Q 797 3809 703 3903 
Q 609 3997 609 4128 
Q 609 4259 701 4351 
Q 794 4444 928 4444 
z
M 1188 2947 
L 1188 647 
Q 1188 378 1227 289 
Q 1266 200 1342 156 
Q 1419 113 1622 113 
L 1622 0 
L 231 0 
L 231 113 
Q 441 113 512 153 
Q 584 194 626 287 
Q 669 381 669 647 
L 669 1750 
Q 669 2216 641 2353 
Q 619 2453 572 2492 
Q 525 2531 444 2531 
Q 356 2531 231 2484 
L 188 2597 
L 1050 2947 
L 1188 2947 
z
" transform="scale(0.015625)"/>
       <path id="TimesNewRomanPSMT-6d" d="M 1050 2338 
Q 1363 2650 1419 2697 
Q 1559 2816 1721 2881 
Q 1884 2947 2044 2947 
Q 2313 2947 2506 2790 
Q 2700 2634 2766 2338 
Q 3088 2713 3309 2830 
Q 3531 2947 3766 2947 
Q 3994 2947 4170 2830 
Q 4347 2713 4450 2447 
Q 4519 2266 4519 1878 
L 4519 647 
Q 4519 378 4559 278 
Q 4591 209 4675 161 
Q 4759 113 4950 113 
L 4950 0 
L 3538 0 
L 3538 113 
L 3597 113 
Q 3781 113 3884 184 
Q 3956 234 3988 344 
Q 4000 397 4000 647 
L 4000 1878 
Q 4000 2228 3916 2372 
Q 3794 2572 3525 2572 
Q 3359 2572 3192 2489 
Q 3025 2406 2788 2181 
L 2781 2147 
L 2788 2013 
L 2788 647 
Q 2788 353 2820 281 
Q 2853 209 2943 161 
Q 3034 113 3253 113 
L 3253 0 
L 1806 0 
L 1806 113 
Q 2044 113 2133 169 
Q 2222 225 2256 338 
Q 2272 391 2272 647 
L 2272 1878 
Q 2272 2228 2169 2381 
Q 2031 2581 1784 2581 
Q 1616 2581 1450 2491 
Q 1191 2353 1050 2181 
L 1050 647 
Q 1050 366 1089 281 
Q 1128 197 1204 155 
Q 1281 113 1516 113 
L 1516 0 
L 100 0 
L 100 113 
Q 297 113 375 155 
Q 453 197 493 289 
Q 534 381 534 647 
L 534 1741 
Q 534 2213 506 2350 
Q 484 2453 437 2492 
Q 391 2531 309 2531 
Q 222 2531 100 2484 
L 53 2597 
L 916 2947 
L 1050 2947 
L 1050 2338 
z
" transform="scale(0.015625)"/>
       <path id="TimesNewRomanPSMT-65" d="M 681 1784 
Q 678 1147 991 784 
Q 1303 422 1725 422 
Q 2006 422 2214 576 
Q 2422 731 2563 1106 
L 2659 1044 
Q 2594 616 2278 264 
Q 1963 -88 1488 -88 
Q 972 -88 605 314 
Q 238 716 238 1394 
Q 238 2128 614 2539 
Q 991 2950 1559 2950 
Q 2041 2950 2350 2633 
Q 2659 2316 2659 1784 
L 681 1784 
z
M 681 1966 
L 2006 1966 
Q 1991 2241 1941 2353 
Q 1863 2528 1708 2628 
Q 1553 2728 1384 2728 
Q 1125 2728 920 2526 
Q 716 2325 681 1966 
z
" transform="scale(0.015625)"/>
      </defs>
      <use xlink:href="#TimesNewRomanPSMT-54"/>
      <use xlink:href="#TimesNewRomanPSMT-69" x="57.583984"/>
      <use xlink:href="#TimesNewRomanPSMT-6d" x="85.367188"/>
      <use xlink:href="#TimesNewRomanPSMT-65" x="163.150391"/>
     </g>
    </g>
   </g>
   <g id="matplotlib.axis_2">
    <g id="ytick_1">
     <g id="line2d_9">
      <defs>
       <path id="m0c13ee22ef" d="M 0 0 
L -3.5 0 
" style="stroke: #000000; stroke-width: 0.8"/>
      </defs>
      <g>
       <use xlink:href="#m0c13ee22ef" x="57.6" y="302.51932" style="stroke: #000000; stroke-width: 0.8"/>
      </g>
     </g>
     <g id="text_10">
      <!-- 0 -->
      <g transform="translate(45.6 305.991195) scale(0.1 -0.1)">
       <use xlink:href="#TimesNewRomanPSMT-30"/>
      </g>
     </g>
    </g>
    <g id="ytick_2">
     <g id="line2d_10">
      <g>
       <use xlink:href="#m0c13ee22ef" x="57.6" y="272.918846" style="stroke: #000000; stroke-width: 0.8"/>
      </g>
     </g>
     <g id="text_11">
      <!-- 25 -->
      <g transform="translate(40.6 276.390721) scale(0.1 -0.1)">
       <defs>
        <path id="TimesNewRomanPSMT-32" d="M 2934 816 
L 2638 0 
L 138 0 
L 138 116 
Q 1241 1122 1691 1759 
Q 2141 2397 2141 2925 
Q 2141 3328 1894 3587 
Q 1647 3847 1303 3847 
Q 991 3847 742 3664 
Q 494 3481 375 3128 
L 259 3128 
Q 338 3706 661 4015 
Q 984 4325 1469 4325 
Q 1984 4325 2329 3994 
Q 2675 3663 2675 3213 
Q 2675 2891 2525 2569 
Q 2294 2063 1775 1497 
Q 997 647 803 472 
L 1909 472 
Q 2247 472 2383 497 
Q 2519 522 2628 598 
Q 2738 675 2819 816 
L 2934 816 
z
" transform="scale(0.015625)"/>
       </defs>
       <use xlink:href="#TimesNewRomanPSMT-32"/>
       <use xlink:href="#TimesNewRomanPSMT-35" x="50"/>
      </g>
     </g>
    </g>
    <g id="ytick_3">
     <g id="line2d_11">
      <g>
       <use xlink:href="#m0c13ee22ef" x="57.6" y="243.318372" style="stroke: #000000; stroke-width: 0.8"/>
      </g>
     </g>
     <g id="text_12">
      <!-- 50 -->
      <g transform="translate(40.6 246.790247) scale(0.1 -0.1)">
       <use xlink:href="#TimesNewRomanPSMT-35"/>
       <use xlink:href="#TimesNewRomanPSMT-30" x="50"/>
      </g>
     </g>
    </g>
    <g id="ytick_4">
     <g id="line2d_12">
      <g>
       <use xlink:href="#m0c13ee22ef" x="57.6" y="213.717897" style="stroke: #000000; stroke-width: 0.8"/>
      </g>
     </g>
     <g id="text_13">
      <!-- 75 -->
      <g transform="translate(40.6 217.189772) scale(0.1 -0.1)">
       <use xlink:href="#TimesNewRomanPSMT-37"/>
       <use xlink:href="#TimesNewRomanPSMT-35" x="50"/>
      </g>
     </g>
    </g>
    <g id="ytick_5">
     <g id="line2d_13">
      <g>
       <use xlink:href="#m0c13ee22ef" x="57.6" y="184.117423" style="stroke: #000000; stroke-width: 0.8"/>
      </g>
     </g>
     <g id="text_14">
      <!-- 100 -->
      <g transform="translate(35.6 187.589298) scale(0.1 -0.1)">
       <use xlink:href="#TimesNewRomanPSMT-31"/>
       <use xlink:href="#TimesNewRomanPSMT-30" x="50"/>
       <use xlink:href="#TimesNewRomanPSMT-30" x="100"/>
      </g>
     </g>
    </g>
    <g id="ytick_6">
     <g id="line2d_14">
      <g>
       <use xlink:href="#m0c13ee22ef" x="57.6" y="154.516948" style="stroke: #000000; stroke-width: 0.8"/>
      </g>
     </g>
     <g id="text_15">
      <!-- 125 -->
      <g transform="translate(35.6 157.988823) scale(0.1 -0.1)">
       <use xlink:href="#TimesNewRomanPSMT-31"/>
       <use xlink:href="#TimesNewRomanPSMT-32" x="50"/>
       <use xlink:href="#TimesNewRomanPSMT-35" x="100"/>
      </g>
     </g>
    </g>
    <g id="ytick_7">
     <g id="line2d_15">
      <g>
       <use xlink:href="#m0c13ee22ef" x="57.6" y="124.916474" style="stroke: #000000; stroke-width: 0.8"/>
      </g>
     </g>
     <g id="text_16">
      <!-- 150 -->
      <g transform="translate(35.6 128.388349) scale(0.1 -0.1)">
       <use xlink:href="#TimesNewRomanPSMT-31"/>
       <use xlink:href="#TimesNewRomanPSMT-35" x="50"/>
       <use xlink:href="#TimesNewRomanPSMT-30" x="100"/>
      </g>
     </g>
    </g>
    <g id="ytick_8">
     <g id="line2d_16">
      <g>
       <use xlink:href="#m0c13ee22ef" x="57.6" y="95.315999" style="stroke: #000000; stroke-width: 0.8"/>
      </g>
     </g>
     <g id="text_17">
      <!-- 175 -->
      <g transform="translate(35.6 98.787874) scale(0.1 -0.1)">
       <use xlink:href="#TimesNewRomanPSMT-31"/>
       <use xlink:href="#TimesNewRomanPSMT-37" x="50"/>
       <use xlink:href="#TimesNewRomanPSMT-35" x="100"/>
      </g>
     </g>
    </g>
    <g id="ytick_9">
     <g id="line2d_17">
      <g>
       <use xlink:href="#m0c13ee22ef" x="57.6" y="65.715525" style="stroke: #000000; stroke-width: 0.8"/>
      </g>
     </g>
     <g id="text_18">
      <!-- 200 -->
      <g transform="translate(35.6 69.1874) scale(0.1 -0.1)">
       <use xlink:href="#TimesNewRomanPSMT-32"/>
       <use xlink:href="#TimesNewRomanPSMT-30" x="50"/>
       <use xlink:href="#TimesNewRomanPSMT-30" x="100"/>
      </g>
     </g>
    </g>
    <g id="text_19">
     <!-- BC $(ng/m^3)$ -->
     <g transform="translate(29.460938 201.878) rotate(-90) scale(0.1 -0.1)">
      <defs>
       <path id="TimesNewRomanPSMT-42" d="M 2956 2163 
Q 3397 2069 3616 1863 
Q 3919 1575 3919 1159 
Q 3919 844 3719 555 
Q 3519 266 3170 133 
Q 2822 0 2106 0 
L 106 0 
L 106 116 
L 266 116 
Q 531 116 647 284 
Q 719 394 719 750 
L 719 3488 
Q 719 3881 628 3984 
Q 506 4122 266 4122 
L 106 4122 
L 106 4238 
L 1938 4238 
Q 2450 4238 2759 4163 
Q 3228 4050 3475 3764 
Q 3722 3478 3722 3106 
Q 3722 2788 3528 2536 
Q 3334 2284 2956 2163 
z
M 1319 2331 
Q 1434 2309 1582 2298 
Q 1731 2288 1909 2288 
Q 2366 2288 2595 2386 
Q 2825 2484 2947 2687 
Q 3069 2891 3069 3131 
Q 3069 3503 2766 3765 
Q 2463 4028 1881 4028 
Q 1569 4028 1319 3959 
L 1319 2331 
z
M 1319 306 
Q 1681 222 2034 222 
Q 2600 222 2897 476 
Q 3194 731 3194 1106 
Q 3194 1353 3059 1581 
Q 2925 1809 2622 1940 
Q 2319 2072 1872 2072 
Q 1678 2072 1540 2065 
Q 1403 2059 1319 2044 
L 1319 306 
z
" transform="scale(0.015625)"/>
       <path id="TimesNewRomanPSMT-43" d="M 3853 4334 
L 3950 2894 
L 3853 2894 
Q 3659 3541 3300 3825 
Q 2941 4109 2438 4109 
Q 2016 4109 1675 3895 
Q 1334 3681 1139 3212 
Q 944 2744 944 2047 
Q 944 1472 1128 1050 
Q 1313 628 1683 403 
Q 2053 178 2528 178 
Q 2941 178 3256 354 
Q 3572 531 3950 1056 
L 4047 994 
Q 3728 428 3303 165 
Q 2878 -97 2294 -97 
Q 1241 -97 663 684 
Q 231 1266 231 2053 
Q 231 2688 515 3219 
Q 800 3750 1298 4042 
Q 1797 4334 2388 4334 
Q 2847 4334 3294 4109 
Q 3425 4041 3481 4041 
Q 3566 4041 3628 4100 
Q 3709 4184 3744 4334 
L 3853 4334 
z
" transform="scale(0.015625)"/>
       <path id="TimesNewRomanPSMT-20" transform="scale(0.015625)"/>
       <path id="DejaVuSans-28" d="M 1984 4856 
Q 1566 4138 1362 3434 
Q 1159 2731 1159 2009 
Q 1159 1288 1364 580 
Q 1569 -128 1984 -844 
L 1484 -844 
Q 1016 -109 783 600 
Q 550 1309 550 2009 
Q 550 2706 781 3412 
Q 1013 4119 1484 4856 
L 1984 4856 
z
" transform="scale(0.015625)"/>
       <path id="DejaVuSans-Oblique-6e" d="M 3566 2113 
L 3156 0 
L 2578 0 
L 2988 2091 
Q 3016 2238 3031 2350 
Q 3047 2463 3047 2528 
Q 3047 2791 2881 2937 
Q 2716 3084 2419 3084 
Q 1956 3084 1622 2776 
Q 1288 2469 1184 1941 
L 800 0 
L 225 0 
L 903 3500 
L 1478 3500 
L 1363 2950 
Q 1603 3253 1940 3418 
Q 2278 3584 2650 3584 
Q 3113 3584 3367 3334 
Q 3622 3084 3622 2631 
Q 3622 2519 3608 2391 
Q 3594 2263 3566 2113 
z
" transform="scale(0.015625)"/>
       <path id="DejaVuSans-Oblique-67" d="M 3816 3500 
L 3219 434 
Q 3047 -456 2561 -893 
Q 2075 -1331 1253 -1331 
Q 950 -1331 690 -1286 
Q 431 -1241 206 -1147 
L 313 -588 
Q 525 -725 762 -790 
Q 1000 -856 1269 -856 
Q 1816 -856 2167 -557 
Q 2519 -259 2631 300 
L 2681 563 
Q 2441 288 2122 144 
Q 1803 0 1434 0 
Q 903 0 598 351 
Q 294 703 294 1319 
Q 294 1803 478 2267 
Q 663 2731 997 3091 
Q 1219 3328 1514 3456 
Q 1809 3584 2131 3584 
Q 2484 3584 2746 3420 
Q 3009 3256 3138 2956 
L 3238 3500 
L 3816 3500 
z
M 2950 2216 
Q 2950 2641 2750 2872 
Q 2550 3103 2181 3103 
Q 1953 3103 1747 3012 
Q 1541 2922 1394 2759 
Q 1156 2491 1023 2127 
Q 891 1763 891 1375 
Q 891 944 1092 712 
Q 1294 481 1672 481 
Q 2219 481 2584 976 
Q 2950 1472 2950 2216 
z
" transform="scale(0.015625)"/>
       <path id="DejaVuSans-2f" d="M 1625 4666 
L 2156 4666 
L 531 -594 
L 0 -594 
L 1625 4666 
z
" transform="scale(0.015625)"/>
       <path id="DejaVuSans-Oblique-6d" d="M 5747 2113 
L 5338 0 
L 4763 0 
L 5166 2094 
Q 5191 2228 5203 2325 
Q 5216 2422 5216 2491 
Q 5216 2772 5059 2928 
Q 4903 3084 4622 3084 
Q 4203 3084 3875 2770 
Q 3547 2456 3450 1953 
L 3066 0 
L 2491 0 
L 2900 2094 
Q 2925 2209 2937 2307 
Q 2950 2406 2950 2484 
Q 2950 2769 2794 2926 
Q 2638 3084 2363 3084 
Q 1938 3084 1609 2770 
Q 1281 2456 1184 1953 
L 800 0 
L 225 0 
L 909 3500 
L 1484 3500 
L 1375 2956 
Q 1609 3263 1923 3423 
Q 2238 3584 2597 3584 
Q 2978 3584 3223 3384 
Q 3469 3184 3519 2828 
Q 3781 3197 4126 3390 
Q 4472 3584 4856 3584 
Q 5306 3584 5551 3325 
Q 5797 3066 5797 2591 
Q 5797 2488 5784 2364 
Q 5772 2241 5747 2113 
z
" transform="scale(0.015625)"/>
       <path id="DejaVuSans-33" d="M 2597 2516 
Q 3050 2419 3304 2112 
Q 3559 1806 3559 1356 
Q 3559 666 3084 287 
Q 2609 -91 1734 -91 
Q 1441 -91 1130 -33 
Q 819 25 488 141 
L 488 750 
Q 750 597 1062 519 
Q 1375 441 1716 441 
Q 2309 441 2620 675 
Q 2931 909 2931 1356 
Q 2931 1769 2642 2001 
Q 2353 2234 1838 2234 
L 1294 2234 
L 1294 2753 
L 1863 2753 
Q 2328 2753 2575 2939 
Q 2822 3125 2822 3475 
Q 2822 3834 2567 4026 
Q 2313 4219 1838 4219 
Q 1578 4219 1281 4162 
Q 984 4106 628 3988 
L 628 4550 
Q 988 4650 1302 4700 
Q 1616 4750 1894 4750 
Q 2613 4750 3031 4423 
Q 3450 4097 3450 3541 
Q 3450 3153 3228 2886 
Q 3006 2619 2597 2516 
z
" transform="scale(0.015625)"/>
       <path id="DejaVuSans-29" d="M 513 4856 
L 1013 4856 
Q 1481 4119 1714 3412 
Q 1947 2706 1947 2009 
Q 1947 1309 1714 600 
Q 1481 -109 1013 -844 
L 513 -844 
Q 928 -128 1133 580 
Q 1338 1288 1338 2009 
Q 1338 2731 1133 3434 
Q 928 4138 513 4856 
z
" transform="scale(0.015625)"/>
      </defs>
      <use xlink:href="#TimesNewRomanPSMT-42" transform="translate(0 0.765625)"/>
      <use xlink:href="#TimesNewRomanPSMT-43" transform="translate(66.699219 0.765625)"/>
      <use xlink:href="#TimesNewRomanPSMT-20" transform="translate(133.398438 0.765625)"/>
      <use xlink:href="#DejaVuSans-28" transform="translate(158.398438 0.765625)"/>
      <use xlink:href="#DejaVuSans-Oblique-6e" transform="translate(197.412109 0.765625)"/>
      <use xlink:href="#DejaVuSans-Oblique-67" transform="translate(260.791016 0.765625)"/>
      <use xlink:href="#DejaVuSans-2f" transform="translate(324.267578 0.765625)"/>
      <use xlink:href="#DejaVuSans-Oblique-6d" transform="translate(357.958984 0.765625)"/>
      <use xlink:href="#DejaVuSans-33" transform="translate(460.02099 39.046875) scale(0.7)"/>
      <use xlink:href="#DejaVuSans-29" transform="translate(507.291497 0.765625)"/>
     </g>
    </g>
   </g>
   <g id="line2d_18">
    <path d="M 73.832727 240.261324 
L 81.655728 247.686647 
L 84.263395 249.806498 
L 85.567229 250.695589 
L 88.174896 252.085847 
L 89.478729 252.598062 
L 90.782563 252.978346 
L 92.086396 253.219777 
L 93.39023 253.323078 
L 94.694064 253.26983 
L 97.301731 252.768994 
L 99.909398 251.823332 
L 102.517065 250.52488 
L 105.124732 248.989471 
L 107.732399 247.626157 
L 110.340066 246.58826 
L 114.251566 245.446032 
L 128.593735 242.451034 
L 131.201402 241.602946 
L 135.112903 239.980035 
L 139.024403 238.404575 
L 141.63207 237.577812 
L 144.239737 237.026593 
L 145.543571 236.933842 
L 146.847404 237.000752 
L 148.151238 237.217282 
L 149.455071 237.554723 
L 150.758905 238.1011 
L 152.062738 238.86902 
L 153.366572 239.809355 
L 155.974239 242.17209 
L 158.581906 244.983411 
L 162.493406 249.922798 
L 166.404907 254.91451 
L 169.012574 258.112058 
L 170.316407 259.491575 
L 172.924074 261.667381 
L 175.531742 263.553868 
L 178.139409 265.121741 
L 180.747076 266.386768 
L 183.354743 267.425468 
L 185.96241 268.299947 
L 193.785411 270.286201 
L 196.393078 271.106146 
L 199.000745 272.180331 
L 201.608412 273.481916 
L 204.216079 275.045773 
L 206.823746 276.858156 
L 210.735246 279.976257 
L 217.254414 285.489496 
L 221.165915 288.373 
L 223.773582 290.085043 
L 226.381249 291.492296 
L 228.988916 292.648838 
L 231.596583 293.628856 
L 234.20425 294.334123 
L 238.11575 295.209488 
L 240.723417 295.431593 
L 243.331084 295.488 
L 245.938751 295.374766 
L 249.850252 294.933051 
L 253.761752 294.223305 
L 257.673253 293.220186 
L 261.584754 291.907497 
L 264.192421 290.831947 
L 268.103921 288.722241 
L 272.015422 286.43709 
L 279.838423 281.734256 
L 283.749923 279.729342 
L 286.35759 278.67406 
L 288.965257 277.870402 
L 292.876758 277.171698 
L 295.484425 277.002626 
L 298.092092 277.075701 
L 300.699759 277.392766 
L 304.61126 278.233443 
L 308.52276 279.342327 
L 313.738094 281.09828 
L 320.257262 283.428736 
L 324.168762 285.017106 
L 328.080263 286.818923 
L 333.295597 289.227919 
L 335.903264 290.190818 
L 338.510931 290.938468 
L 341.118598 291.454705 
L 343.726265 291.497215 
L 346.333932 291.195341 
L 348.941599 290.482215 
L 351.549266 289.465952 
L 354.156933 288.137939 
L 358.068434 285.711979 
L 364.587601 281.594904 
L 367.195268 280.192122 
L 369.802935 279.085066 
L 372.410602 278.324314 
L 375.018269 277.92076 
L 377.625936 277.83853 
L 381.537437 278.117558 
L 389.360438 278.933924 
L 391.968105 278.914975 
L 394.575772 278.658584 
L 397.183439 278.213837 
L 398.487273 277.865241 
L 398.487273 277.865241 
" clip-path="url(#p14f91b450c)" style="fill: none; stroke: #1f77b4; stroke-width: 2; stroke-linecap: square"/>
   </g>
   <g id="line2d_19">
    <path d="M 73.832727 240.261324 
L 76.440394 243.229681 
L 79.048061 245.876132 
L 81.655728 248.133816 
L 84.263395 250.066269 
L 86.871062 251.723416 
L 89.478729 253.161153 
L 92.086396 254.410694 
L 94.694064 255.381756 
L 97.301731 256.17428 
L 99.909398 256.793491 
L 102.517065 257.233049 
L 105.124732 257.463187 
L 110.340066 257.578335 
L 114.251566 257.428268 
L 116.859233 257.14901 
L 119.4669 256.686515 
L 123.378401 255.703804 
L 125.986068 254.785149 
L 128.593735 253.681859 
L 132.505235 251.736389 
L 137.72057 248.924691 
L 140.328237 247.850917 
L 142.935904 247.174934 
L 144.239737 247.007699 
L 145.543571 246.962561 
L 146.847404 247.043799 
L 148.151238 247.251242 
L 149.455071 247.582234 
L 152.062738 248.592804 
L 154.670405 250.011768 
L 157.278072 251.708656 
L 161.189573 254.681811 
L 170.316407 261.940783 
L 174.227908 264.731269 
L 176.835575 266.371575 
L 179.443242 267.834995 
L 183.354743 269.713742 
L 187.266243 271.243761 
L 191.177744 272.467042 
L 195.089244 273.433287 
L 199.000745 274.206655 
L 206.823746 275.371311 
L 214.646747 276.252424 
L 223.773582 277.026876 
L 231.596583 277.46472 
L 236.811917 277.578416 
L 242.027251 277.490649 
L 247.242585 277.173584 
L 252.457919 276.62241 
L 257.673253 275.856132 
L 273.319255 273.292707 
L 278.534589 272.800292 
L 283.749923 272.575311 
L 288.965257 272.573335 
L 302.003593 272.906169 
L 316.345761 273.213389 
L 328.080263 273.198604 
L 345.030099 272.991663 
L 354.156933 272.687041 
L 361.979934 272.220319 
L 368.499102 271.628876 
L 375.018269 270.817249 
L 381.537437 269.74982 
L 386.752771 268.6915 
L 391.968105 267.423026 
L 397.183439 265.899771 
L 398.487273 265.474108 
L 398.487273 265.474108 
" clip-path="url(#p14f91b450c)" style="fill: none; stroke: #008000; stroke-width: 2; stroke-linecap: square"/>
   </g>
   <g id="line2d_20">
    <path d="M 73.832727 240.261324 
L 76.440394 243.716324 
L 79.048061 246.808195 
L 81.655728 249.479429 
L 84.263395 251.800882 
L 86.871062 253.828303 
L 89.478729 255.621497 
L 92.086396 257.215191 
L 94.694064 258.529701 
L 97.301731 259.664359 
L 99.909398 260.628341 
L 102.517065 261.42017 
L 105.124732 262.017494 
L 110.340066 262.901088 
L 114.251566 263.360861 
L 116.859233 263.517827 
L 119.4669 263.525651 
L 123.378401 263.314201 
L 127.289901 262.749512 
L 131.201402 261.912667 
L 139.024403 260.09172 
L 141.63207 259.913388 
L 144.239737 260.09501 
L 146.847404 260.667618 
L 149.455071 261.629639 
L 152.062738 262.943375 
L 154.670405 264.546209 
L 158.581906 267.280481 
L 169.012574 275.015006 
L 172.924074 277.547282 
L 176.835575 279.718308 
L 180.747076 281.51683 
L 184.658576 282.97769 
L 188.570077 284.145371 
L 192.481577 285.067333 
L 197.696911 286.005805 
L 202.912245 286.718806 
L 210.735246 287.57907 
L 221.165915 288.470491 
L 231.596583 289.163946 
L 242.027251 289.631065 
L 252.457919 289.878457 
L 264.192421 289.932621 
L 333.295597 290.025279 
L 346.333932 290.348252 
L 380.233604 291.328621 
L 394.575772 291.455631 
L 398.487273 291.445641 
L 398.487273 291.445641 
" clip-path="url(#p14f91b450c)" style="fill: none; stroke-dasharray: 3.7,1.6; stroke-dashoffset: 0; stroke: #ff0000"/>
   </g>
   <g id="line2d_21">
    <path d="M 73.832727 240.261324 
L 77.744228 239.672943 
L 84.263395 239.04929 
L 88.174896 238.855148 
L 94.694064 238.925032 
L 99.909398 239.144303 
L 109.036232 239.640027 
L 112.947733 239.538053 
L 115.5554 239.273243 
L 118.163067 238.751209 
L 120.770734 237.971026 
L 123.378401 237.020417 
L 125.986068 235.73514 
L 128.593735 234.191544 
L 131.201402 232.422903 
L 135.112903 229.465635 
L 142.935904 223.347759 
L 146.847404 220.641924 
L 149.455071 219.085001 
L 152.062738 217.735523 
L 155.974239 216.007642 
L 159.885739 214.52977 
L 189.87391 204.309644 
L 195.089244 202.813824 
L 205.519912 200.149219 
L 223.773582 195.834489 
L 231.596583 193.745655 
L 235.508083 192.532795 
L 239.419584 191.078782 
L 243.331084 189.308142 
L 247.242585 187.177625 
L 251.154085 184.678061 
L 255.065586 181.837821 
L 258.977087 178.728033 
L 268.103921 171.323637 
L 270.711588 169.501242 
L 273.319255 167.925944 
L 275.926922 166.637525 
L 278.534589 165.658289 
L 281.142256 164.991805 
L 283.749923 164.622215 
L 286.35759 164.514141 
L 288.965257 164.613115 
L 294.180591 165.137832 
L 313.738094 167.411709 
L 318.953428 167.638134 
L 322.864929 167.59819 
L 326.776429 167.33974 
L 330.68793 166.826147 
L 334.59943 166.028005 
L 338.510931 164.924385 
L 342.422432 163.502736 
L 346.333932 161.759084 
L 350.245433 159.698583 
L 354.156933 157.336408 
L 358.068434 154.689975 
L 361.979934 151.759152 
L 365.891435 148.538904 
L 369.802935 145.022144 
L 373.714436 141.199651 
L 377.625936 137.028543 
L 381.537437 132.473231 
L 385.448938 127.476333 
L 389.360438 121.965651 
L 391.968105 117.961315 
L 394.575772 113.658235 
L 397.183439 109.028836 
L 398.487273 106.584145 
L 398.487273 106.584145 
" clip-path="url(#p14f91b450c)" style="fill: none; stroke-dasharray: 3.7,1.6; stroke-dashoffset: 0; stroke: #00bfbf"/>
   </g>
   <g id="line2d_22">
    <path d="M 73.832727 227.373188 
L 76.440394 230.888779 
L 79.048061 233.846155 
L 81.655728 236.312662 
L 84.263395 238.34376 
L 86.871062 239.985046 
L 89.478729 241.273859 
L 92.086396 242.240499 
L 94.694064 242.909095 
L 97.301731 243.298032 
L 99.909398 243.419598 
L 102.517065 243.277391 
L 105.124732 242.854733 
L 115.5554 240.44574 
L 124.682234 238.130977 
L 133.809069 235.596172 
L 137.72057 234.562005 
L 140.328237 234.252872 
L 142.935904 234.321175 
L 145.543571 234.777528 
L 148.151238 235.615822 
L 150.758905 236.813092 
L 153.366572 238.331607 
L 155.974239 240.121697 
L 159.885739 243.186447 
L 172.924074 254.056639 
L 176.835575 256.847249 
L 180.747076 259.281842 
L 184.658576 261.346794 
L 188.570077 263.052468 
L 192.481577 264.429847 
L 196.393078 265.531898 
L 201.608412 266.702738 
L 206.823746 267.644206 
L 213.342913 268.598712 
L 221.165915 269.510033 
L 227.685082 270.084003 
L 234.20425 270.426527 
L 239.419584 270.449555 
L 244.634918 270.192064 
L 248.546418 269.801169 
L 253.761752 269.020293 
L 258.977087 267.973752 
L 270.711588 265.403135 
L 274.623089 264.773309 
L 278.534589 264.330831 
L 282.44609 264.083433 
L 287.661424 264.019318 
L 295.484425 264.229814 
L 316.345761 264.861655 
L 325.472596 264.859912 
L 342.422432 264.646319 
L 351.549266 264.325033 
L 359.372267 263.819508 
L 365.891435 263.161369 
L 371.106769 262.444636 
L 376.322103 261.540256 
L 381.537437 260.439725 
L 386.752771 259.145078 
L 391.968105 257.646575 
L 397.183439 255.919713 
L 398.487273 255.450414 
L 398.487273 255.450414 
" clip-path="url(#p14f91b450c)" style="fill: none; stroke-dasharray: 3.7,1.6; stroke-dashoffset: 0; stroke: #bf00bf"/>
   </g>
   <g id="line2d_23">
    <path d="M 73.832727 227.373188 
L 84.263395 224.864643 
L 93.39023 222.458899 
L 102.517065 219.835549 
L 111.643899 216.976127 
L 120.770734 213.857837 
L 128.593735 210.954815 
L 136.416736 207.812038 
L 142.935904 204.960127 
L 148.151238 202.430389 
L 153.366572 199.619768 
L 158.581906 196.50953 
L 163.79724 193.121071 
L 171.620241 187.691985 
L 178.139409 183.264397 
L 182.050909 180.837187 
L 185.96241 178.652098 
L 189.87391 176.731721 
L 193.785411 175.065157 
L 199.000745 173.152073 
L 205.519912 171.027739 
L 228.988916 163.679934 
L 234.20425 161.73632 
L 238.11575 159.984014 
L 240.723417 158.610367 
L 243.331084 157.044718 
L 245.938751 155.272647 
L 248.546418 153.288342 
L 251.154085 151.095136 
L 255.065586 147.445471 
L 258.977087 143.449442 
L 266.800088 135.203266 
L 269.407755 132.728361 
L 272.015422 130.537656 
L 274.623089 128.692708 
L 277.230756 127.23365 
L 279.838423 126.177263 
L 282.44609 125.515714 
L 285.053757 125.216054 
L 287.661424 125.220453 
L 290.269091 125.447023 
L 295.484425 126.189824 
L 311.130427 128.638281 
L 315.041928 129.014505 
L 318.953428 129.199095 
L 322.864929 129.147767 
L 326.776429 128.815663 
L 329.384096 128.414679 
L 331.991763 127.856014 
L 334.59943 127.130104 
L 337.207097 126.229514 
L 339.814765 125.148928 
L 342.422432 123.885173 
L 345.030099 122.437281 
L 347.637766 120.806591 
L 351.549266 118.026819 
L 355.460767 114.868307 
L 359.372267 111.346429 
L 363.283768 107.457246 
L 367.195268 103.193417 
L 371.106769 98.544937 
L 375.018269 93.499009 
L 378.92977 88.039876 
L 382.841271 82.148598 
L 386.752771 75.801728 
L 390.664272 68.953981 
L 394.575772 61.553803 
L 398.487273 53.568 
L 398.487273 53.568 
" clip-path="url(#p14f91b450c)" style="fill: none; stroke-dasharray: 3.7,1.6; stroke-dashoffset: 0; stroke: #bfbf00"/>
   </g>
   <g id="line2d_24">
    <path d="M 73.832727 227.373188 
L 76.440394 231.476715 
L 79.048061 234.97617 
L 81.655728 237.950756 
L 84.263395 240.466034 
L 86.871062 242.576349 
L 89.478729 244.326747 
L 92.086396 245.754458 
L 94.694064 246.889991 
L 97.301731 247.757774 
L 99.909398 248.376065 
L 102.517065 248.754836 
L 105.124732 248.885673 
L 137.72057 248.98682 
L 140.328237 249.374621 
L 142.935904 250.071454 
L 145.543571 251.078555 
L 148.151238 252.382099 
L 150.758905 253.953889 
L 153.366572 255.75388 
L 157.278072 258.77343 
L 170.316407 269.373966 
L 174.227908 272.095693 
L 178.139409 274.456166 
L 182.050909 276.447455 
L 185.96241 278.087577 
L 189.87391 279.411303 
L 193.785411 280.46615 
L 199.000745 281.561086 
L 205.519912 282.625895 
L 213.342913 283.634809 
L 223.773582 284.713963 
L 232.900416 285.449116 
L 242.027251 285.958113 
L 251.154085 286.250756 
L 261.584754 286.345607 
L 331.991763 286.438899 
L 343.726265 286.777127 
L 384.145104 288.230427 
L 398.487273 288.449324 
L 398.487273 288.449324 
" clip-path="url(#p14f91b450c)" style="fill: none; stroke-dasharray: 3.7,1.6; stroke-dashoffset: 0; stroke: #000000"/>
   </g>
   <g id="line2d_25">
    <path d="M 73.832727 240.261324 
L 77.744228 240.426875 
L 82.959562 240.93718 
L 86.871062 241.478942 
L 90.782563 242.23812 
L 102.517065 245.075409 
L 109.036232 246.733242 
L 112.947733 247.468957 
L 115.5554 247.793885 
L 118.163067 247.90575 
L 120.770734 247.810618 
L 123.378401 247.589006 
L 125.986068 247.109313 
L 128.593735 246.443354 
L 132.505235 245.173738 
L 141.63207 241.922151 
L 144.239737 241.190661 
L 146.847404 240.639961 
L 149.455071 240.296967 
L 152.062738 240.160084 
L 155.974239 240.259494 
L 159.885739 240.627421 
L 166.404907 241.576455 
L 178.139409 243.176276 
L 183.354743 243.57112 
L 189.87391 243.848375 
L 199.000745 244.01766 
L 205.519912 244.015824 
L 228.988916 244.039132 
L 385.448938 243.940619 
L 393.271939 243.687508 
L 398.487273 243.376149 
L 398.487273 243.376149 
" clip-path="url(#p14f91b450c)" style="fill: none; stroke-dasharray: 3.7,1.6; stroke-dashoffset: 0; stroke: #ffa500"/>
   </g>
   <g id="patch_3">
    <path d="M 57.6 307.584 
L 57.6 41.472 
" style="fill: none; stroke: #000000; stroke-width: 0.8; stroke-linejoin: miter; stroke-linecap: square"/>
   </g>
   <g id="patch_4">
    <path d="M 414.72 307.584 
L 414.72 41.472 
" style="fill: none; stroke: #000000; stroke-width: 0.8; stroke-linejoin: miter; stroke-linecap: square"/>
   </g>
   <g id="patch_5">
    <path d="M 57.6 307.584 
L 414.72 307.584 
" style="fill: none; stroke: #000000; stroke-width: 0.8; stroke-linejoin: miter; stroke-linecap: square"/>
   </g>
   <g id="patch_6">
    <path d="M 57.6 41.472 
L 414.72 41.472 
" style="fill: none; stroke: #000000; stroke-width: 0.8; stroke-linejoin: miter; stroke-linecap: square"/>
   </g>
   <g id="legend_1">
    <g id="patch_7">
     <path d="M 64.6 163.150125 
L 143.25625 163.150125 
Q 145.25625 163.150125 145.25625 161.150125 
L 145.25625 48.472 
Q 145.25625 46.472 143.25625 46.472 
L 64.6 46.472 
Q 62.6 46.472 62.6 48.472 
L 62.6 161.150125 
Q 62.6 163.150125 64.6 163.150125 
z
" style="fill: #ffffff; opacity: 0.8; stroke: #cccccc; stroke-linejoin: miter"/>
    </g>
    <g id="line2d_26">
     <path d="M 66.6 53.972 
L 76.6 53.972 
L 86.6 53.972 
" style="fill: none; stroke: #1f77b4; stroke-width: 2; stroke-linecap: square"/>
    </g>
    <g id="text_20">
     <!-- observation -->
     <g transform="translate(94.6 57.472) scale(0.1 -0.1)">
      <defs>
       <path id="TimesNewRomanPSMT-6f" d="M 1600 2947 
Q 2250 2947 2644 2453 
Q 2978 2031 2978 1484 
Q 2978 1100 2793 706 
Q 2609 313 2286 112 
Q 1963 -88 1566 -88 
Q 919 -88 538 428 
Q 216 863 216 1403 
Q 216 1797 411 2186 
Q 606 2575 925 2761 
Q 1244 2947 1600 2947 
z
M 1503 2744 
Q 1338 2744 1170 2645 
Q 1003 2547 900 2300 
Q 797 2053 797 1666 
Q 797 1041 1045 587 
Q 1294 134 1700 134 
Q 2003 134 2200 384 
Q 2397 634 2397 1244 
Q 2397 2006 2069 2444 
Q 1847 2744 1503 2744 
z
" transform="scale(0.015625)"/>
       <path id="TimesNewRomanPSMT-62" d="M 984 2369 
Q 1400 2947 1881 2947 
Q 2322 2947 2650 2570 
Q 2978 2194 2978 1541 
Q 2978 778 2472 313 
Q 2038 -88 1503 -88 
Q 1253 -88 995 3 
Q 738 94 469 275 
L 469 3241 
Q 469 3728 445 3840 
Q 422 3953 372 3993 
Q 322 4034 247 4034 
Q 159 4034 28 3984 
L -16 4094 
L 844 4444 
L 984 4444 
L 984 2369 
z
M 984 2169 
L 984 456 
Q 1144 300 1314 220 
Q 1484 141 1663 141 
Q 1947 141 2192 453 
Q 2438 766 2438 1363 
Q 2438 1913 2192 2208 
Q 1947 2503 1634 2503 
Q 1469 2503 1303 2419 
Q 1178 2356 984 2169 
z
" transform="scale(0.015625)"/>
       <path id="TimesNewRomanPSMT-73" d="M 2050 2947 
L 2050 1972 
L 1947 1972 
Q 1828 2431 1642 2597 
Q 1456 2763 1169 2763 
Q 950 2763 815 2647 
Q 681 2531 681 2391 
Q 681 2216 781 2091 
Q 878 1963 1175 1819 
L 1631 1597 
Q 2266 1288 2266 781 
Q 2266 391 1970 151 
Q 1675 -88 1309 -88 
Q 1047 -88 709 6 
Q 606 38 541 38 
Q 469 38 428 -44 
L 325 -44 
L 325 978 
L 428 978 
Q 516 541 762 319 
Q 1009 97 1316 97 
Q 1531 97 1667 223 
Q 1803 350 1803 528 
Q 1803 744 1651 891 
Q 1500 1038 1047 1263 
Q 594 1488 453 1669 
Q 313 1847 313 2119 
Q 313 2472 555 2709 
Q 797 2947 1181 2947 
Q 1350 2947 1591 2875 
Q 1750 2828 1803 2828 
Q 1853 2828 1881 2850 
Q 1909 2872 1947 2947 
L 2050 2947 
z
" transform="scale(0.015625)"/>
       <path id="TimesNewRomanPSMT-72" d="M 1038 2947 
L 1038 2303 
Q 1397 2947 1775 2947 
Q 1947 2947 2059 2842 
Q 2172 2738 2172 2600 
Q 2172 2478 2090 2393 
Q 2009 2309 1897 2309 
Q 1788 2309 1652 2417 
Q 1516 2525 1450 2525 
Q 1394 2525 1328 2463 
Q 1188 2334 1038 2041 
L 1038 669 
Q 1038 431 1097 309 
Q 1138 225 1241 169 
Q 1344 113 1538 113 
L 1538 0 
L 72 0 
L 72 113 
Q 291 113 397 181 
Q 475 231 506 341 
Q 522 394 522 644 
L 522 1753 
Q 522 2253 501 2348 
Q 481 2444 426 2487 
Q 372 2531 291 2531 
Q 194 2531 72 2484 
L 41 2597 
L 906 2947 
L 1038 2947 
z
" transform="scale(0.015625)"/>
       <path id="TimesNewRomanPSMT-76" d="M 53 2863 
L 1400 2863 
L 1400 2747 
L 1313 2747 
Q 1191 2747 1127 2687 
Q 1063 2628 1063 2528 
Q 1063 2419 1128 2269 
L 1794 688 
L 2463 2328 
Q 2534 2503 2534 2594 
Q 2534 2638 2509 2666 
Q 2475 2713 2422 2730 
Q 2369 2747 2206 2747 
L 2206 2863 
L 3141 2863 
L 3141 2747 
Q 2978 2734 2916 2681 
Q 2806 2588 2719 2369 
L 1703 -88 
L 1575 -88 
L 553 2328 
Q 484 2497 421 2570 
Q 359 2644 263 2694 
Q 209 2722 53 2747 
L 53 2863 
z
" transform="scale(0.015625)"/>
       <path id="TimesNewRomanPSMT-61" d="M 1822 413 
Q 1381 72 1269 19 
Q 1100 -59 909 -59 
Q 613 -59 420 144 
Q 228 347 228 678 
Q 228 888 322 1041 
Q 450 1253 767 1440 
Q 1084 1628 1822 1897 
L 1822 2009 
Q 1822 2438 1686 2597 
Q 1550 2756 1291 2756 
Q 1094 2756 978 2650 
Q 859 2544 859 2406 
L 866 2225 
Q 866 2081 792 2003 
Q 719 1925 600 1925 
Q 484 1925 411 2006 
Q 338 2088 338 2228 
Q 338 2497 613 2722 
Q 888 2947 1384 2947 
Q 1766 2947 2009 2819 
Q 2194 2722 2281 2516 
Q 2338 2381 2338 1966 
L 2338 994 
Q 2338 584 2353 492 
Q 2369 400 2405 369 
Q 2441 338 2488 338 
Q 2538 338 2575 359 
Q 2641 400 2828 588 
L 2828 413 
Q 2478 -56 2159 -56 
Q 2006 -56 1915 50 
Q 1825 156 1822 413 
z
M 1822 616 
L 1822 1706 
Q 1350 1519 1213 1441 
Q 966 1303 859 1153 
Q 753 1003 753 825 
Q 753 600 887 451 
Q 1022 303 1197 303 
Q 1434 303 1822 616 
z
" transform="scale(0.015625)"/>
       <path id="TimesNewRomanPSMT-74" d="M 1031 3803 
L 1031 2863 
L 1700 2863 
L 1700 2644 
L 1031 2644 
L 1031 788 
Q 1031 509 1111 412 
Q 1191 316 1316 316 
Q 1419 316 1516 380 
Q 1613 444 1666 569 
L 1788 569 
Q 1678 263 1478 108 
Q 1278 -47 1066 -47 
Q 922 -47 784 33 
Q 647 113 581 261 
Q 516 409 516 719 
L 516 2644 
L 63 2644 
L 63 2747 
Q 234 2816 414 2980 
Q 594 3144 734 3369 
Q 806 3488 934 3803 
L 1031 3803 
z
" transform="scale(0.015625)"/>
       <path id="TimesNewRomanPSMT-6e" d="M 1034 2341 
Q 1538 2947 1994 2947 
Q 2228 2947 2397 2830 
Q 2566 2713 2666 2444 
Q 2734 2256 2734 1869 
L 2734 647 
Q 2734 375 2778 278 
Q 2813 200 2889 156 
Q 2966 113 3172 113 
L 3172 0 
L 1756 0 
L 1756 113 
L 1816 113 
Q 2016 113 2095 173 
Q 2175 234 2206 353 
Q 2219 400 2219 647 
L 2219 1819 
Q 2219 2209 2117 2386 
Q 2016 2563 1775 2563 
Q 1403 2563 1034 2156 
L 1034 647 
Q 1034 356 1069 288 
Q 1113 197 1189 155 
Q 1266 113 1500 113 
L 1500 0 
L 84 0 
L 84 113 
L 147 113 
Q 366 113 442 223 
Q 519 334 519 647 
L 519 1709 
Q 519 2225 495 2337 
Q 472 2450 423 2490 
Q 375 2531 294 2531 
Q 206 2531 84 2484 
L 38 2597 
L 900 2947 
L 1034 2947 
L 1034 2341 
z
" transform="scale(0.015625)"/>
      </defs>
      <use xlink:href="#TimesNewRomanPSMT-6f"/>
      <use xlink:href="#TimesNewRomanPSMT-62" x="50"/>
      <use xlink:href="#TimesNewRomanPSMT-73" x="100"/>
      <use xlink:href="#TimesNewRomanPSMT-65" x="138.916016"/>
      <use xlink:href="#TimesNewRomanPSMT-72" x="183.300781"/>
      <use xlink:href="#TimesNewRomanPSMT-76" x="216.601562"/>
      <use xlink:href="#TimesNewRomanPSMT-61" x="266.601562"/>
      <use xlink:href="#TimesNewRomanPSMT-74" x="310.986328"/>
      <use xlink:href="#TimesNewRomanPSMT-69" x="338.769531"/>
      <use xlink:href="#TimesNewRomanPSMT-6f" x="366.552734"/>
      <use xlink:href="#TimesNewRomanPSMT-6e" x="416.552734"/>
     </g>
    </g>
    <g id="line2d_27">
     <path d="M 66.6 68.111063 
L 76.6 68.111063 
L 86.6 68.111063 
" style="fill: none; stroke: #008000; stroke-width: 2; stroke-linecap: square"/>
    </g>
    <g id="text_21">
     <!-- control -->
     <g transform="translate(94.6 71.611063) scale(0.1 -0.1)">
      <defs>
       <path id="TimesNewRomanPSMT-63" d="M 2631 1088 
Q 2516 522 2178 217 
Q 1841 -88 1431 -88 
Q 944 -88 581 321 
Q 219 731 219 1428 
Q 219 2103 620 2525 
Q 1022 2947 1584 2947 
Q 2006 2947 2278 2723 
Q 2550 2500 2550 2259 
Q 2550 2141 2473 2067 
Q 2397 1994 2259 1994 
Q 2075 1994 1981 2113 
Q 1928 2178 1911 2362 
Q 1894 2547 1784 2644 
Q 1675 2738 1481 2738 
Q 1169 2738 978 2506 
Q 725 2200 725 1697 
Q 725 1184 976 792 
Q 1228 400 1656 400 
Q 1963 400 2206 609 
Q 2378 753 2541 1131 
L 2631 1088 
z
" transform="scale(0.015625)"/>
       <path id="TimesNewRomanPSMT-6c" d="M 1184 4444 
L 1184 647 
Q 1184 378 1223 290 
Q 1263 203 1344 158 
Q 1425 113 1647 113 
L 1647 0 
L 244 0 
L 244 113 
Q 441 113 512 153 
Q 584 194 625 287 
Q 666 381 666 647 
L 666 3247 
Q 666 3731 644 3842 
Q 622 3953 573 3993 
Q 525 4034 450 4034 
Q 369 4034 244 3984 
L 191 4094 
L 1044 4444 
L 1184 4444 
z
" transform="scale(0.015625)"/>
      </defs>
      <use xlink:href="#TimesNewRomanPSMT-63"/>
      <use xlink:href="#TimesNewRomanPSMT-6f" x="44.384766"/>
      <use xlink:href="#TimesNewRomanPSMT-6e" x="94.384766"/>
      <use xlink:href="#TimesNewRomanPSMT-74" x="144.384766"/>
      <use xlink:href="#TimesNewRomanPSMT-72" x="172.167969"/>
      <use xlink:href="#TimesNewRomanPSMT-6f" x="205.46875"/>
      <use xlink:href="#TimesNewRomanPSMT-6c" x="255.46875"/>
     </g>
    </g>
    <g id="line2d_28">
     <path d="M 66.6 82.311063 
L 76.6 82.311063 
L 86.6 82.311063 
" style="fill: none; stroke-dasharray: 3.7,1.6; stroke-dashoffset: 0; stroke: #ff0000"/>
    </g>
    <g id="text_22">
     <!-- $S_{11}$ -->
     <g transform="translate(94.6 85.811063) scale(0.1 -0.1)">
      <defs>
       <path id="DejaVuSans-Oblique-53" d="M 3859 4513 
L 3738 3897 
Q 3422 4066 3111 4152 
Q 2800 4238 2509 4238 
Q 1944 4238 1609 3991 
Q 1275 3744 1275 3334 
Q 1275 3109 1398 2989 
Q 1522 2869 2034 2731 
L 2413 2638 
Q 3053 2472 3303 2217 
Q 3553 1963 3553 1503 
Q 3553 797 2998 353 
Q 2444 -91 1538 -91 
Q 1166 -91 791 -17 
Q 416 56 38 206 
L 166 856 
Q 513 641 861 531 
Q 1209 422 1556 422 
Q 2147 422 2503 684 
Q 2859 947 2859 1369 
Q 2859 1650 2717 1795 
Q 2575 1941 2106 2059 
L 1728 2156 
Q 1081 2325 845 2545 
Q 609 2766 609 3163 
Q 609 3859 1145 4304 
Q 1681 4750 2541 4750 
Q 2875 4750 3203 4690 
Q 3531 4631 3859 4513 
z
" transform="scale(0.015625)"/>
       <path id="DejaVuSans-31" d="M 794 531 
L 1825 531 
L 1825 4091 
L 703 3866 
L 703 4441 
L 1819 4666 
L 2450 4666 
L 2450 531 
L 3481 531 
L 3481 0 
L 794 0 
L 794 531 
z
" transform="scale(0.015625)"/>
      </defs>
      <use xlink:href="#DejaVuSans-Oblique-53" transform="translate(0 0.78125)"/>
      <use xlink:href="#DejaVuSans-31" transform="translate(63.476562 -15.625) scale(0.7)"/>
      <use xlink:href="#DejaVuSans-31" transform="translate(108.012695 -15.625) scale(0.7)"/>
     </g>
    </g>
    <g id="line2d_29">
     <path d="M 66.6 96.511063 
L 76.6 96.511063 
L 86.6 96.511063 
" style="fill: none; stroke-dasharray: 3.7,1.6; stroke-dashoffset: 0; stroke: #00bfbf"/>
    </g>
    <g id="text_23">
     <!-- $S_{12}$ -->
     <g transform="translate(94.6 100.011063) scale(0.1 -0.1)">
      <defs>
       <path id="DejaVuSans-32" d="M 1228 531 
L 3431 531 
L 3431 0 
L 469 0 
L 469 531 
Q 828 903 1448 1529 
Q 2069 2156 2228 2338 
Q 2531 2678 2651 2914 
Q 2772 3150 2772 3378 
Q 2772 3750 2511 3984 
Q 2250 4219 1831 4219 
Q 1534 4219 1204 4116 
Q 875 4013 500 3803 
L 500 4441 
Q 881 4594 1212 4672 
Q 1544 4750 1819 4750 
Q 2544 4750 2975 4387 
Q 3406 4025 3406 3419 
Q 3406 3131 3298 2873 
Q 3191 2616 2906 2266 
Q 2828 2175 2409 1742 
Q 1991 1309 1228 531 
z
" transform="scale(0.015625)"/>
      </defs>
      <use xlink:href="#DejaVuSans-Oblique-53" transform="translate(0 0.78125)"/>
      <use xlink:href="#DejaVuSans-31" transform="translate(63.476562 -15.625) scale(0.7)"/>
      <use xlink:href="#DejaVuSans-32" transform="translate(108.012695 -15.625) scale(0.7)"/>
     </g>
    </g>
    <g id="line2d_30">
     <path d="M 66.6 110.811063 
L 76.6 110.811063 
L 86.6 110.811063 
" style="fill: none; stroke-dasharray: 3.7,1.6; stroke-dashoffset: 0; stroke: #bf00bf"/>
    </g>
    <g id="text_24">
     <!-- $S_{13}$ -->
     <g transform="translate(94.6 114.311063) scale(0.1 -0.1)">
      <use xlink:href="#DejaVuSans-Oblique-53" transform="translate(0 0.78125)"/>
      <use xlink:href="#DejaVuSans-31" transform="translate(63.476562 -15.625) scale(0.7)"/>
      <use xlink:href="#DejaVuSans-33" transform="translate(108.012695 -15.625) scale(0.7)"/>
     </g>
    </g>
    <g id="line2d_31">
     <path d="M 66.6 125.011063 
L 76.6 125.011063 
L 86.6 125.011063 
" style="fill: none; stroke-dasharray: 3.7,1.6; stroke-dashoffset: 0; stroke: #bfbf00"/>
    </g>
    <g id="text_25">
     <!-- $S_{21}$ -->
     <g transform="translate(94.6 128.511063) scale(0.1 -0.1)">
      <use xlink:href="#DejaVuSans-Oblique-53" transform="translate(0 0.78125)"/>
      <use xlink:href="#DejaVuSans-32" transform="translate(63.476562 -15.625) scale(0.7)"/>
      <use xlink:href="#DejaVuSans-31" transform="translate(108.012695 -15.625) scale(0.7)"/>
     </g>
    </g>
    <g id="line2d_32">
     <path d="M 66.6 139.211063 
L 76.6 139.211063 
L 86.6 139.211063 
" style="fill: none; stroke-dasharray: 3.7,1.6; stroke-dashoffset: 0; stroke: #000000"/>
    </g>
    <g id="text_26">
     <!-- $S_{22}$ -->
     <g transform="translate(94.6 142.711063) scale(0.1 -0.1)">
      <use xlink:href="#DejaVuSans-Oblique-53" transform="translate(0 0.78125)"/>
      <use xlink:href="#DejaVuSans-32" transform="translate(63.476562 -15.625) scale(0.7)"/>
      <use xlink:href="#DejaVuSans-32" transform="translate(108.012695 -15.625) scale(0.7)"/>
     </g>
    </g>
    <g id="line2d_33">
     <path d="M 66.6 153.511063 
L 76.6 153.511063 
L 86.6 153.511063 
" style="fill: none; stroke-dasharray: 3.7,1.6; stroke-dashoffset: 0; stroke: #ffa500"/>
    </g>
    <g id="text_27">
     <!-- $S_{23}$ -->
     <g transform="translate(94.6 157.011063) scale(0.1 -0.1)">
      <use xlink:href="#DejaVuSans-Oblique-53" transform="translate(0 0.78125)"/>
      <use xlink:href="#DejaVuSans-32" transform="translate(63.476562 -15.625) scale(0.7)"/>
      <use xlink:href="#DejaVuSans-33" transform="translate(108.012695 -15.625) scale(0.7)"/>
     </g>
    </g>
   </g>
  </g>
 </g>
 <defs>
  <clipPath id="p14f91b450c">
   <rect x="57.6" y="41.472" width="357.12" height="266.112"/>
  </clipPath>
 </defs>
</svg>
