<?xml version="1.0" encoding="utf-8" standalone="no"?>
<!DOCTYPE svg PUBLIC "-//W3C//DTD SVG 1.1//EN"
  "http://www.w3.org/Graphics/SVG/1.1/DTD/svg11.dtd">
<svg xmlns:xlink="http://www.w3.org/1999/xlink" width="460.8pt" height="345.6pt" viewBox="0 0 460.8 345.6" xmlns="http://www.w3.org/2000/svg" version="1.1">
 <metadata>
  <rdf:RDF xmlns:dc="http://purl.org/dc/elements/1.1/" xmlns:cc="http://creativecommons.org/ns#" xmlns:rdf="http://www.w3.org/1999/02/22-rdf-syntax-ns#">
   <cc:Work>
    <dc:type rdf:resource="http://purl.org/dc/dcmitype/StillImage"/>
    <dc:date>2024-10-13T19:40:24.276911</dc:date>
    <dc:format>image/svg+xml</dc:format>
    <dc:creator>
     <cc:Agent>
      <dc:title>Matplotlib v3.8.0, https://matplotlib.org/</dc:title>
     </cc:Agent>
    </dc:creator>
   </cc:Work>
  </rdf:RDF>
 </metadata>
 <defs>
  <style type="text/css">*{stroke-linejoin: round; stroke-linecap: butt}</style>
 </defs>
 <g id="figure_1">
  <g id="patch_1">
   <path d="M 0 345.6 
L 460.8 345.6 
L 460.8 0 
L 0 0 
z
" style="fill: #ffffff"/>
  </g>
  <g id="axes_1">
   <g id="patch_2">
    <path d="M 57.6 307.584 
L 414.72 307.584 
L 414.72 41.472 
L 57.6 41.472 
z
" style="fill: #ffffff"/>
   </g>
   <g id="matplotlib.axis_1">
    <g id="xtick_1">
     <g id="line2d_1">
      <defs>
       <path id="m162fcb4e89" d="M 0 0 
L 0 3.5 
" style="stroke: #000000; stroke-width: 0.8"/>
      </defs>
      <g>
       <use xlink:href="#m162fcb4e89" x="74.201653" y="307.584" style="stroke: #000000; stroke-width: 0.8"/>
      </g>
     </g>
     <g id="text_1">
      <!-- 08-06 -->
      <g transform="translate(59.672747 322.182437) scale(0.1 -0.1)">
       <defs>
        <path id="DejaVuSans-30" d="M 2034 4250 
Q 1547 4250 1301 3770 
Q 1056 3291 1056 2328 
Q 1056 1369 1301 889 
Q 1547 409 2034 409 
Q 2525 409 2770 889 
Q 3016 1369 3016 2328 
Q 3016 3291 2770 3770 
Q 2525 4250 2034 4250 
z
M 2034 4750 
Q 2819 4750 3233 4129 
Q 3647 3509 3647 2328 
Q 3647 1150 3233 529 
Q 2819 -91 2034 -91 
Q 1250 -91 836 529 
Q 422 1150 422 2328 
Q 422 3509 836 4129 
Q 1250 4750 2034 4750 
z
" transform="scale(0.015625)"/>
        <path id="DejaVuSans-38" d="M 2034 2216 
Q 1584 2216 1326 1975 
Q 1069 1734 1069 1313 
Q 1069 891 1326 650 
Q 1584 409 2034 409 
Q 2484 409 2743 651 
Q 3003 894 3003 1313 
Q 3003 1734 2745 1975 
Q 2488 2216 2034 2216 
z
M 1403 2484 
Q 997 2584 770 2862 
Q 544 3141 544 3541 
Q 544 4100 942 4425 
Q 1341 4750 2034 4750 
Q 2731 4750 3128 4425 
Q 3525 4100 3525 3541 
Q 3525 3141 3298 2862 
Q 3072 2584 2669 2484 
Q 3125 2378 3379 2068 
Q 3634 1759 3634 1313 
Q 3634 634 3220 271 
Q 2806 -91 2034 -91 
Q 1263 -91 848 271 
Q 434 634 434 1313 
Q 434 1759 690 2068 
Q 947 2378 1403 2484 
z
M 1172 3481 
Q 1172 3119 1398 2916 
Q 1625 2713 2034 2713 
Q 2441 2713 2670 2916 
Q 2900 3119 2900 3481 
Q 2900 3844 2670 4047 
Q 2441 4250 2034 4250 
Q 1625 4250 1398 4047 
Q 1172 3844 1172 3481 
z
" transform="scale(0.015625)"/>
        <path id="DejaVuSans-2d" d="M 313 2009 
L 1997 2009 
L 1997 1497 
L 313 1497 
L 313 2009 
z
" transform="scale(0.015625)"/>
        <path id="DejaVuSans-36" d="M 2113 2584 
Q 1688 2584 1439 2293 
Q 1191 2003 1191 1497 
Q 1191 994 1439 701 
Q 1688 409 2113 409 
Q 2538 409 2786 701 
Q 3034 994 3034 1497 
Q 3034 2003 2786 2293 
Q 2538 2584 2113 2584 
z
M 3366 4563 
L 3366 3988 
Q 3128 4100 2886 4159 
Q 2644 4219 2406 4219 
Q 1781 4219 1451 3797 
Q 1122 3375 1075 2522 
Q 1259 2794 1537 2939 
Q 1816 3084 2150 3084 
Q 2853 3084 3261 2657 
Q 3669 2231 3669 1497 
Q 3669 778 3244 343 
Q 2819 -91 2113 -91 
Q 1303 -91 875 529 
Q 447 1150 447 2328 
Q 447 3434 972 4092 
Q 1497 4750 2381 4750 
Q 2619 4750 2861 4703 
Q 3103 4656 3366 4563 
z
" transform="scale(0.015625)"/>
       </defs>
       <use xlink:href="#DejaVuSans-30"/>
       <use xlink:href="#DejaVuSans-38" x="63.623047"/>
       <use xlink:href="#DejaVuSans-2d" x="127.246094"/>
       <use xlink:href="#DejaVuSans-30" x="163.330078"/>
       <use xlink:href="#DejaVuSans-36" x="226.953125"/>
      </g>
     </g>
    </g>
    <g id="xtick_2">
     <g id="line2d_2">
      <g>
       <use xlink:href="#m162fcb4e89" x="118.472727" y="307.584" style="stroke: #000000; stroke-width: 0.8"/>
      </g>
     </g>
     <g id="text_2">
      <!-- 08-11 -->
      <g transform="translate(103.943821 322.182437) scale(0.1 -0.1)">
       <defs>
        <path id="DejaVuSans-31" d="M 794 531 
L 1825 531 
L 1825 4091 
L 703 3866 
L 703 4441 
L 1819 4666 
L 2450 4666 
L 2450 531 
L 3481 531 
L 3481 0 
L 794 0 
L 794 531 
z
" transform="scale(0.015625)"/>
       </defs>
       <use xlink:href="#DejaVuSans-30"/>
       <use xlink:href="#DejaVuSans-38" x="63.623047"/>
       <use xlink:href="#DejaVuSans-2d" x="127.246094"/>
       <use xlink:href="#DejaVuSans-31" x="163.330078"/>
       <use xlink:href="#DejaVuSans-31" x="226.953125"/>
      </g>
     </g>
    </g>
    <g id="xtick_3">
     <g id="line2d_3">
      <g>
       <use xlink:href="#m162fcb4e89" x="162.743802" y="307.584" style="stroke: #000000; stroke-width: 0.8"/>
      </g>
     </g>
     <g id="text_3">
      <!-- 08-16 -->
      <g transform="translate(148.214895 322.182437) scale(0.1 -0.1)">
       <use xlink:href="#DejaVuSans-30"/>
       <use xlink:href="#DejaVuSans-38" x="63.623047"/>
       <use xlink:href="#DejaVuSans-2d" x="127.246094"/>
       <use xlink:href="#DejaVuSans-31" x="163.330078"/>
       <use xlink:href="#DejaVuSans-36" x="226.953125"/>
      </g>
     </g>
    </g>
    <g id="xtick_4">
     <g id="line2d_4">
      <g>
       <use xlink:href="#m162fcb4e89" x="207.014876" y="307.584" style="stroke: #000000; stroke-width: 0.8"/>
      </g>
     </g>
     <g id="text_4">
      <!-- 08-21 -->
      <g transform="translate(192.48597 322.182437) scale(0.1 -0.1)">
       <defs>
        <path id="DejaVuSans-32" d="M 1228 531 
L 3431 531 
L 3431 0 
L 469 0 
L 469 531 
Q 828 903 1448 1529 
Q 2069 2156 2228 2338 
Q 2531 2678 2651 2914 
Q 2772 3150 2772 3378 
Q 2772 3750 2511 3984 
Q 2250 4219 1831 4219 
Q 1534 4219 1204 4116 
Q 875 4013 500 3803 
L 500 4441 
Q 881 4594 1212 4672 
Q 1544 4750 1819 4750 
Q 2544 4750 2975 4387 
Q 3406 4025 3406 3419 
Q 3406 3131 3298 2873 
Q 3191 2616 2906 2266 
Q 2828 2175 2409 1742 
Q 1991 1309 1228 531 
z
" transform="scale(0.015625)"/>
       </defs>
       <use xlink:href="#DejaVuSans-30"/>
       <use xlink:href="#DejaVuSans-38" x="63.623047"/>
       <use xlink:href="#DejaVuSans-2d" x="127.246094"/>
       <use xlink:href="#DejaVuSans-32" x="163.330078"/>
       <use xlink:href="#DejaVuSans-31" x="226.953125"/>
      </g>
     </g>
    </g>
    <g id="xtick_5">
     <g id="line2d_5">
      <g>
       <use xlink:href="#m162fcb4e89" x="251.28595" y="307.584" style="stroke: #000000; stroke-width: 0.8"/>
      </g>
     </g>
     <g id="text_5">
      <!-- 08-26 -->
      <g transform="translate(236.757044 322.182437) scale(0.1 -0.1)">
       <use xlink:href="#DejaVuSans-30"/>
       <use xlink:href="#DejaVuSans-38" x="63.623047"/>
       <use xlink:href="#DejaVuSans-2d" x="127.246094"/>
       <use xlink:href="#DejaVuSans-32" x="163.330078"/>
       <use xlink:href="#DejaVuSans-36" x="226.953125"/>
      </g>
     </g>
    </g>
    <g id="xtick_6">
     <g id="line2d_6">
      <g>
       <use xlink:href="#m162fcb4e89" x="295.557025" y="307.584" style="stroke: #000000; stroke-width: 0.8"/>
      </g>
     </g>
     <g id="text_6">
      <!-- 08-31 -->
      <g transform="translate(281.028119 322.182437) scale(0.1 -0.1)">
       <defs>
        <path id="DejaVuSans-33" d="M 2597 2516 
Q 3050 2419 3304 2112 
Q 3559 1806 3559 1356 
Q 3559 666 3084 287 
Q 2609 -91 1734 -91 
Q 1441 -91 1130 -33 
Q 819 25 488 141 
L 488 750 
Q 750 597 1062 519 
Q 1375 441 1716 441 
Q 2309 441 2620 675 
Q 2931 909 2931 1356 
Q 2931 1769 2642 2001 
Q 2353 2234 1838 2234 
L 1294 2234 
L 1294 2753 
L 1863 2753 
Q 2328 2753 2575 2939 
Q 2822 3125 2822 3475 
Q 2822 3834 2567 4026 
Q 2313 4219 1838 4219 
Q 1578 4219 1281 4162 
Q 984 4106 628 3988 
L 628 4550 
Q 988 4650 1302 4700 
Q 1616 4750 1894 4750 
Q 2613 4750 3031 4423 
Q 3450 4097 3450 3541 
Q 3450 3153 3228 2886 
Q 3006 2619 2597 2516 
z
" transform="scale(0.015625)"/>
       </defs>
       <use xlink:href="#DejaVuSans-30"/>
       <use xlink:href="#DejaVuSans-38" x="63.623047"/>
       <use xlink:href="#DejaVuSans-2d" x="127.246094"/>
       <use xlink:href="#DejaVuSans-33" x="163.330078"/>
       <use xlink:href="#DejaVuSans-31" x="226.953125"/>
      </g>
     </g>
    </g>
    <g id="xtick_7">
     <g id="line2d_7">
      <g>
       <use xlink:href="#m162fcb4e89" x="339.828099" y="307.584" style="stroke: #000000; stroke-width: 0.8"/>
      </g>
     </g>
     <g id="text_7">
      <!-- 09-05 -->
      <g transform="translate(325.299193 322.182437) scale(0.1 -0.1)">
       <defs>
        <path id="DejaVuSans-39" d="M 703 97 
L 703 672 
Q 941 559 1184 500 
Q 1428 441 1663 441 
Q 2288 441 2617 861 
Q 2947 1281 2994 2138 
Q 2813 1869 2534 1725 
Q 2256 1581 1919 1581 
Q 1219 1581 811 2004 
Q 403 2428 403 3163 
Q 403 3881 828 4315 
Q 1253 4750 1959 4750 
Q 2769 4750 3195 4129 
Q 3622 3509 3622 2328 
Q 3622 1225 3098 567 
Q 2575 -91 1691 -91 
Q 1453 -91 1209 -44 
Q 966 3 703 97 
z
M 1959 2075 
Q 2384 2075 2632 2365 
Q 2881 2656 2881 3163 
Q 2881 3666 2632 3958 
Q 2384 4250 1959 4250 
Q 1534 4250 1286 3958 
Q 1038 3666 1038 3163 
Q 1038 2656 1286 2365 
Q 1534 2075 1959 2075 
z
" transform="scale(0.015625)"/>
        <path id="DejaVuSans-35" d="M 691 4666 
L 3169 4666 
L 3169 4134 
L 1269 4134 
L 1269 2991 
Q 1406 3038 1543 3061 
Q 1681 3084 1819 3084 
Q 2600 3084 3056 2656 
Q 3513 2228 3513 1497 
Q 3513 744 3044 326 
Q 2575 -91 1722 -91 
Q 1428 -91 1123 -41 
Q 819 9 494 109 
L 494 744 
Q 775 591 1075 516 
Q 1375 441 1709 441 
Q 2250 441 2565 725 
Q 2881 1009 2881 1497 
Q 2881 1984 2565 2268 
Q 2250 2553 1709 2553 
Q 1456 2553 1204 2497 
Q 953 2441 691 2322 
L 691 4666 
z
" transform="scale(0.015625)"/>
       </defs>
       <use xlink:href="#DejaVuSans-30"/>
       <use xlink:href="#DejaVuSans-39" x="63.623047"/>
       <use xlink:href="#DejaVuSans-2d" x="127.246094"/>
       <use xlink:href="#DejaVuSans-30" x="163.330078"/>
       <use xlink:href="#DejaVuSans-35" x="226.953125"/>
      </g>
     </g>
    </g>
    <g id="xtick_8">
     <g id="line2d_8">
      <g>
       <use xlink:href="#m162fcb4e89" x="384.099174" y="307.584" style="stroke: #000000; stroke-width: 0.8"/>
      </g>
     </g>
     <g id="text_8">
      <!-- 09-10 -->
      <g transform="translate(369.570267 322.182437) scale(0.1 -0.1)">
       <use xlink:href="#DejaVuSans-30"/>
       <use xlink:href="#DejaVuSans-39" x="63.623047"/>
       <use xlink:href="#DejaVuSans-2d" x="127.246094"/>
       <use xlink:href="#DejaVuSans-31" x="163.330078"/>
       <use xlink:href="#DejaVuSans-30" x="226.953125"/>
      </g>
     </g>
    </g>
    <g id="text_9">
     <!-- Time -->
     <g transform="translate(223.926406 335.860562) scale(0.1 -0.1)">
      <defs>
       <path id="DejaVuSans-54" d="M -19 4666 
L 3928 4666 
L 3928 4134 
L 2272 4134 
L 2272 0 
L 1638 0 
L 1638 4134 
L -19 4134 
L -19 4666 
z
" transform="scale(0.015625)"/>
       <path id="DejaVuSans-69" d="M 603 3500 
L 1178 3500 
L 1178 0 
L 603 0 
L 603 3500 
z
M 603 4863 
L 1178 4863 
L 1178 4134 
L 603 4134 
L 603 4863 
z
" transform="scale(0.015625)"/>
       <path id="DejaVuSans-6d" d="M 3328 2828 
Q 3544 3216 3844 3400 
Q 4144 3584 4550 3584 
Q 5097 3584 5394 3201 
Q 5691 2819 5691 2113 
L 5691 0 
L 5113 0 
L 5113 2094 
Q 5113 2597 4934 2840 
Q 4756 3084 4391 3084 
Q 3944 3084 3684 2787 
Q 3425 2491 3425 1978 
L 3425 0 
L 2847 0 
L 2847 2094 
Q 2847 2600 2669 2842 
Q 2491 3084 2119 3084 
Q 1678 3084 1418 2786 
Q 1159 2488 1159 1978 
L 1159 0 
L 581 0 
L 581 3500 
L 1159 3500 
L 1159 2956 
Q 1356 3278 1631 3431 
Q 1906 3584 2284 3584 
Q 2666 3584 2933 3390 
Q 3200 3197 3328 2828 
z
" transform="scale(0.015625)"/>
       <path id="DejaVuSans-65" d="M 3597 1894 
L 3597 1613 
L 953 1613 
Q 991 1019 1311 708 
Q 1631 397 2203 397 
Q 2534 397 2845 478 
Q 3156 559 3463 722 
L 3463 178 
Q 3153 47 2828 -22 
Q 2503 -91 2169 -91 
Q 1331 -91 842 396 
Q 353 884 353 1716 
Q 353 2575 817 3079 
Q 1281 3584 2069 3584 
Q 2775 3584 3186 3129 
Q 3597 2675 3597 1894 
z
M 3022 2063 
Q 3016 2534 2758 2815 
Q 2500 3097 2075 3097 
Q 1594 3097 1305 2825 
Q 1016 2553 972 2059 
L 3022 2063 
z
" transform="scale(0.015625)"/>
      </defs>
      <use xlink:href="#DejaVuSans-54"/>
      <use xlink:href="#DejaVuSans-69" x="57.958984"/>
      <use xlink:href="#DejaVuSans-6d" x="85.742188"/>
      <use xlink:href="#DejaVuSans-65" x="183.154297"/>
     </g>
    </g>
   </g>
   <g id="matplotlib.axis_2">
    <g id="ytick_1">
     <g id="line2d_9">
      <defs>
       <path id="med8890f97e" d="M 0 0 
L -3.5 0 
" style="stroke: #000000; stroke-width: 0.8"/>
      </defs>
      <g>
       <use xlink:href="#med8890f97e" x="57.6" y="256.297556" style="stroke: #000000; stroke-width: 0.8"/>
      </g>
     </g>
     <g id="text_10">
      <!-- 20 -->
      <g transform="translate(37.875 260.096775) scale(0.1 -0.1)">
       <use xlink:href="#DejaVuSans-32"/>
       <use xlink:href="#DejaVuSans-30" x="63.623047"/>
      </g>
     </g>
    </g>
    <g id="ytick_2">
     <g id="line2d_10">
      <g>
       <use xlink:href="#med8890f97e" x="57.6" y="200.555993" style="stroke: #000000; stroke-width: 0.8"/>
      </g>
     </g>
     <g id="text_11">
      <!-- 40 -->
      <g transform="translate(37.875 204.355211) scale(0.1 -0.1)">
       <defs>
        <path id="DejaVuSans-34" d="M 2419 4116 
L 825 1625 
L 2419 1625 
L 2419 4116 
z
M 2253 4666 
L 3047 4666 
L 3047 1625 
L 3713 1625 
L 3713 1100 
L 3047 1100 
L 3047 0 
L 2419 0 
L 2419 1100 
L 313 1100 
L 313 1709 
L 2253 4666 
z
" transform="scale(0.015625)"/>
       </defs>
       <use xlink:href="#DejaVuSans-34"/>
       <use xlink:href="#DejaVuSans-30" x="63.623047"/>
      </g>
     </g>
    </g>
    <g id="ytick_3">
     <g id="line2d_11">
      <g>
       <use xlink:href="#med8890f97e" x="57.6" y="144.814429" style="stroke: #000000; stroke-width: 0.8"/>
      </g>
     </g>
     <g id="text_12">
      <!-- 60 -->
      <g transform="translate(37.875 148.613648) scale(0.1 -0.1)">
       <use xlink:href="#DejaVuSans-36"/>
       <use xlink:href="#DejaVuSans-30" x="63.623047"/>
      </g>
     </g>
    </g>
    <g id="ytick_4">
     <g id="line2d_12">
      <g>
       <use xlink:href="#med8890f97e" x="57.6" y="89.072866" style="stroke: #000000; stroke-width: 0.8"/>
      </g>
     </g>
     <g id="text_13">
      <!-- 80 -->
      <g transform="translate(37.875 92.872084) scale(0.1 -0.1)">
       <use xlink:href="#DejaVuSans-38"/>
       <use xlink:href="#DejaVuSans-30" x="63.623047"/>
      </g>
     </g>
    </g>
    <g id="text_14">
     <!-- BC $(ng/m^3)$ -->
     <g transform="translate(31.775 202.478) rotate(-90) scale(0.1 -0.1)">
      <defs>
       <path id="DejaVuSans-42" d="M 1259 2228 
L 1259 519 
L 2272 519 
Q 2781 519 3026 730 
Q 3272 941 3272 1375 
Q 3272 1813 3026 2020 
Q 2781 2228 2272 2228 
L 1259 2228 
z
M 1259 4147 
L 1259 2741 
L 2194 2741 
Q 2656 2741 2882 2914 
Q 3109 3088 3109 3444 
Q 3109 3797 2882 3972 
Q 2656 4147 2194 4147 
L 1259 4147 
z
M 628 4666 
L 2241 4666 
Q 2963 4666 3353 4366 
Q 3744 4066 3744 3513 
Q 3744 3084 3544 2831 
Q 3344 2578 2956 2516 
Q 3422 2416 3680 2098 
Q 3938 1781 3938 1306 
Q 3938 681 3513 340 
Q 3088 0 2303 0 
L 628 0 
L 628 4666 
z
" transform="scale(0.015625)"/>
       <path id="DejaVuSans-43" d="M 4122 4306 
L 4122 3641 
Q 3803 3938 3442 4084 
Q 3081 4231 2675 4231 
Q 1875 4231 1450 3742 
Q 1025 3253 1025 2328 
Q 1025 1406 1450 917 
Q 1875 428 2675 428 
Q 3081 428 3442 575 
Q 3803 722 4122 1019 
L 4122 359 
Q 3791 134 3420 21 
Q 3050 -91 2638 -91 
Q 1578 -91 968 557 
Q 359 1206 359 2328 
Q 359 3453 968 4101 
Q 1578 4750 2638 4750 
Q 3056 4750 3426 4639 
Q 3797 4528 4122 4306 
z
" transform="scale(0.015625)"/>
       <path id="DejaVuSans-20" transform="scale(0.015625)"/>
       <path id="DejaVuSans-28" d="M 1984 4856 
Q 1566 4138 1362 3434 
Q 1159 2731 1159 2009 
Q 1159 1288 1364 580 
Q 1569 -128 1984 -844 
L 1484 -844 
Q 1016 -109 783 600 
Q 550 1309 550 2009 
Q 550 2706 781 3412 
Q 1013 4119 1484 4856 
L 1984 4856 
z
" transform="scale(0.015625)"/>
       <path id="DejaVuSans-Oblique-6e" d="M 3566 2113 
L 3156 0 
L 2578 0 
L 2988 2091 
Q 3016 2238 3031 2350 
Q 3047 2463 3047 2528 
Q 3047 2791 2881 2937 
Q 2716 3084 2419 3084 
Q 1956 3084 1622 2776 
Q 1288 2469 1184 1941 
L 800 0 
L 225 0 
L 903 3500 
L 1478 3500 
L 1363 2950 
Q 1603 3253 1940 3418 
Q 2278 3584 2650 3584 
Q 3113 3584 3367 3334 
Q 3622 3084 3622 2631 
Q 3622 2519 3608 2391 
Q 3594 2263 3566 2113 
z
" transform="scale(0.015625)"/>
       <path id="DejaVuSans-Oblique-67" d="M 3816 3500 
L 3219 434 
Q 3047 -456 2561 -893 
Q 2075 -1331 1253 -1331 
Q 950 -1331 690 -1286 
Q 431 -1241 206 -1147 
L 313 -588 
Q 525 -725 762 -790 
Q 1000 -856 1269 -856 
Q 1816 -856 2167 -557 
Q 2519 -259 2631 300 
L 2681 563 
Q 2441 288 2122 144 
Q 1803 0 1434 0 
Q 903 0 598 351 
Q 294 703 294 1319 
Q 294 1803 478 2267 
Q 663 2731 997 3091 
Q 1219 3328 1514 3456 
Q 1809 3584 2131 3584 
Q 2484 3584 2746 3420 
Q 3009 3256 3138 2956 
L 3238 3500 
L 3816 3500 
z
M 2950 2216 
Q 2950 2641 2750 2872 
Q 2550 3103 2181 3103 
Q 1953 3103 1747 3012 
Q 1541 2922 1394 2759 
Q 1156 2491 1023 2127 
Q 891 1763 891 1375 
Q 891 944 1092 712 
Q 1294 481 1672 481 
Q 2219 481 2584 976 
Q 2950 1472 2950 2216 
z
" transform="scale(0.015625)"/>
       <path id="DejaVuSans-2f" d="M 1625 4666 
L 2156 4666 
L 531 -594 
L 0 -594 
L 1625 4666 
z
" transform="scale(0.015625)"/>
       <path id="DejaVuSans-Oblique-6d" d="M 5747 2113 
L 5338 0 
L 4763 0 
L 5166 2094 
Q 5191 2228 5203 2325 
Q 5216 2422 5216 2491 
Q 5216 2772 5059 2928 
Q 4903 3084 4622 3084 
Q 4203 3084 3875 2770 
Q 3547 2456 3450 1953 
L 3066 0 
L 2491 0 
L 2900 2094 
Q 2925 2209 2937 2307 
Q 2950 2406 2950 2484 
Q 2950 2769 2794 2926 
Q 2638 3084 2363 3084 
Q 1938 3084 1609 2770 
Q 1281 2456 1184 1953 
L 800 0 
L 225 0 
L 909 3500 
L 1484 3500 
L 1375 2956 
Q 1609 3263 1923 3423 
Q 2238 3584 2597 3584 
Q 2978 3584 3223 3384 
Q 3469 3184 3519 2828 
Q 3781 3197 4126 3390 
Q 4472 3584 4856 3584 
Q 5306 3584 5551 3325 
Q 5797 3066 5797 2591 
Q 5797 2488 5784 2364 
Q 5772 2241 5747 2113 
z
" transform="scale(0.015625)"/>
       <path id="DejaVuSans-29" d="M 513 4856 
L 1013 4856 
Q 1481 4119 1714 3412 
Q 1947 2706 1947 2009 
Q 1947 1309 1714 600 
Q 1481 -109 1013 -844 
L 513 -844 
Q 928 -128 1133 580 
Q 1338 1288 1338 2009 
Q 1338 2731 1133 3434 
Q 928 4138 513 4856 
z
" transform="scale(0.015625)"/>
      </defs>
      <use xlink:href="#DejaVuSans-42" transform="translate(0 0.765625)"/>
      <use xlink:href="#DejaVuSans-43" transform="translate(68.603516 0.765625)"/>
      <use xlink:href="#DejaVuSans-20" transform="translate(138.427734 0.765625)"/>
      <use xlink:href="#DejaVuSans-28" transform="translate(170.214844 0.765625)"/>
      <use xlink:href="#DejaVuSans-Oblique-6e" transform="translate(209.228516 0.765625)"/>
      <use xlink:href="#DejaVuSans-Oblique-67" transform="translate(272.607422 0.765625)"/>
      <use xlink:href="#DejaVuSans-2f" transform="translate(336.083984 0.765625)"/>
      <use xlink:href="#DejaVuSans-Oblique-6d" transform="translate(369.775391 0.765625)"/>
      <use xlink:href="#DejaVuSans-33" transform="translate(471.837396 39.046875) scale(0.7)"/>
      <use xlink:href="#DejaVuSans-29" transform="translate(519.107904 0.765625)"/>
     </g>
    </g>
   </g>
   <g id="line2d_13">
    <path d="M 73.832727 165.489186 
L 76.415207 185.511188 
L 77.153058 190.050542 
L 77.890909 193.32309 
L 78.62876 195.423955 
L 78.997686 195.992262 
L 79.366612 196.235424 
L 79.735537 196.110083 
L 80.104463 195.652447 
L 80.473388 194.931158 
L 81.21124 192.705151 
L 81.949091 189.648708 
L 83.055868 184.382388 
L 83.793719 181.491976 
L 84.900496 178.484832 
L 85.638347 177.066075 
L 86.376198 175.849168 
L 87.11405 174.333083 
L 88.958678 171.514624 
L 90.065455 168.647247 
L 91.541157 163.512957 
L 92.647934 160.084924 
L 93.385785 158.405424 
L 93.754711 157.874908 
L 94.123636 157.65658 
L 94.492562 157.814081 
L 94.861488 158.323775 
L 95.230413 159.118081 
L 95.599339 160.404205 
L 96.33719 164.42529 
L 97.443967 173.155074 
L 98.550744 184.238418 
L 100.764298 207.508268 
L 101.502149 213.488968 
L 102.608926 220.317818 
L 103.715702 225.599667 
L 104.822479 229.431228 
L 105.560331 231.489676 
L 107.773884 236.165146 
L 108.511736 238.095225 
L 109.249587 240.623766 
L 109.987438 243.687584 
L 111.094215 249.419252 
L 112.200992 256.443802 
L 115.521322 278.739907 
L 116.628099 284.488059 
L 117.734876 288.804858 
L 118.472727 291.111737 
L 119.210579 292.771873 
L 120.317355 294.832406 
L 121.055207 295.355222 
L 121.793058 295.488 
L 122.530909 295.221456 
L 123.26876 294.59445 
L 124.006612 293.710406 
L 124.744463 292.511017 
L 125.85124 290.149763 
L 126.958017 287.059807 
L 127.695868 284.528055 
L 129.17157 277.841933 
L 133.229752 258.393483 
L 133.967603 255.90944 
L 134.705455 254.017698 
L 135.812231 252.373012 
L 136.181157 252.084366 
L 136.550083 251.97503 
L 136.919008 251.986613 
L 137.287934 252.147043 
L 137.65686 252.445221 
L 138.394711 253.479794 
L 139.132562 254.872266 
L 140.239339 257.482482 
L 142.083967 262.669028 
L 143.928595 268.281845 
L 145.404298 273.607254 
L 147.248926 280.752312 
L 148.355702 283.93917 
L 149.093554 285.490451 
L 149.462479 285.993972 
L 149.831405 286.137546 
L 150.200331 286.094037 
L 150.569256 285.863311 
L 150.938182 285.383452 
L 151.676033 283.704815 
L 152.413884 281.312619 
L 153.520661 276.362854 
L 156.840992 259.482827 
L 157.578843 256.876912 
L 158.316694 255.08617 
L 158.68562 254.507856 
L 159.054545 254.136238 
L 159.423471 253.955399 
L 159.792397 253.942675 
L 160.899174 254.599483 
L 162.743802 256.366905 
L 163.481653 256.572916 
L 163.850579 256.476534 
L 164.58843 255.873012 
L 165.326281 254.826117 
L 166.064132 253.021962 
L 168.646612 245.446991 
L 169.384463 243.83213 
L 170.49124 241.984705 
L 170.860165 241.63719 
L 171.598017 241.374815 
L 172.335868 241.487698 
L 175.656198 243.030164 
L 178.238678 243.90049 
L 179.345455 243.777584 
L 181.190083 241.916554 
L 181.927934 240.615301 
L 182.665785 238.96124 
L 183.403636 236.875242 
L 184.510413 232.900674 
L 185.61719 227.646967 
L 186.723967 220.730959 
L 187.830744 212.751945 
L 188.937521 202.907667 
L 190.413223 187.011279 
L 191.52 173.330555 
L 192.626777 157.388348 
L 194.471405 125.849299 
L 196.316033 95.128157 
L 197.42281 79.28704 
L 198.529587 66.602989 
L 199.267438 60.364576 
L 200.005289 56.114358 
L 200.374215 54.812806 
L 200.74314 53.977124 
L 201.112066 53.568 
L 201.480992 53.605431 
L 201.849917 54.259133 
L 202.218843 55.588818 
L 202.956694 59.912895 
L 203.694545 66.061287 
L 204.432397 74.493642 
L 205.908099 95.138896 
L 208.121653 127.829334 
L 209.22843 141.38043 
L 210.704132 156.585239 
L 215.13124 200.527363 
L 220.665124 264.209773 
L 221.771901 273.311327 
L 222.509752 277.996696 
L 223.247603 281.33727 
L 223.985455 283.481936 
L 224.35438 283.896452 
L 224.723306 284.037585 
L 225.092231 283.815399 
L 225.461157 283.20943 
L 225.830083 282.253467 
L 226.567934 279.069516 
L 227.305785 274.650185 
L 228.412562 266.430548 
L 229.888264 253.122639 
L 231.732893 236.342307 
L 232.839669 228.099318 
L 233.577521 224.169419 
L 234.315372 221.558551 
L 234.684298 220.801918 
L 235.053223 220.37031 
L 235.422149 220.241392 
L 236.16 220.537812 
L 236.897851 221.549658 
L 238.004628 224.495391 
L 239.849256 229.432673 
L 240.587107 230.878058 
L 240.956033 231.314866 
L 241.324959 231.501589 
L 241.693884 231.437798 
L 242.06281 231.213223 
L 242.800661 230.273044 
L 243.538512 228.755123 
L 244.645289 225.818588 
L 245.38314 223.230159 
L 246.489917 217.745542 
L 250.548099 195.7274 
L 251.654876 191.579794 
L 252.761653 188.55291 
L 254.237355 185.058588 
L 254.975207 182.406705 
L 255.713058 179.333716 
L 256.819835 173.312198 
L 257.557686 168.251752 
L 258.664463 158.647186 
L 259.77124 146.074944 
L 263.09157 108.025253 
L 263.829421 101.58057 
L 264.567273 96.994219 
L 264.936198 95.446447 
L 265.305124 94.529324 
L 265.67405 94.261168 
L 266.042975 94.651588 
L 266.411901 95.716163 
L 266.780826 97.551179 
L 267.149752 100.203925 
L 267.887603 107.984912 
L 268.625455 119.052933 
L 269.732231 140.184423 
L 271.207934 171.806439 
L 272.683636 202.541233 
L 273.790413 221.026898 
L 274.528264 230.155491 
L 275.266116 236.907425 
L 276.372893 244.337867 
L 277.848595 251.639617 
L 278.586446 254.777765 
L 279.324298 257.604366 
L 280.8 264.544273 
L 282.275702 271.884839 
L 283.382479 276.179171 
L 284.120331 278.197649 
L 284.489256 278.899413 
L 284.858182 279.34748 
L 285.227107 279.550997 
L 285.596033 279.488847 
L 285.964959 279.155585 
L 286.333884 278.525457 
L 287.071736 276.442685 
L 287.809587 273.611413 
L 288.916364 267.910079 
L 290.02314 259.486682 
L 292.974545 234.200006 
L 294.450248 221.044967 
L 297.032727 199.535571 
L 299.984132 176.037306 
L 304.780165 137.624271 
L 306.255868 126.987056 
L 307.362645 120.429379 
L 308.469421 115.788252 
L 309.207273 113.863512 
L 309.576198 113.236093 
L 309.945124 112.959576 
L 310.31405 113.086807 
L 310.682975 113.4816 
L 311.789752 115.242203 
L 312.158678 115.341225 
L 313.265455 116.159642 
L 313.63438 116.216568 
L 314.003306 116.011263 
L 314.372231 115.515764 
L 315.110083 113.699858 
L 315.847934 110.916419 
L 316.954711 105.924931 
L 318.430413 98.493376 
L 318.799339 97.383163 
L 319.53719 96.200314 
L 319.906116 95.851992 
L 320.643967 95.693571 
L 321.012893 95.680142 
L 321.750744 96.180299 
L 322.119669 96.712466 
L 322.857521 98.297331 
L 323.964298 101.261859 
L 324.702149 103.929153 
L 325.44 107.283411 
L 326.546777 114.209894 
L 327.284628 120.485534 
L 328.022479 128.1097 
L 329.129256 142.362186 
L 330.236033 160.460799 
L 335.032066 246.383082 
L 336.138843 260.95879 
L 336.876694 268.594618 
L 337.614545 273.984039 
L 338.352397 278.076735 
L 339.459174 282.434805 
L 340.197025 284.194802 
L 340.56595 284.719311 
L 341.303802 285.185801 
L 342.410579 285.487017 
L 343.886281 285.382235 
L 344.255207 285.293151 
L 344.993058 284.683015 
L 345.730909 283.762422 
L 346.46876 282.384784 
L 347.206612 280.137877 
L 348.313388 276.006783 
L 349.420165 270.521104 
L 351.264793 259.701879 
L 352.740496 251.135754 
L 353.847273 245.581284 
L 356.429752 234.247048 
L 357.167603 231.076795 
L 358.27438 225.274046 
L 359.381157 218.194342 
L 360.487934 209.529162 
L 361.594711 199.070635 
L 364.17719 172.486432 
L 364.915041 166.622036 
L 365.652893 162.445808 
L 366.021818 161.128792 
L 366.390744 160.356137 
L 366.759669 159.94277 
L 367.128595 159.873317 
L 367.497521 160.321016 
L 367.866446 161.278353 
L 368.604298 164.289343 
L 369.711074 171.204805 
L 370.817851 178.173601 
L 371.555702 181.997377 
L 372.293554 184.221055 
L 373.031405 185.484931 
L 373.400331 185.768209 
L 373.769256 185.736978 
L 374.138182 185.384184 
L 374.507107 184.723985 
L 376.720661 178.221619 
L 377.458512 176.533446 
L 377.827438 175.978795 
L 378.196364 175.742014 
L 378.565289 175.799573 
L 378.934215 176.186371 
L 379.30314 176.797193 
L 379.672066 177.696819 
L 381.147769 182.202731 
L 381.88562 184.294202 
L 382.623471 186.409913 
L 383.361322 187.828787 
L 383.730248 188.409183 
L 384.099174 188.619883 
L 384.468099 188.70027 
L 385.20595 188.525262 
L 385.943802 188.436498 
L 386.681653 187.783706 
L 387.419504 187.179331 
L 387.78843 187.222323 
L 388.157355 187.454673 
L 388.526281 187.884207 
L 389.264132 189.72292 
L 390.001983 192.235463 
L 392.584463 202.630484 
L 393.69124 206.483702 
L 394.429091 208.317597 
L 395.166942 209.566231 
L 395.904793 210.511081 
L 396.273719 210.757654 
L 397.01157 210.910485 
L 398.487273 210.631137 
L 398.487273 210.631137 
" clip-path="url(#pcd2ee5a309)" style="fill: none; stroke: #1f77b4; stroke-width: 1.5; stroke-linecap: square"/>
   </g>
   <g id="line2d_14">
    <path d="M 73.832727 165.489186 
L 74.939504 175.719755 
L 76.046281 184.02035 
L 77.153058 190.593901 
L 78.259835 195.854265 
L 79.366612 199.992348 
L 80.473388 202.946908 
L 81.21124 204.404476 
L 81.949091 205.439158 
L 82.686942 205.980882 
L 83.793719 206.246851 
L 84.53157 206.19811 
L 85.269421 205.898685 
L 86.007273 205.241337 
L 86.745124 204.152663 
L 87.851901 201.839446 
L 88.589752 199.677012 
L 89.696529 195.63472 
L 91.172231 189.128783 
L 92.279008 184.511663 
L 93.01686 182.430803 
L 93.385785 181.763225 
L 93.754711 181.369567 
L 94.123636 181.263318 
L 94.492562 181.454544 
L 94.861488 181.942847 
L 95.230413 182.721974 
L 95.968264 185.100768 
L 96.706116 188.440886 
L 97.812893 194.66577 
L 100.026446 209.410067 
L 101.871074 221.002349 
L 103.346777 228.724141 
L 104.453554 233.43918 
L 105.560331 237.303888 
L 106.667107 240.412419 
L 107.773884 242.873682 
L 108.880661 244.826548 
L 109.987438 246.363616 
L 111.46314 248.135056 
L 112.938843 249.578823 
L 114.783471 251.060924 
L 116.628099 252.2433 
L 118.103802 252.934875 
L 119.210579 253.249568 
L 120.317355 253.326702 
L 121.424132 253.123793 
L 122.530909 252.616183 
L 123.637686 251.79619 
L 124.744463 250.673544 
L 126.220165 248.756426 
L 129.540496 244.047411 
L 130.647273 242.893657 
L 131.75405 242.083099 
L 132.860826 241.629899 
L 133.967603 241.498272 
L 135.07438 241.602575 
L 137.65686 242.156197 
L 141.346116 242.92924 
L 143.190744 243.09509 
L 145.773223 243.020692 
L 149.093554 242.763306 
L 151.307107 242.376171 
L 153.151736 241.816516 
L 154.627438 241.146426 
L 156.10314 240.218647 
L 157.578843 238.987344 
L 159.054545 237.415188 
L 160.530248 235.456914 
L 162.00595 233.076726 
L 163.481653 230.223928 
L 164.957355 226.798202 
L 166.433058 222.698463 
L 167.90876 217.874926 
L 169.753388 210.963737 
L 174.180496 193.400094 
L 175.287273 189.947081 
L 176.39405 187.460236 
L 177.500826 185.420816 
L 178.607603 183.965595 
L 179.71438 182.928945 
L 180.821157 182.141891 
L 181.559008 181.884383 
L 182.29686 181.865486 
L 183.034711 182.028315 
L 183.772562 182.405866 
L 184.879339 183.347689 
L 186.355041 185.183242 
L 187.461818 187.119739 
L 188.568595 189.541298 
L 190.413223 194.319091 
L 192.995702 201.165491 
L 194.102479 203.507707 
L 195.209256 205.117608 
L 196.316033 206.254409 
L 197.791736 207.382173 
L 198.529587 207.946625 
L 199.636364 209.539442 
L 200.74314 211.66074 
L 201.849917 214.334465 
L 204.801322 222.995258 
L 208.859504 234.757268 
L 210.335207 238.427701 
L 211.810909 241.54352 
L 213.286612 244.114274 
L 215.13124 246.904555 
L 217.344793 249.899771 
L 218.45157 251.102152 
L 219.189421 251.686662 
L 219.927273 252.044619 
L 220.665124 252.134458 
L 221.402975 251.878603 
L 222.140826 251.298456 
L 222.878678 250.368549 
L 223.616529 249.0716 
L 224.35438 247.381714 
L 225.461157 244.159036 
L 226.567934 240.202588 
L 228.043636 233.89835 
L 229.888264 224.933492 
L 232.470744 212.148094 
L 234.315372 203.978639 
L 236.897851 193.682472 
L 238.004628 189.874659 
L 241.693884 178.383246 
L 242.800661 175.698966 
L 243.907438 173.48955 
L 245.014215 171.69153 
L 246.489917 169.709126 
L 252.023802 162.816821 
L 252.761653 162.465326 
L 253.499504 162.466026 
L 253.86843 162.628226 
L 254.606281 163.329809 
L 254.975207 163.886952 
L 255.713058 165.624481 
L 256.450909 167.876103 
L 257.18876 170.745978 
L 258.295537 176.08301 
L 260.140165 186.69398 
L 264.198347 210.715926 
L 265.305124 215.824909 
L 266.411901 220.139922 
L 267.518678 223.76791 
L 268.625455 226.77626 
L 269.732231 229.084823 
L 270.839008 230.758996 
L 271.57686 231.498426 
L 272.314711 231.908483 
L 273.052562 231.962283 
L 273.790413 231.633154 
L 274.528264 230.832925 
L 275.266116 229.612771 
L 276.003967 227.950149 
L 276.741818 225.824138 
L 277.479669 223.193007 
L 278.586446 218.342375 
L 279.693223 212.452434 
L 281.168926 203.190121 
L 286.70281 165.794234 
L 287.809587 160.18362 
L 288.916364 155.812733 
L 289.654215 153.518605 
L 290.392066 151.764554 
L 291.129917 150.627475 
L 292.236694 149.515976 
L 292.974545 149.174006 
L 293.712397 149.17005 
L 294.450248 149.440288 
L 295.92595 150.397425 
L 297.401653 151.59709 
L 298.139504 151.99357 
L 298.877355 152.134814 
L 299.246281 152.103072 
L 299.984132 151.683263 
L 300.353058 151.353248 
L 301.090909 150.198657 
L 302.197686 147.895479 
L 305.149091 140.922268 
L 305.886942 139.894275 
L 306.624793 139.19615 
L 307.362645 138.743597 
L 308.838347 138.231989 
L 309.207273 138.126941 
L 312.527603 135.794849 
L 313.63438 135.475187 
L 315.110083 135.414607 
L 316.21686 135.123784 
L 316.954711 134.685909 
L 317.692562 133.967274 
L 318.430413 132.886036 
L 319.168264 131.416869 
L 320.275041 128.637706 
L 322.857521 121.578012 
L 323.964298 119.459054 
L 324.702149 118.496338 
L 325.44 117.978851 
L 326.177851 117.922659 
L 326.915702 118.296838 
L 327.653554 118.875709 
L 328.391405 119.692131 
L 329.498182 121.406188 
L 330.973884 123.777323 
L 332.080661 125.028037 
L 332.818512 125.334268 
L 333.187438 125.301993 
L 333.556364 125.144778 
L 334.294215 124.457662 
L 335.032066 123.287502 
L 335.769917 121.667426 
L 338.721322 114.252797 
L 339.459174 112.982084 
L 340.197025 112.076461 
L 340.934876 111.573175 
L 341.303802 111.517952 
L 341.672727 111.606228 
L 342.041653 111.847149 
L 342.410579 112.249472 
L 343.14843 113.570573 
L 343.886281 115.62666 
L 344.624132 118.46119 
L 345.361983 122.101308 
L 346.46876 129.107915 
L 347.575537 138.276964 
L 348.682314 149.804767 
L 350.158017 168.201902 
L 354.585124 226.415697 
L 355.691901 237.820147 
L 356.798678 247.184555 
L 357.905455 254.57216 
L 359.012231 260.187132 
L 360.119008 264.283996 
L 360.85686 266.299347 
L 361.594711 267.830187 
L 362.332562 268.952452 
L 363.070413 269.74925 
L 364.17719 270.539404 
L 365.283967 271.039 
L 367.497521 271.686479 
L 369.342149 272.289168 
L 371.555702 273.285609 
L 374.876033 274.799089 
L 378.934215 276.39751 
L 381.88562 277.361993 
L 384.099174 277.855857 
L 385.943802 278.058081 
L 387.78843 278.062627 
L 390.001983 277.84184 
L 396.642645 276.986669 
L 398.487273 276.871784 
L 398.487273 276.871784 
" clip-path="url(#pcd2ee5a309)" style="fill: none; stroke: #ff7f0e; stroke-width: 1.5; stroke-linecap: square"/>
   </g>
   <g id="patch_3">
    <path d="M 57.6 307.584 
L 57.6 41.472 
" style="fill: none; stroke: #000000; stroke-width: 0.8; stroke-linejoin: miter; stroke-linecap: square"/>
   </g>
   <g id="patch_4">
    <path d="M 414.72 307.584 
L 414.72 41.472 
" style="fill: none; stroke: #000000; stroke-width: 0.8; stroke-linejoin: miter; stroke-linecap: square"/>
   </g>
   <g id="patch_5">
    <path d="M 57.6 307.584 
L 414.72 307.584 
" style="fill: none; stroke: #000000; stroke-width: 0.8; stroke-linejoin: miter; stroke-linecap: square"/>
   </g>
   <g id="patch_6">
    <path d="M 57.6 41.472 
L 414.72 41.472 
" style="fill: none; stroke: #000000; stroke-width: 0.8; stroke-linejoin: miter; stroke-linecap: square"/>
   </g>
   <g id="legend_1">
    <g id="patch_7">
     <path d="M 335.168438 77.750125 
L 407.72 77.750125 
Q 409.72 77.750125 409.72 75.750125 
L 409.72 48.472 
Q 409.72 46.472 407.72 46.472 
L 335.168438 46.472 
Q 333.168438 46.472 333.168438 48.472 
L 333.168438 75.750125 
Q 333.168438 77.750125 335.168438 77.750125 
z
" style="fill: #ffffff; opacity: 0.8; stroke: #cccccc; stroke-linejoin: miter"/>
    </g>
    <g id="line2d_15">
     <path d="M 337.168438 53.972 
L 347.168438 53.972 
L 357.168438 53.972 
" style="fill: none; stroke: #1f77b4; stroke-width: 1.5; stroke-linecap: square"/>
    </g>
    <g id="text_15">
     <!-- Observed -->
     <g transform="translate(365.168438 57.472) scale(0.1 -0.1)">
      <defs>
       <path id="TimesNewRomanPSMT-4f" d="M 2341 4334 
Q 3166 4334 3770 3707 
Q 4375 3081 4375 2144 
Q 4375 1178 3765 540 
Q 3156 -97 2291 -97 
Q 1416 -97 820 525 
Q 225 1147 225 2134 
Q 225 3144 913 3781 
Q 1509 4334 2341 4334 
z
M 2281 4106 
Q 1713 4106 1369 3684 
Q 941 3159 941 2147 
Q 941 1109 1384 550 
Q 1725 125 2284 125 
Q 2881 125 3270 590 
Q 3659 1056 3659 2059 
Q 3659 3147 3231 3681 
Q 2888 4106 2281 4106 
z
" transform="scale(0.015625)"/>
       <path id="TimesNewRomanPSMT-62" d="M 984 2369 
Q 1400 2947 1881 2947 
Q 2322 2947 2650 2570 
Q 2978 2194 2978 1541 
Q 2978 778 2472 313 
Q 2038 -88 1503 -88 
Q 1253 -88 995 3 
Q 738 94 469 275 
L 469 3241 
Q 469 3728 445 3840 
Q 422 3953 372 3993 
Q 322 4034 247 4034 
Q 159 4034 28 3984 
L -16 4094 
L 844 4444 
L 984 4444 
L 984 2369 
z
M 984 2169 
L 984 456 
Q 1144 300 1314 220 
Q 1484 141 1663 141 
Q 1947 141 2192 453 
Q 2438 766 2438 1363 
Q 2438 1913 2192 2208 
Q 1947 2503 1634 2503 
Q 1469 2503 1303 2419 
Q 1178 2356 984 2169 
z
" transform="scale(0.015625)"/>
       <path id="TimesNewRomanPSMT-73" d="M 2050 2947 
L 2050 1972 
L 1947 1972 
Q 1828 2431 1642 2597 
Q 1456 2763 1169 2763 
Q 950 2763 815 2647 
Q 681 2531 681 2391 
Q 681 2216 781 2091 
Q 878 1963 1175 1819 
L 1631 1597 
Q 2266 1288 2266 781 
Q 2266 391 1970 151 
Q 1675 -88 1309 -88 
Q 1047 -88 709 6 
Q 606 38 541 38 
Q 469 38 428 -44 
L 325 -44 
L 325 978 
L 428 978 
Q 516 541 762 319 
Q 1009 97 1316 97 
Q 1531 97 1667 223 
Q 1803 350 1803 528 
Q 1803 744 1651 891 
Q 1500 1038 1047 1263 
Q 594 1488 453 1669 
Q 313 1847 313 2119 
Q 313 2472 555 2709 
Q 797 2947 1181 2947 
Q 1350 2947 1591 2875 
Q 1750 2828 1803 2828 
Q 1853 2828 1881 2850 
Q 1909 2872 1947 2947 
L 2050 2947 
z
" transform="scale(0.015625)"/>
       <path id="TimesNewRomanPSMT-65" d="M 681 1784 
Q 678 1147 991 784 
Q 1303 422 1725 422 
Q 2006 422 2214 576 
Q 2422 731 2563 1106 
L 2659 1044 
Q 2594 616 2278 264 
Q 1963 -88 1488 -88 
Q 972 -88 605 314 
Q 238 716 238 1394 
Q 238 2128 614 2539 
Q 991 2950 1559 2950 
Q 2041 2950 2350 2633 
Q 2659 2316 2659 1784 
L 681 1784 
z
M 681 1966 
L 2006 1966 
Q 1991 2241 1941 2353 
Q 1863 2528 1708 2628 
Q 1553 2728 1384 2728 
Q 1125 2728 920 2526 
Q 716 2325 681 1966 
z
" transform="scale(0.015625)"/>
       <path id="TimesNewRomanPSMT-72" d="M 1038 2947 
L 1038 2303 
Q 1397 2947 1775 2947 
Q 1947 2947 2059 2842 
Q 2172 2738 2172 2600 
Q 2172 2478 2090 2393 
Q 2009 2309 1897 2309 
Q 1788 2309 1652 2417 
Q 1516 2525 1450 2525 
Q 1394 2525 1328 2463 
Q 1188 2334 1038 2041 
L 1038 669 
Q 1038 431 1097 309 
Q 1138 225 1241 169 
Q 1344 113 1538 113 
L 1538 0 
L 72 0 
L 72 113 
Q 291 113 397 181 
Q 475 231 506 341 
Q 522 394 522 644 
L 522 1753 
Q 522 2253 501 2348 
Q 481 2444 426 2487 
Q 372 2531 291 2531 
Q 194 2531 72 2484 
L 41 2597 
L 906 2947 
L 1038 2947 
z
" transform="scale(0.015625)"/>
       <path id="TimesNewRomanPSMT-76" d="M 53 2863 
L 1400 2863 
L 1400 2747 
L 1313 2747 
Q 1191 2747 1127 2687 
Q 1063 2628 1063 2528 
Q 1063 2419 1128 2269 
L 1794 688 
L 2463 2328 
Q 2534 2503 2534 2594 
Q 2534 2638 2509 2666 
Q 2475 2713 2422 2730 
Q 2369 2747 2206 2747 
L 2206 2863 
L 3141 2863 
L 3141 2747 
Q 2978 2734 2916 2681 
Q 2806 2588 2719 2369 
L 1703 -88 
L 1575 -88 
L 553 2328 
Q 484 2497 421 2570 
Q 359 2644 263 2694 
Q 209 2722 53 2747 
L 53 2863 
z
" transform="scale(0.015625)"/>
       <path id="TimesNewRomanPSMT-64" d="M 2222 322 
Q 2013 103 1813 7 
Q 1613 -88 1381 -88 
Q 913 -88 563 304 
Q 213 697 213 1313 
Q 213 1928 600 2439 
Q 988 2950 1597 2950 
Q 1975 2950 2222 2709 
L 2222 3238 
Q 2222 3728 2198 3840 
Q 2175 3953 2125 3993 
Q 2075 4034 2000 4034 
Q 1919 4034 1784 3984 
L 1744 4094 
L 2597 4444 
L 2738 4444 
L 2738 1134 
Q 2738 631 2761 520 
Q 2784 409 2836 365 
Q 2888 322 2956 322 
Q 3041 322 3181 375 
L 3216 266 
L 2366 -88 
L 2222 -88 
L 2222 322 
z
M 2222 541 
L 2222 2016 
Q 2203 2228 2109 2403 
Q 2016 2578 1861 2667 
Q 1706 2756 1559 2756 
Q 1284 2756 1069 2509 
Q 784 2184 784 1559 
Q 784 928 1059 592 
Q 1334 256 1672 256 
Q 1956 256 2222 541 
z
" transform="scale(0.015625)"/>
      </defs>
      <use xlink:href="#TimesNewRomanPSMT-4f"/>
      <use xlink:href="#TimesNewRomanPSMT-62" x="72.216797"/>
      <use xlink:href="#TimesNewRomanPSMT-73" x="122.216797"/>
      <use xlink:href="#TimesNewRomanPSMT-65" x="161.132812"/>
      <use xlink:href="#TimesNewRomanPSMT-72" x="205.517578"/>
      <use xlink:href="#TimesNewRomanPSMT-76" x="238.818359"/>
      <use xlink:href="#TimesNewRomanPSMT-65" x="288.818359"/>
      <use xlink:href="#TimesNewRomanPSMT-64" x="333.203125"/>
     </g>
    </g>
    <g id="line2d_16">
     <path d="M 337.168438 68.111063 
L 347.168438 68.111063 
L 357.168438 68.111063 
" style="fill: none; stroke: #ff7f0e; stroke-width: 1.5; stroke-linecap: square"/>
    </g>
    <g id="text_16">
     <!-- Simulated -->
     <g transform="translate(365.168438 71.611063) scale(0.1 -0.1)">
      <defs>
       <path id="TimesNewRomanPSMT-53" d="M 2934 4334 
L 2934 2869 
L 2819 2869 
Q 2763 3291 2617 3541 
Q 2472 3791 2203 3937 
Q 1934 4084 1647 4084 
Q 1322 4084 1109 3886 
Q 897 3688 897 3434 
Q 897 3241 1031 3081 
Q 1225 2847 1953 2456 
Q 2547 2138 2764 1967 
Q 2981 1797 3098 1565 
Q 3216 1334 3216 1081 
Q 3216 600 2842 251 
Q 2469 -97 1881 -97 
Q 1697 -97 1534 -69 
Q 1438 -53 1133 45 
Q 828 144 747 144 
Q 669 144 623 97 
Q 578 50 556 -97 
L 441 -97 
L 441 1356 
L 556 1356 
Q 638 900 775 673 
Q 913 447 1195 297 
Q 1478 147 1816 147 
Q 2206 147 2432 353 
Q 2659 559 2659 841 
Q 2659 997 2573 1156 
Q 2488 1316 2306 1453 
Q 2184 1547 1640 1851 
Q 1097 2156 867 2337 
Q 638 2519 519 2737 
Q 400 2956 400 3219 
Q 400 3675 750 4004 
Q 1100 4334 1641 4334 
Q 1978 4334 2356 4169 
Q 2531 4091 2603 4091 
Q 2684 4091 2736 4139 
Q 2788 4188 2819 4334 
L 2934 4334 
z
" transform="scale(0.015625)"/>
       <path id="TimesNewRomanPSMT-69" d="M 928 4444 
Q 1059 4444 1151 4351 
Q 1244 4259 1244 4128 
Q 1244 3997 1151 3903 
Q 1059 3809 928 3809 
Q 797 3809 703 3903 
Q 609 3997 609 4128 
Q 609 4259 701 4351 
Q 794 4444 928 4444 
z
M 1188 2947 
L 1188 647 
Q 1188 378 1227 289 
Q 1266 200 1342 156 
Q 1419 113 1622 113 
L 1622 0 
L 231 0 
L 231 113 
Q 441 113 512 153 
Q 584 194 626 287 
Q 669 381 669 647 
L 669 1750 
Q 669 2216 641 2353 
Q 619 2453 572 2492 
Q 525 2531 444 2531 
Q 356 2531 231 2484 
L 188 2597 
L 1050 2947 
L 1188 2947 
z
" transform="scale(0.015625)"/>
       <path id="TimesNewRomanPSMT-6d" d="M 1050 2338 
Q 1363 2650 1419 2697 
Q 1559 2816 1721 2881 
Q 1884 2947 2044 2947 
Q 2313 2947 2506 2790 
Q 2700 2634 2766 2338 
Q 3088 2713 3309 2830 
Q 3531 2947 3766 2947 
Q 3994 2947 4170 2830 
Q 4347 2713 4450 2447 
Q 4519 2266 4519 1878 
L 4519 647 
Q 4519 378 4559 278 
Q 4591 209 4675 161 
Q 4759 113 4950 113 
L 4950 0 
L 3538 0 
L 3538 113 
L 3597 113 
Q 3781 113 3884 184 
Q 3956 234 3988 344 
Q 4000 397 4000 647 
L 4000 1878 
Q 4000 2228 3916 2372 
Q 3794 2572 3525 2572 
Q 3359 2572 3192 2489 
Q 3025 2406 2788 2181 
L 2781 2147 
L 2788 2013 
L 2788 647 
Q 2788 353 2820 281 
Q 2853 209 2943 161 
Q 3034 113 3253 113 
L 3253 0 
L 1806 0 
L 1806 113 
Q 2044 113 2133 169 
Q 2222 225 2256 338 
Q 2272 391 2272 647 
L 2272 1878 
Q 2272 2228 2169 2381 
Q 2031 2581 1784 2581 
Q 1616 2581 1450 2491 
Q 1191 2353 1050 2181 
L 1050 647 
Q 1050 366 1089 281 
Q 1128 197 1204 155 
Q 1281 113 1516 113 
L 1516 0 
L 100 0 
L 100 113 
Q 297 113 375 155 
Q 453 197 493 289 
Q 534 381 534 647 
L 534 1741 
Q 534 2213 506 2350 
Q 484 2453 437 2492 
Q 391 2531 309 2531 
Q 222 2531 100 2484 
L 53 2597 
L 916 2947 
L 1050 2947 
L 1050 2338 
z
" transform="scale(0.015625)"/>
       <path id="TimesNewRomanPSMT-75" d="M 2709 2863 
L 2709 1128 
Q 2709 631 2732 520 
Q 2756 409 2807 365 
Q 2859 322 2928 322 
Q 3025 322 3147 375 
L 3191 266 
L 2334 -88 
L 2194 -88 
L 2194 519 
Q 1825 119 1631 15 
Q 1438 -88 1222 -88 
Q 981 -88 804 51 
Q 628 191 559 409 
Q 491 628 491 1028 
L 491 2306 
Q 491 2509 447 2587 
Q 403 2666 317 2708 
Q 231 2750 6 2747 
L 6 2863 
L 1009 2863 
L 1009 947 
Q 1009 547 1148 422 
Q 1288 297 1484 297 
Q 1619 297 1789 381 
Q 1959 466 2194 703 
L 2194 2325 
Q 2194 2569 2105 2655 
Q 2016 2741 1734 2747 
L 1734 2863 
L 2709 2863 
z
" transform="scale(0.015625)"/>
       <path id="TimesNewRomanPSMT-6c" d="M 1184 4444 
L 1184 647 
Q 1184 378 1223 290 
Q 1263 203 1344 158 
Q 1425 113 1647 113 
L 1647 0 
L 244 0 
L 244 113 
Q 441 113 512 153 
Q 584 194 625 287 
Q 666 381 666 647 
L 666 3247 
Q 666 3731 644 3842 
Q 622 3953 573 3993 
Q 525 4034 450 4034 
Q 369 4034 244 3984 
L 191 4094 
L 1044 4444 
L 1184 4444 
z
" transform="scale(0.015625)"/>
       <path id="TimesNewRomanPSMT-61" d="M 1822 413 
Q 1381 72 1269 19 
Q 1100 -59 909 -59 
Q 613 -59 420 144 
Q 228 347 228 678 
Q 228 888 322 1041 
Q 450 1253 767 1440 
Q 1084 1628 1822 1897 
L 1822 2009 
Q 1822 2438 1686 2597 
Q 1550 2756 1291 2756 
Q 1094 2756 978 2650 
Q 859 2544 859 2406 
L 866 2225 
Q 866 2081 792 2003 
Q 719 1925 600 1925 
Q 484 1925 411 2006 
Q 338 2088 338 2228 
Q 338 2497 613 2722 
Q 888 2947 1384 2947 
Q 1766 2947 2009 2819 
Q 2194 2722 2281 2516 
Q 2338 2381 2338 1966 
L 2338 994 
Q 2338 584 2353 492 
Q 2369 400 2405 369 
Q 2441 338 2488 338 
Q 2538 338 2575 359 
Q 2641 400 2828 588 
L 2828 413 
Q 2478 -56 2159 -56 
Q 2006 -56 1915 50 
Q 1825 156 1822 413 
z
M 1822 616 
L 1822 1706 
Q 1350 1519 1213 1441 
Q 966 1303 859 1153 
Q 753 1003 753 825 
Q 753 600 887 451 
Q 1022 303 1197 303 
Q 1434 303 1822 616 
z
" transform="scale(0.015625)"/>
       <path id="TimesNewRomanPSMT-74" d="M 1031 3803 
L 1031 2863 
L 1700 2863 
L 1700 2644 
L 1031 2644 
L 1031 788 
Q 1031 509 1111 412 
Q 1191 316 1316 316 
Q 1419 316 1516 380 
Q 1613 444 1666 569 
L 1788 569 
Q 1678 263 1478 108 
Q 1278 -47 1066 -47 
Q 922 -47 784 33 
Q 647 113 581 261 
Q 516 409 516 719 
L 516 2644 
L 63 2644 
L 63 2747 
Q 234 2816 414 2980 
Q 594 3144 734 3369 
Q 806 3488 934 3803 
L 1031 3803 
z
" transform="scale(0.015625)"/>
      </defs>
      <use xlink:href="#TimesNewRomanPSMT-53"/>
      <use xlink:href="#TimesNewRomanPSMT-69" x="55.615234"/>
      <use xlink:href="#TimesNewRomanPSMT-6d" x="83.398438"/>
      <use xlink:href="#TimesNewRomanPSMT-75" x="161.181641"/>
      <use xlink:href="#TimesNewRomanPSMT-6c" x="211.181641"/>
      <use xlink:href="#TimesNewRomanPSMT-61" x="238.964844"/>
      <use xlink:href="#TimesNewRomanPSMT-74" x="283.349609"/>
      <use xlink:href="#TimesNewRomanPSMT-65" x="311.132812"/>
      <use xlink:href="#TimesNewRomanPSMT-64" x="355.517578"/>
     </g>
    </g>
   </g>
  </g>
 </g>
 <defs>
  <clipPath id="pcd2ee5a309">
   <rect x="57.6" y="41.472" width="357.12" height="266.112"/>
  </clipPath>
 </defs>
</svg>
